<?xml version="1.0" encoding="UTF-8" standalone="no"?>
<!DOCTYPE svg PUBLIC "-//W3C//DTD SVG 1.1//EN"
 "http://www.w3.org/Graphics/SVG/1.1/DTD/svg11.dtd">
<!-- Generated by graphviz version 2.47.1 (20210515.0534)
 -->
<!-- Title: eltau::EagerTerminal Pages: 1 -->
<svg width="244pt" height="106pt"
 viewBox="0.00 0.00 244.00 106.00" xmlns="http://www.w3.org/2000/svg" xmlns:xlink="http://www.w3.org/1999/xlink">
<g id="graph0" class="graph" transform="scale(1 1) rotate(0) translate(4 102)">
<title>eltau::EagerTerminal</title>
<!-- Node1 -->
<g id="node1" class="node">
<title>Node1</title>
<g id="a_node1"><a xlink:title="Terminal without caching.">
<polygon fill="#bfbfbf" stroke="black" points="65.5,-0.5 65.5,-19.5 169.5,-19.5 169.5,-0.5 65.5,-0.5"/>
<text text-anchor="middle" x="117.5" y="-7.5" font-family="Helvetica,sans-Serif" font-size="10.00">eltau::EagerTerminal</text>
</a>
</g>
</g>
<!-- Node2 -->
<g id="node2" class="node">
<title>Node2</title>
<g id="a_node2"><a xlink:title=" ">
<polygon fill="none" stroke="#bfbfbf" points="0,-67.5 0,-97.5 109,-97.5 109,-67.5 0,-67.5"/>
<text text-anchor="start" x="8" y="-85.5" font-family="Helvetica,sans-Serif" font-size="10.00">std::unique_ptr&lt; eltau</text>
<text text-anchor="middle" x="54.5" y="-74.5" font-family="Helvetica,sans-Serif" font-size="10.00">::Element &gt;</text>
</a>
</g>
</g>
<!-- Node2&#45;&gt;Node1 -->
<g id="edge1" class="edge">
<title>Node2&#45;&gt;Node1</title>
<path fill="none" stroke="#9a32cd" stroke-dasharray="5,2" d="M73.93,-59.76C85.92,-46.34 100.66,-29.85 109.55,-19.89"/>
<polygon fill="#9a32cd" stroke="#9a32cd" points="71.3,-57.44 67.25,-67.23 76.52,-62.11 71.3,-57.44"/>
<text text-anchor="middle" x="109" y="-41" font-family="Helvetica,sans-Serif" font-size="10.00"> m_root</text>
</g>
<!-- Node3 -->
<g id="node3" class="node">
<title>Node3</title>
<g id="a_node3"><a xlink:title=" ">
<polygon fill="none" stroke="#bfbfbf" points="127,-67.5 127,-97.5 236,-97.5 236,-67.5 127,-67.5"/>
<text text-anchor="start" x="135" y="-85.5" font-family="Helvetica,sans-Serif" font-size="10.00">std::unique_ptr&lt; eltau</text>
<text text-anchor="middle" x="181.5" y="-74.5" font-family="Helvetica,sans-Serif" font-size="10.00">::Screen &gt;</text>
</a>
</g>
</g>
<!-- Node3&#45;&gt;Node1 -->
<g id="edge2" class="edge">
<title>Node3&#45;&gt;Node1</title>
<path fill="none" stroke="#9a32cd" stroke-dasharray="5,2" d="M161.77,-59.76C149.59,-46.34 134.61,-29.85 125.57,-19.89"/>
<polygon fill="#9a32cd" stroke="#9a32cd" points="159.24,-62.18 168.55,-67.23 164.42,-57.48 159.24,-62.18"/>
<text text-anchor="middle" x="173.5" y="-41" font-family="Helvetica,sans-Serif" font-size="10.00"> m_screen</text>
</g>
</g>
</svg>
