<?xml version="1.0" encoding="UTF-8" standalone="no"?>
<!DOCTYPE svg PUBLIC "-//W3C//DTD SVG 1.1//EN"
 "http://www.w3.org/Graphics/SVG/1.1/DTD/svg11.dtd">
<!-- Generated by graphviz version 2.47.1 (20210515.0534)
 -->
<!-- Title: eltau::ascii::Text Pages: 1 -->
<svg width="186pt" height="173pt"
 viewBox="0.00 0.00 185.50 173.00" xmlns="http://www.w3.org/2000/svg" xmlns:xlink="http://www.w3.org/1999/xlink">
<g id="graph0" class="graph" transform="scale(1 1) rotate(0) translate(4 169)">
<title>eltau::ascii::Text</title>
<!-- Node1 -->
<g id="node1" class="node">
<title>Node1</title>
<g id="a_node1"><a xlink:title="Basic styled ASCII text with optional wrapping.">
<polygon fill="#bfbfbf" stroke="black" points="38,-0.5 38,-19.5 124,-19.5 124,-0.5 38,-0.5"/>
<text text-anchor="middle" x="81" y="-7.5" font-family="Helvetica,sans-Serif" font-size="10.00">eltau::ascii::Text</text>
</a>
</g>
</g>
<!-- Node2 -->
<g id="node2" class="node">
<title>Node2</title>
<g id="a_node2"><a xlink:href="classeltau_1_1Element.html" target="_top" xlink:title="Basic TUI drawable element.">
<polygon fill="none" stroke="black" points="0.5,-67.5 0.5,-86.5 77.5,-86.5 77.5,-67.5 0.5,-67.5"/>
<text text-anchor="middle" x="39" y="-74.5" font-family="Helvetica,sans-Serif" font-size="10.00">eltau::Element</text>
</a>
</g>
</g>
<!-- Node2&#45;&gt;Node1 -->
<g id="edge1" class="edge">
<title>Node2&#45;&gt;Node1</title>
<path fill="none" stroke="midnightblue" d="M50.29,-58.53C58.42,-45.95 69.04,-29.51 75.43,-19.63"/>
<polygon fill="midnightblue" stroke="midnightblue" points="47.15,-56.94 44.66,-67.23 53.03,-60.73 47.15,-56.94"/>
</g>
<!-- Node3 -->
<g id="node3" class="node">
<title>Node3</title>
<g id="a_node3"><a xlink:href="structeltau_1_1Size2.html" target="_top" xlink:title="Positive offset, analogous to std::size_t for 1D.">
<polygon fill="none" stroke="black" points="0,-140 0,-159 66,-159 66,-140 0,-140"/>
<text text-anchor="middle" x="33" y="-147" font-family="Helvetica,sans-Serif" font-size="10.00">eltau::Size2</text>
</a>
</g>
</g>
<!-- Node3&#45;&gt;Node2 -->
<g id="edge2" class="edge">
<title>Node3&#45;&gt;Node2</title>
<path fill="none" stroke="#9a32cd" stroke-dasharray="5,2" d="M34.59,-129.86C35.77,-115.9 37.35,-97.43 38.26,-86.72"/>
<polygon fill="#9a32cd" stroke="#9a32cd" points="31.1,-129.59 33.74,-139.86 38.07,-130.19 31.1,-129.59"/>
<text text-anchor="middle" x="75" y="-108" font-family="Helvetica,sans-Serif" font-size="10.00"> m_last_pref_size</text>
</g>
<!-- Node4 -->
<g id="node4" class="node">
<title>Node4</title>
<g id="a_node4"><a xlink:title=" ">
<polygon fill="none" stroke="#bfbfbf" points="98.5,-67.5 98.5,-86.5 157.5,-86.5 157.5,-67.5 98.5,-67.5"/>
<text text-anchor="middle" x="128" y="-74.5" font-family="Helvetica,sans-Serif" font-size="10.00">std::string</text>
</a>
</g>
</g>
<!-- Node4&#45;&gt;Node1 -->
<g id="edge3" class="edge">
<title>Node4&#45;&gt;Node1</title>
<path fill="none" stroke="#9a32cd" stroke-dasharray="5,2" d="M115.64,-58.9C106.51,-46.27 94.45,-29.6 87.24,-19.63"/>
<polygon fill="#9a32cd" stroke="#9a32cd" points="112.97,-61.18 121.66,-67.23 118.64,-57.08 112.97,-61.18"/>
<text text-anchor="middle" x="124" y="-41" font-family="Helvetica,sans-Serif" font-size="10.00"> m_text</text>
</g>
<!-- Node5 -->
<g id="node5" class="node">
<title>Node5</title>
<g id="a_node5"><a xlink:title=" ">
<polygon fill="none" stroke="#bfbfbf" points="84.5,-134.5 84.5,-164.5 177.5,-164.5 177.5,-134.5 84.5,-134.5"/>
<text text-anchor="start" x="92.5" y="-152.5" font-family="Helvetica,sans-Serif" font-size="10.00">std::basic_string&lt;</text>
<text text-anchor="middle" x="131" y="-141.5" font-family="Helvetica,sans-Serif" font-size="10.00"> Char &gt;</text>
</a>
</g>
</g>
<!-- Node5&#45;&gt;Node4 -->
<g id="edge4" class="edge">
<title>Node5&#45;&gt;Node4</title>
<path fill="none" stroke="midnightblue" d="M129.96,-124.09C129.41,-111.21 128.77,-96.2 128.38,-86.89"/>
<polygon fill="midnightblue" stroke="midnightblue" points="126.47,-124.39 130.39,-134.23 133.46,-124.09 126.47,-124.39"/>
</g>
</g>
</svg>
