<?xml version="1.0" encoding="UTF-8" standalone="no"?>
<!DOCTYPE svg PUBLIC "-//W3C//DTD SVG 1.1//EN"
 "http://www.w3.org/Graphics/SVG/1.1/DTD/svg11.dtd">
<!-- Generated by graphviz version 2.47.1 (20210515.0534)
 -->
<!-- Title: eltau::Screen Pages: 1 -->
<svg width="259pt" height="273pt"
 viewBox="0.00 0.00 259.00 273.00" xmlns="http://www.w3.org/2000/svg" xmlns:xlink="http://www.w3.org/1999/xlink">
<g id="graph0" class="graph" transform="scale(1 1) rotate(0) translate(4 269)">
<title>eltau::Screen</title>
<!-- Node1 -->
<g id="node1" class="node">
<title>Node1</title>
<g id="a_node1"><a xlink:title="Abstract terminal screen.">
<polygon fill="#bfbfbf" stroke="black" points="129,-0.5 129,-19.5 202,-19.5 202,-0.5 129,-0.5"/>
<text text-anchor="middle" x="165.5" y="-7.5" font-family="Helvetica,sans-Serif" font-size="10.00">eltau::Screen</text>
</a>
</g>
</g>
<!-- Node2 -->
<g id="node2" class="node">
<title>Node2</title>
<g id="a_node2"><a xlink:title=" ">
<polygon fill="none" stroke="#bfbfbf" points="71,-67.5 71,-97.5 162,-97.5 162,-67.5 71,-67.5"/>
<text text-anchor="start" x="79" y="-85.5" font-family="Helvetica,sans-Serif" font-size="10.00">std::vector&lt; eltau</text>
<text text-anchor="middle" x="116.5" y="-74.5" font-family="Helvetica,sans-Serif" font-size="10.00">::Cell &gt;</text>
</a>
</g>
</g>
<!-- Node2&#45;&gt;Node1 -->
<g id="edge1" class="edge">
<title>Node2&#45;&gt;Node1</title>
<path fill="none" stroke="#9a32cd" stroke-dasharray="5,2" d="M132.13,-59.01C141.36,-45.73 152.53,-29.66 159.32,-19.89"/>
<polygon fill="#9a32cd" stroke="#9a32cd" points="129.25,-57.02 126.42,-67.23 135,-61.02 129.25,-57.02"/>
<text text-anchor="middle" x="165.5" y="-41" font-family="Helvetica,sans-Serif" font-size="10.00"> m_buffer</text>
</g>
<!-- Node3 -->
<g id="node3" class="node">
<title>Node3</title>
<g id="a_node3"><a xlink:href="structeltau_1_1Cell.html" target="_top" xlink:title="Terminal cell.">
<polygon fill="none" stroke="black" points="87,-145.5 87,-164.5 146,-164.5 146,-145.5 87,-145.5"/>
<text text-anchor="middle" x="116.5" y="-152.5" font-family="Helvetica,sans-Serif" font-size="10.00">eltau::Cell</text>
</a>
</g>
</g>
<!-- Node3&#45;&gt;Node2 -->
<g id="edge2" class="edge">
<title>Node3&#45;&gt;Node2</title>
<path fill="none" stroke="#9a32cd" stroke-dasharray="5,2" d="M116.5,-135.24C116.5,-123.41 116.5,-108.38 116.5,-97.58"/>
<polygon fill="#9a32cd" stroke="#9a32cd" points="113,-135.36 116.5,-145.36 120,-135.36 113,-135.36"/>
<text text-anchor="middle" x="138" y="-119" font-family="Helvetica,sans-Serif" font-size="10.00"> elements</text>
</g>
<!-- Node4 -->
<g id="node4" class="node">
<title>Node4</title>
<g id="a_node4"><a xlink:title=" ">
<polygon fill="none" stroke="#bfbfbf" points="0,-223.5 0,-264.5 117,-264.5 117,-223.5 0,-223.5"/>
<text text-anchor="start" x="8" y="-252.5" font-family="Helvetica,sans-Serif" font-size="10.00">std::array&lt; cpoint,</text>
<text text-anchor="start" x="8" y="-241.5" font-family="Helvetica,sans-Serif" font-size="10.00"> c_utf8_cpoints *c_max</text>
<text text-anchor="middle" x="58.5" y="-230.5" font-family="Helvetica,sans-Serif" font-size="10.00">_cunits+1 &gt;</text>
</a>
</g>
</g>
<!-- Node4&#45;&gt;Node3 -->
<g id="edge3" class="edge">
<title>Node4&#45;&gt;Node3</title>
<path fill="none" stroke="#9a32cd" stroke-dasharray="5,2" d="M77.45,-214.57C89.05,-197.18 103.08,-176.12 110.77,-164.59"/>
<polygon fill="#9a32cd" stroke="#9a32cd" points="74.3,-213 71.66,-223.26 80.12,-216.88 74.3,-213"/>
<text text-anchor="middle" x="116" y="-191.5" font-family="Helvetica,sans-Serif" font-size="10.00"> m_char</text>
</g>
<!-- Node5 -->
<g id="node5" class="node">
<title>Node5</title>
<g id="a_node5"><a xlink:href="structeltau_1_1Color256.html" target="_top" xlink:title="256 Terminal colors">
<polygon fill="none" stroke="black" points="135.5,-234.5 135.5,-253.5 215.5,-253.5 215.5,-234.5 135.5,-234.5"/>
<text text-anchor="middle" x="175.5" y="-241.5" font-family="Helvetica,sans-Serif" font-size="10.00">eltau::Color256</text>
</a>
</g>
</g>
<!-- Node5&#45;&gt;Node3 -->
<g id="edge4" class="edge">
<title>Node5&#45;&gt;Node3</title>
<path fill="none" stroke="#9a32cd" stroke-dasharray="5,2" d="M165.1,-225.61C157.69,-213.47 147.35,-197.01 137.5,-183 133.13,-176.78 127.88,-170.03 123.72,-164.84"/>
<polygon fill="#9a32cd" stroke="#9a32cd" points="162.18,-227.54 170.34,-234.28 168.17,-223.92 162.18,-227.54"/>
<text text-anchor="middle" x="165" y="-197" font-family="Helvetica,sans-Serif" font-size="10.00"> m_bg</text>
<text text-anchor="middle" x="165" y="-186" font-family="Helvetica,sans-Serif" font-size="10.00">m_fg</text>
</g>
<!-- Node6 -->
<g id="node6" class="node">
<title>Node6</title>
<g id="a_node6"><a xlink:href="structeltau_1_1Vector.html" target="_top" xlink:title="Coordinates in the screen.">
<polygon fill="none" stroke="black" points="180,-73 180,-92 251,-92 251,-73 180,-73"/>
<text text-anchor="middle" x="215.5" y="-80" font-family="Helvetica,sans-Serif" font-size="10.00">eltau::Vector</text>
</a>
</g>
</g>
<!-- Node6&#45;&gt;Node1 -->
<g id="edge5" class="edge">
<title>Node6&#45;&gt;Node1</title>
<path fill="none" stroke="#9a32cd" stroke-dasharray="5,2" d="M205.99,-63.91C201.35,-55.8 195.49,-46.17 189.5,-38 184.75,-31.53 178.75,-24.78 173.94,-19.64"/>
<polygon fill="#9a32cd" stroke="#9a32cd" points="203.05,-65.82 210.97,-72.86 209.17,-62.42 203.05,-65.82"/>
<text text-anchor="middle" x="215" y="-41" font-family="Helvetica,sans-Serif" font-size="10.00"> m_dims</text>
</g>
</g>
</svg>
