<?xml version="1.0" encoding="UTF-8" standalone="no"?>
<!DOCTYPE svg PUBLIC "-//W3C//DTD SVG 1.1//EN"
 "http://www.w3.org/Graphics/SVG/1.1/DTD/svg11.dtd">
<!-- Generated by graphviz version 2.47.1 (20210515.0534)
 -->
<!-- Title: eltau::Element Pages: 1 -->
<svg width="210pt" height="95pt"
 viewBox="0.00 0.00 209.50 95.00" xmlns="http://www.w3.org/2000/svg" xmlns:xlink="http://www.w3.org/1999/xlink">
<g id="graph0" class="graph" transform="scale(1 1) rotate(0) translate(4 91)">
<title>eltau::Element</title>
<!-- Node1 -->
<g id="node1" class="node">
<title>Node1</title>
<g id="a_node1"><a xlink:title="Basic TUI drawable element.">
<polygon fill="#bfbfbf" stroke="black" points="65,-67.5 65,-86.5 142,-86.5 142,-67.5 65,-67.5"/>
<text text-anchor="middle" x="103.5" y="-74.5" font-family="Helvetica,sans-Serif" font-size="10.00">eltau::Element</text>
</a>
</g>
</g>
<!-- Node2 -->
<g id="node2" class="node">
<title>Node2</title>
<g id="a_node2"><a xlink:href="classeltau_1_1HContainer.html" target="_top" xlink:title=" ">
<polygon fill="none" stroke="black" points="0,-0.5 0,-30.5 97,-30.5 97,-0.5 0,-0.5"/>
<text text-anchor="start" x="8" y="-18.5" font-family="Helvetica,sans-Serif" font-size="10.00">eltau::HContainer&lt;</text>
<text text-anchor="middle" x="48.5" y="-7.5" font-family="Helvetica,sans-Serif" font-size="10.00"> Elems &gt;</text>
</a>
</g>
</g>
<!-- Node1&#45;&gt;Node2 -->
<g id="edge1" class="edge">
<title>Node1&#45;&gt;Node2</title>
<path fill="none" stroke="midnightblue" d="M88.79,-60.09C80.28,-50.88 69.66,-39.39 61.46,-30.52"/>
<polygon fill="midnightblue" stroke="midnightblue" points="86.26,-62.51 95.62,-67.48 91.4,-57.76 86.26,-62.51"/>
</g>
<!-- Node3 -->
<g id="node3" class="node">
<title>Node3</title>
<g id="a_node3"><a xlink:href="classeltau_1_1ascii_1_1Text.html" target="_top" xlink:title="Basic styled ASCII text with optional wrapping.">
<polygon fill="none" stroke="black" points="115.5,-6 115.5,-25 201.5,-25 201.5,-6 115.5,-6"/>
<text text-anchor="middle" x="158.5" y="-13" font-family="Helvetica,sans-Serif" font-size="10.00">eltau::ascii::Text</text>
</a>
</g>
</g>
<!-- Node1&#45;&gt;Node3 -->
<g id="edge2" class="edge">
<title>Node1&#45;&gt;Node3</title>
<path fill="none" stroke="midnightblue" d="M118.29,-60C128.7,-48.74 142.23,-34.1 150.63,-25.01"/>
<polygon fill="midnightblue" stroke="midnightblue" points="115.6,-57.76 111.38,-67.48 120.74,-62.51 115.6,-57.76"/>
</g>
</g>
</svg>
