<?xml version="1.0" encoding="UTF-8" standalone="no"?>
<!DOCTYPE svg PUBLIC "-//W3C//DTD SVG 1.1//EN"
 "http://www.w3.org/Graphics/SVG/1.1/DTD/svg11.dtd">
<!-- Generated by graphviz version 2.47.1 (20210515.0534)
 -->
<!-- Title: eltau::Window Pages: 1 -->
<svg width="219pt" height="162pt"
 viewBox="0.00 0.00 219.00 162.00" xmlns="http://www.w3.org/2000/svg" xmlns:xlink="http://www.w3.org/1999/xlink">
<g id="graph0" class="graph" transform="scale(1 1) rotate(0) translate(4 158)">
<title>eltau::Window</title>
<!-- Node1 -->
<g id="node1" class="node">
<title>Node1</title>
<g id="a_node1"><a xlink:title="Rectangular area on the screen.">
<polygon fill="#bfbfbf" stroke="black" points="59.5,-0.5 59.5,-19.5 136.5,-19.5 136.5,-0.5 59.5,-0.5"/>
<text text-anchor="middle" x="98" y="-7.5" font-family="Helvetica,sans-Serif" font-size="10.00">eltau::Window</text>
</a>
</g>
</g>
<!-- Node2 -->
<g id="node2" class="node">
<title>Node2</title>
<g id="a_node2"><a xlink:href="structeltau_1_1Size2.html" target="_top" xlink:title="Positive offset, analogous to std::size_t for 1D.">
<polygon fill="none" stroke="black" points="0,-134.5 0,-153.5 66,-153.5 66,-134.5 0,-134.5"/>
<text text-anchor="middle" x="33" y="-141.5" font-family="Helvetica,sans-Serif" font-size="10.00">eltau::Size2</text>
</a>
</g>
</g>
<!-- Node2&#45;&gt;Node1 -->
<g id="edge1" class="edge">
<title>Node2&#45;&gt;Node1</title>
<path fill="none" stroke="#9a32cd" stroke-dasharray="5,2" d="M22.99,-124.72C15.67,-108.7 8.52,-85.2 18,-67 30.06,-43.84 56.56,-28.28 75.76,-19.56"/>
<polygon fill="#9a32cd" stroke="#9a32cd" points="20.05,-126.66 27.66,-134.04 26.31,-123.53 20.05,-126.66"/>
<text text-anchor="middle" x="35" y="-74.5" font-family="Helvetica,sans-Serif" font-size="10.00"> m_size</text>
</g>
<!-- Node4 -->
<g id="node4" class="node">
<title>Node4</title>
<g id="a_node4"><a xlink:href="classeltau_1_1Screen.html" target="_top" xlink:title=" ">
<polygon fill="none" stroke="black" points="61.5,-67.5 61.5,-86.5 134.5,-86.5 134.5,-67.5 61.5,-67.5"/>
<text text-anchor="middle" x="98" y="-74.5" font-family="Helvetica,sans-Serif" font-size="10.00">eltau::Screen</text>
</a>
</g>
</g>
<!-- Node2&#45;&gt;Node4 -->
<g id="edge4" class="edge">
<title>Node2&#45;&gt;Node4</title>
<path fill="none" stroke="#9a32cd" stroke-dasharray="5,2" d="M49,-127C61.75,-114.25 79.11,-96.89 89.37,-86.63"/>
<polygon fill="#9a32cd" stroke="#9a32cd" points="46.36,-124.69 41.77,-134.23 51.31,-129.64 46.36,-124.69"/>
<text text-anchor="middle" x="87" y="-108" font-family="Helvetica,sans-Serif" font-size="10.00"> m_size</text>
</g>
<!-- Node3 -->
<g id="node3" class="node">
<title>Node3</title>
<g id="a_node3"><a xlink:href="structeltau_1_1Coords2.html" target="_top" xlink:title="Coordinates in the screen.">
<polygon fill="none" stroke="black" points="91,-134.5 91,-153.5 169,-153.5 169,-134.5 91,-134.5"/>
<text text-anchor="middle" x="130" y="-141.5" font-family="Helvetica,sans-Serif" font-size="10.00">eltau::Coords2</text>
</a>
</g>
</g>
<!-- Node3&#45;&gt;Node1 -->
<g id="edge2" class="edge">
<title>Node3&#45;&gt;Node1</title>
<path fill="none" stroke="#9a32cd" stroke-dasharray="5,2" d="M149.57,-127.37C152.6,-123.97 155.29,-120.13 157,-116 165.38,-95.76 186.86,-94.25 148,-38 142.28,-29.72 133.18,-23.75 124.3,-19.57"/>
<polygon fill="#9a32cd" stroke="#9a32cd" points="146.98,-125.01 142.19,-134.46 151.82,-130.06 146.98,-125.01"/>
<text text-anchor="middle" x="191" y="-74.5" font-family="Helvetica,sans-Serif" font-size="10.00"> m_origin</text>
</g>
<!-- Node3&#45;&gt;Node4 -->
<g id="edge5" class="edge">
<title>Node3&#45;&gt;Node4</title>
<path fill="none" stroke="#9a32cd" stroke-dasharray="5,2" d="M119.15,-125.47C117.35,-122.36 115.57,-119.11 114,-116 109.04,-106.16 104.26,-94.4 101.23,-86.6"/>
<polygon fill="#9a32cd" stroke="#9a32cd" points="116.21,-127.39 124.35,-134.17 122.22,-123.79 116.21,-127.39"/>
<text text-anchor="middle" x="135.5" y="-108" font-family="Helvetica,sans-Serif" font-size="10.00"> m_cursor</text>
</g>
<!-- Node4&#45;&gt;Node1 -->
<g id="edge3" class="edge">
<title>Node4&#45;&gt;Node1</title>
<path fill="none" stroke="#9a32cd" stroke-dasharray="5,2" d="M98,-57.04C98,-44.67 98,-29.12 98,-19.63"/>
<polygon fill="#9a32cd" stroke="#9a32cd" points="94.5,-57.23 98,-67.23 101.5,-57.23 94.5,-57.23"/>
<text text-anchor="middle" x="121" y="-41" font-family="Helvetica,sans-Serif" font-size="10.00"> m_screen</text>
</g>
</g>
</svg>
