<?xml version="1.0" encoding="UTF-8" standalone="no"?>
<!DOCTYPE svg PUBLIC "-//W3C//DTD SVG 1.1//EN"
 "http://www.w3.org/Graphics/SVG/1.1/DTD/svg11.dtd">
<!-- Generated by graphviz version 2.47.1 (20210515.0534)
 -->
<!-- Title: eltau::DrawingWindow Pages: 1 -->
<svg width="266pt" height="351pt"
 viewBox="0.00 0.00 265.50 351.00" xmlns="http://www.w3.org/2000/svg" xmlns:xlink="http://www.w3.org/1999/xlink">
<g id="graph0" class="graph" transform="scale(1 1) rotate(0) translate(4 347)">
<title>eltau::DrawingWindow</title>
<!-- Node1 -->
<g id="node1" class="node">
<title>Node1</title>
<g id="a_node1"><a xlink:title="Drawable area in a screen.">
<polygon fill="#bfbfbf" stroke="black" points="28.5,-0.5 28.5,-19.5 140.5,-19.5 140.5,-0.5 28.5,-0.5"/>
<text text-anchor="middle" x="84.5" y="-7.5" font-family="Helvetica,sans-Serif" font-size="10.00">eltau::DrawingWindow</text>
</a>
</g>
</g>
<!-- Node2 -->
<g id="node2" class="node">
<title>Node2</title>
<g id="a_node2"><a xlink:href="classeltau_1_1Window.html" target="_top" xlink:title="Rectangular area on the screen.">
<polygon fill="none" stroke="black" points="0,-67.5 0,-86.5 77,-86.5 77,-67.5 0,-67.5"/>
<text text-anchor="middle" x="38.5" y="-74.5" font-family="Helvetica,sans-Serif" font-size="10.00">eltau::Window</text>
</a>
</g>
</g>
<!-- Node2&#45;&gt;Node1 -->
<g id="edge1" class="edge">
<title>Node2&#45;&gt;Node1</title>
<path fill="none" stroke="midnightblue" d="M50.6,-58.9C59.54,-46.27 71.33,-29.6 78.39,-19.63"/>
<polygon fill="midnightblue" stroke="midnightblue" points="47.62,-57.05 44.7,-67.23 53.34,-61.09 47.62,-57.05"/>
</g>
<!-- Node3 -->
<g id="node3" class="node">
<title>Node3</title>
<g id="a_node3"><a xlink:href="structeltau_1_1Vec2.html" target="_top" xlink:title="Coordinates in the screen.">
<polygon fill="none" stroke="black" points="18,-151 18,-170 83,-170 83,-151 18,-151"/>
<text text-anchor="middle" x="50.5" y="-158" font-family="Helvetica,sans-Serif" font-size="10.00">eltau::Vec2</text>
</a>
</g>
</g>
<!-- Node3&#45;&gt;Node2 -->
<g id="edge2" class="edge">
<title>Node3&#45;&gt;Node2</title>
<path fill="none" stroke="#9a32cd" stroke-dasharray="5,2" d="M43.21,-141.17C41.7,-136.61 40.32,-131.69 39.5,-127 37.06,-113.09 37.37,-96.61 37.88,-86.75"/>
<polygon fill="#9a32cd" stroke="#9a32cd" points="40.04,-142.68 46.77,-150.86 46.61,-140.27 40.04,-142.68"/>
<text text-anchor="middle" x="59.5" y="-119" font-family="Helvetica,sans-Serif" font-size="10.00"> m_origin</text>
<text text-anchor="middle" x="59.5" y="-108" font-family="Helvetica,sans-Serif" font-size="10.00">m_size</text>
</g>
<!-- Node4 -->
<g id="node4" class="node">
<title>Node4</title>
<g id="a_node4"><a xlink:href="classeltau_1_1Screen.html" target="_top" xlink:title="Abstract terminal screen.">
<polygon fill="none" stroke="black" points="95,-67.5 95,-86.5 168,-86.5 168,-67.5 95,-67.5"/>
<text text-anchor="middle" x="131.5" y="-74.5" font-family="Helvetica,sans-Serif" font-size="10.00">eltau::Screen</text>
</a>
</g>
</g>
<!-- Node3&#45;&gt;Node4 -->
<g id="edge4" class="edge">
<title>Node3&#45;&gt;Node4</title>
<path fill="none" stroke="#9a32cd" stroke-dasharray="5,2" d="M65.89,-143.4C76.4,-132.48 90.68,-117.76 103.5,-105 109.63,-98.9 116.63,-92.15 122.09,-86.93"/>
<polygon fill="#9a32cd" stroke="#9a32cd" points="63.08,-141.28 58.68,-150.92 68.13,-146.13 63.08,-141.28"/>
<text text-anchor="middle" x="120.5" y="-113.5" font-family="Helvetica,sans-Serif" font-size="10.00"> m_size</text>
</g>
<!-- Node4&#45;&gt;Node1 -->
<g id="edge3" class="edge">
<title>Node4&#45;&gt;Node1</title>
<path fill="none" stroke="#9a32cd" stroke-dasharray="5,2" d="M119.14,-58.9C110.01,-46.27 97.95,-29.6 90.74,-19.63"/>
<polygon fill="#9a32cd" stroke="#9a32cd" points="116.47,-61.18 125.16,-67.23 122.14,-57.08 116.47,-61.18"/>
<text text-anchor="middle" x="134.5" y="-41" font-family="Helvetica,sans-Serif" font-size="10.00"> m_screen</text>
</g>
<!-- Node5 -->
<g id="node5" class="node">
<title>Node5</title>
<g id="a_node5"><a xlink:title=" ">
<polygon fill="none" stroke="#bfbfbf" points="113,-145.5 113,-175.5 204,-175.5 204,-145.5 113,-145.5"/>
<text text-anchor="start" x="121" y="-163.5" font-family="Helvetica,sans-Serif" font-size="10.00">std::vector&lt; eltau</text>
<text text-anchor="middle" x="158.5" y="-152.5" font-family="Helvetica,sans-Serif" font-size="10.00">::Cell &gt;</text>
</a>
</g>
</g>
<!-- Node5&#45;&gt;Node4 -->
<g id="edge5" class="edge">
<title>Node5&#45;&gt;Node4</title>
<path fill="none" stroke="#9a32cd" stroke-dasharray="5,2" d="M150.62,-135.72C145.14,-119.18 138.16,-98.1 134.33,-86.54"/>
<polygon fill="#9a32cd" stroke="#9a32cd" points="147.33,-136.91 153.8,-145.3 153.97,-134.71 147.33,-136.91"/>
<text text-anchor="middle" x="167.5" y="-113.5" font-family="Helvetica,sans-Serif" font-size="10.00"> m_buffer</text>
</g>
<!-- Node6 -->
<g id="node6" class="node">
<title>Node6</title>
<g id="a_node6"><a xlink:href="structeltau_1_1Cell.html" target="_top" xlink:title="Terminal cell.">
<polygon fill="none" stroke="black" points="129,-223.5 129,-242.5 188,-242.5 188,-223.5 129,-223.5"/>
<text text-anchor="middle" x="158.5" y="-230.5" font-family="Helvetica,sans-Serif" font-size="10.00">eltau::Cell</text>
</a>
</g>
</g>
<!-- Node6&#45;&gt;Node5 -->
<g id="edge6" class="edge">
<title>Node6&#45;&gt;Node5</title>
<path fill="none" stroke="#9a32cd" stroke-dasharray="5,2" d="M158.5,-213.24C158.5,-201.41 158.5,-186.38 158.5,-175.58"/>
<polygon fill="#9a32cd" stroke="#9a32cd" points="155,-213.36 158.5,-223.36 162,-213.36 155,-213.36"/>
<text text-anchor="middle" x="180" y="-197" font-family="Helvetica,sans-Serif" font-size="10.00"> elements</text>
</g>
<!-- Node7 -->
<g id="node7" class="node">
<title>Node7</title>
<g id="a_node7"><a xlink:title=" ">
<polygon fill="none" stroke="#bfbfbf" points="42,-301.5 42,-342.5 159,-342.5 159,-301.5 42,-301.5"/>
<text text-anchor="start" x="50" y="-330.5" font-family="Helvetica,sans-Serif" font-size="10.00">std::array&lt; cpoint,</text>
<text text-anchor="start" x="50" y="-319.5" font-family="Helvetica,sans-Serif" font-size="10.00"> c_utf8_cpoints *c_max</text>
<text text-anchor="middle" x="100.5" y="-308.5" font-family="Helvetica,sans-Serif" font-size="10.00">_cunits+1 &gt;</text>
</a>
</g>
</g>
<!-- Node7&#45;&gt;Node6 -->
<g id="edge7" class="edge">
<title>Node7&#45;&gt;Node6</title>
<path fill="none" stroke="#9a32cd" stroke-dasharray="5,2" d="M119.45,-292.57C131.05,-275.18 145.08,-254.12 152.77,-242.59"/>
<polygon fill="#9a32cd" stroke="#9a32cd" points="116.3,-291 113.66,-301.26 122.12,-294.88 116.3,-291"/>
<text text-anchor="middle" x="158" y="-269.5" font-family="Helvetica,sans-Serif" font-size="10.00"> m_char</text>
</g>
<!-- Node8 -->
<g id="node8" class="node">
<title>Node8</title>
<g id="a_node8"><a xlink:href="structeltau_1_1Color256.html" target="_top" xlink:title="256 Terminal colors">
<polygon fill="none" stroke="black" points="177.5,-312.5 177.5,-331.5 257.5,-331.5 257.5,-312.5 177.5,-312.5"/>
<text text-anchor="middle" x="217.5" y="-319.5" font-family="Helvetica,sans-Serif" font-size="10.00">eltau::Color256</text>
</a>
</g>
</g>
<!-- Node8&#45;&gt;Node6 -->
<g id="edge8" class="edge">
<title>Node8&#45;&gt;Node6</title>
<path fill="none" stroke="#9a32cd" stroke-dasharray="5,2" d="M207.1,-303.61C199.69,-291.47 189.35,-275.01 179.5,-261 175.13,-254.78 169.88,-248.03 165.72,-242.84"/>
<polygon fill="#9a32cd" stroke="#9a32cd" points="204.18,-305.54 212.34,-312.28 210.17,-301.92 204.18,-305.54"/>
<text text-anchor="middle" x="207" y="-275" font-family="Helvetica,sans-Serif" font-size="10.00"> m_bg</text>
<text text-anchor="middle" x="207" y="-264" font-family="Helvetica,sans-Serif" font-size="10.00">m_fg</text>
</g>
</g>
</svg>
