<?xml version="1.0" encoding="UTF-8" standalone="no"?>
<!DOCTYPE svg PUBLIC "-//W3C//DTD SVG 1.1//EN"
 "http://www.w3.org/Graphics/SVG/1.1/DTD/svg11.dtd">
<!-- Generated by graphviz version 2.47.1 (20210515.0534)
 -->
<!-- Title: eltau::EagerTerminal Pages: 1 -->
<svg width="215pt" height="184pt"
 viewBox="0.00 0.00 214.50 184.00" xmlns="http://www.w3.org/2000/svg" xmlns:xlink="http://www.w3.org/1999/xlink">
<g id="graph0" class="graph" transform="scale(1 1) rotate(0) translate(4 180)">
<title>eltau::EagerTerminal</title>
<!-- Node1 -->
<g id="node1" class="node">
<title>Node1</title>
<g id="a_node1"><a xlink:title="Terminal without caching.">
<polygon fill="#bfbfbf" stroke="black" points="43.5,-0.5 43.5,-19.5 147.5,-19.5 147.5,-0.5 43.5,-0.5"/>
<text text-anchor="middle" x="95.5" y="-7.5" font-family="Helvetica,sans-Serif" font-size="10.00">eltau::EagerTerminal</text>
</a>
</g>
</g>
<!-- Node2 -->
<g id="node2" class="node">
<title>Node2</title>
<g id="a_node2"><a xlink:title=" ">
<polygon fill="none" stroke="#bfbfbf" points="0,-67.5 0,-97.5 109,-97.5 109,-67.5 0,-67.5"/>
<text text-anchor="start" x="8" y="-85.5" font-family="Helvetica,sans-Serif" font-size="10.00">std::unique_ptr&lt; eltau</text>
<text text-anchor="middle" x="54.5" y="-74.5" font-family="Helvetica,sans-Serif" font-size="10.00">::Element &gt;</text>
</a>
</g>
</g>
<!-- Node2&#45;&gt;Node1 -->
<g id="edge1" class="edge">
<title>Node2&#45;&gt;Node1</title>
<path fill="none" stroke="#9a32cd" stroke-dasharray="5,2" d="M68.02,-58.24C75.66,-45.12 84.75,-29.48 90.33,-19.89"/>
<polygon fill="#9a32cd" stroke="#9a32cd" points="64.8,-56.83 62.8,-67.23 70.85,-60.35 64.8,-56.83"/>
<text text-anchor="middle" x="95" y="-41" font-family="Helvetica,sans-Serif" font-size="10.00"> m_root</text>
</g>
<!-- Node3 -->
<g id="node3" class="node">
<title>Node3</title>
<g id="a_node3"><a xlink:href="classeltau_1_1Screen.html" target="_top" xlink:title=" ">
<polygon fill="none" stroke="black" points="127,-73 127,-92 200,-92 200,-73 127,-73"/>
<text text-anchor="middle" x="163.5" y="-80" font-family="Helvetica,sans-Serif" font-size="10.00">eltau::Screen</text>
</a>
</g>
</g>
<!-- Node3&#45;&gt;Node1 -->
<g id="edge2" class="edge">
<title>Node3&#45;&gt;Node1</title>
<path fill="none" stroke="#9a32cd" stroke-dasharray="5,2" d="M147.87,-65.3C134.19,-51.12 114.85,-31.06 103.91,-19.72"/>
<polygon fill="#9a32cd" stroke="#9a32cd" points="145.7,-68.09 155.16,-72.86 150.74,-63.23 145.7,-68.09"/>
<text text-anchor="middle" x="154.5" y="-41" font-family="Helvetica,sans-Serif" font-size="10.00"> m_screen</text>
</g>
<!-- Node4 -->
<g id="node4" class="node">
<title>Node4</title>
<g id="a_node4"><a xlink:href="structeltau_1_1Vec2.html" target="_top" xlink:title="Coordinates in the screen.">
<polygon fill="none" stroke="black" points="131,-156.5 131,-175.5 196,-175.5 196,-156.5 131,-156.5"/>
<text text-anchor="middle" x="163.5" y="-163.5" font-family="Helvetica,sans-Serif" font-size="10.00">eltau::Vec2</text>
</a>
</g>
</g>
<!-- Node4&#45;&gt;Node3 -->
<g id="edge3" class="edge">
<title>Node4&#45;&gt;Node3</title>
<path fill="none" stroke="#9a32cd" stroke-dasharray="5,2" d="M163.5,-145.88C163.5,-128.9 163.5,-104.87 163.5,-92.16"/>
<polygon fill="#9a32cd" stroke="#9a32cd" points="160,-146.28 163.5,-156.28 167,-146.28 160,-146.28"/>
<text text-anchor="middle" x="185" y="-130" font-family="Helvetica,sans-Serif" font-size="10.00"> m_cursor</text>
<text text-anchor="middle" x="185" y="-119" font-family="Helvetica,sans-Serif" font-size="10.00">m_size</text>
</g>
</g>
</svg>
