<?xml version="1.0" encoding="UTF-8" standalone="no"?>
<!DOCTYPE svg PUBLIC "-//W3C//DTD SVG 1.1//EN"
 "http://www.w3.org/Graphics/SVG/1.1/DTD/svg11.dtd">
<!-- Generated by graphviz version 2.47.1 (20210515.0534)
 -->
<!-- Title: eltau::EagerTerminal Pages: 1 -->
<svg width="259pt" height="351pt"
 viewBox="0.00 0.00 259.00 351.00" xmlns="http://www.w3.org/2000/svg" xmlns:xlink="http://www.w3.org/1999/xlink">
<g id="graph0" class="graph" transform="scale(1 1) rotate(0) translate(4 347)">
<title>eltau::EagerTerminal</title>
<!-- Node1 -->
<g id="node1" class="node">
<title>Node1</title>
<g id="a_node1"><a xlink:title="Terminal without caching.">
<polygon fill="#bfbfbf" stroke="black" points="41.5,-0.5 41.5,-19.5 145.5,-19.5 145.5,-0.5 41.5,-0.5"/>
<text text-anchor="middle" x="93.5" y="-7.5" font-family="Helvetica,sans-Serif" font-size="10.00">eltau::EagerTerminal</text>
</a>
</g>
</g>
<!-- Node2 -->
<g id="node2" class="node">
<title>Node2</title>
<g id="a_node2"><a xlink:title=" ">
<polygon fill="none" stroke="#bfbfbf" points="11,-67.5 11,-97.5 120,-97.5 120,-67.5 11,-67.5"/>
<text text-anchor="start" x="19" y="-85.5" font-family="Helvetica,sans-Serif" font-size="10.00">std::unique_ptr&lt; eltau</text>
<text text-anchor="middle" x="65.5" y="-74.5" font-family="Helvetica,sans-Serif" font-size="10.00">::Element &gt;</text>
</a>
</g>
</g>
<!-- Node2&#45;&gt;Node1 -->
<g id="edge1" class="edge">
<title>Node2&#45;&gt;Node1</title>
<path fill="none" stroke="#9a32cd" stroke-dasharray="5,2" d="M74.89,-57.86C80.07,-44.82 86.2,-29.38 89.97,-19.89"/>
<polygon fill="#9a32cd" stroke="#9a32cd" points="71.6,-56.65 71.17,-67.23 78.11,-59.23 71.6,-56.65"/>
<text text-anchor="middle" x="99" y="-41" font-family="Helvetica,sans-Serif" font-size="10.00"> m_root</text>
</g>
<!-- Node3 -->
<g id="node3" class="node">
<title>Node3</title>
<g id="a_node3"><a xlink:href="classeltau_1_1Screen.html" target="_top" xlink:title="Abstract terminal screen.">
<polygon fill="none" stroke="black" points="138,-73 138,-92 211,-92 211,-73 138,-73"/>
<text text-anchor="middle" x="174.5" y="-80" font-family="Helvetica,sans-Serif" font-size="10.00">eltau::Screen</text>
</a>
</g>
</g>
<!-- Node3&#45;&gt;Node1 -->
<g id="edge2" class="edge">
<title>Node3&#45;&gt;Node1</title>
<path fill="none" stroke="#9a32cd" stroke-dasharray="5,2" d="M156.79,-66.08C140.46,-51.87 116.79,-31.27 103.51,-19.72"/>
<polygon fill="#9a32cd" stroke="#9a32cd" points="154.73,-68.93 164.57,-72.86 159.32,-63.65 154.73,-68.93"/>
<text text-anchor="middle" x="159.5" y="-41" font-family="Helvetica,sans-Serif" font-size="10.00"> m_screen</text>
</g>
<!-- Node4 -->
<g id="node4" class="node">
<title>Node4</title>
<g id="a_node4"><a xlink:title=" ">
<polygon fill="none" stroke="#bfbfbf" points="71,-145.5 71,-175.5 162,-175.5 162,-145.5 71,-145.5"/>
<text text-anchor="start" x="79" y="-163.5" font-family="Helvetica,sans-Serif" font-size="10.00">std::vector&lt; eltau</text>
<text text-anchor="middle" x="116.5" y="-152.5" font-family="Helvetica,sans-Serif" font-size="10.00">::Cell &gt;</text>
</a>
</g>
</g>
<!-- Node4&#45;&gt;Node3 -->
<g id="edge3" class="edge">
<title>Node4&#45;&gt;Node3</title>
<path fill="none" stroke="#9a32cd" stroke-dasharray="5,2" d="M132.7,-137.11C137.71,-130.29 143.28,-122.8 148.5,-116 154.75,-107.86 162.06,-98.75 167.34,-92.25"/>
<polygon fill="#9a32cd" stroke="#9a32cd" points="129.8,-135.15 126.73,-145.29 135.46,-139.27 129.8,-135.15"/>
<text text-anchor="middle" x="168.5" y="-119" font-family="Helvetica,sans-Serif" font-size="10.00"> m_buffer</text>
</g>
<!-- Node5 -->
<g id="node5" class="node">
<title>Node5</title>
<g id="a_node5"><a xlink:href="structeltau_1_1Cell.html" target="_top" xlink:title="Terminal cell.">
<polygon fill="none" stroke="black" points="87,-223.5 87,-242.5 146,-242.5 146,-223.5 87,-223.5"/>
<text text-anchor="middle" x="116.5" y="-230.5" font-family="Helvetica,sans-Serif" font-size="10.00">eltau::Cell</text>
</a>
</g>
</g>
<!-- Node5&#45;&gt;Node4 -->
<g id="edge4" class="edge">
<title>Node5&#45;&gt;Node4</title>
<path fill="none" stroke="#9a32cd" stroke-dasharray="5,2" d="M116.5,-213.24C116.5,-201.41 116.5,-186.38 116.5,-175.58"/>
<polygon fill="#9a32cd" stroke="#9a32cd" points="113,-213.36 116.5,-223.36 120,-213.36 113,-213.36"/>
<text text-anchor="middle" x="138" y="-197" font-family="Helvetica,sans-Serif" font-size="10.00"> elements</text>
</g>
<!-- Node6 -->
<g id="node6" class="node">
<title>Node6</title>
<g id="a_node6"><a xlink:title=" ">
<polygon fill="none" stroke="#bfbfbf" points="0,-301.5 0,-342.5 117,-342.5 117,-301.5 0,-301.5"/>
<text text-anchor="start" x="8" y="-330.5" font-family="Helvetica,sans-Serif" font-size="10.00">std::array&lt; cpoint,</text>
<text text-anchor="start" x="8" y="-319.5" font-family="Helvetica,sans-Serif" font-size="10.00"> c_utf8_cpoints *c_max</text>
<text text-anchor="middle" x="58.5" y="-308.5" font-family="Helvetica,sans-Serif" font-size="10.00">_cunits+1 &gt;</text>
</a>
</g>
</g>
<!-- Node6&#45;&gt;Node5 -->
<g id="edge5" class="edge">
<title>Node6&#45;&gt;Node5</title>
<path fill="none" stroke="#9a32cd" stroke-dasharray="5,2" d="M77.45,-292.57C89.05,-275.18 103.08,-254.12 110.77,-242.59"/>
<polygon fill="#9a32cd" stroke="#9a32cd" points="74.3,-291 71.66,-301.26 80.12,-294.88 74.3,-291"/>
<text text-anchor="middle" x="116" y="-269.5" font-family="Helvetica,sans-Serif" font-size="10.00"> m_char</text>
</g>
<!-- Node7 -->
<g id="node7" class="node">
<title>Node7</title>
<g id="a_node7"><a xlink:href="structeltau_1_1Color256.html" target="_top" xlink:title="256 Terminal colors">
<polygon fill="none" stroke="black" points="135.5,-312.5 135.5,-331.5 215.5,-331.5 215.5,-312.5 135.5,-312.5"/>
<text text-anchor="middle" x="175.5" y="-319.5" font-family="Helvetica,sans-Serif" font-size="10.00">eltau::Color256</text>
</a>
</g>
</g>
<!-- Node7&#45;&gt;Node5 -->
<g id="edge6" class="edge">
<title>Node7&#45;&gt;Node5</title>
<path fill="none" stroke="#9a32cd" stroke-dasharray="5,2" d="M165.1,-303.61C157.69,-291.47 147.35,-275.01 137.5,-261 133.13,-254.78 127.88,-248.03 123.72,-242.84"/>
<polygon fill="#9a32cd" stroke="#9a32cd" points="162.18,-305.54 170.34,-312.28 168.17,-301.92 162.18,-305.54"/>
<text text-anchor="middle" x="165" y="-275" font-family="Helvetica,sans-Serif" font-size="10.00"> m_bg</text>
<text text-anchor="middle" x="165" y="-264" font-family="Helvetica,sans-Serif" font-size="10.00">m_fg</text>
</g>
<!-- Node8 -->
<g id="node8" class="node">
<title>Node8</title>
<g id="a_node8"><a xlink:href="structeltau_1_1Vector.html" target="_top" xlink:title="Coordinates in the screen.">
<polygon fill="none" stroke="black" points="180,-151 180,-170 251,-170 251,-151 180,-151"/>
<text text-anchor="middle" x="215.5" y="-158" font-family="Helvetica,sans-Serif" font-size="10.00">eltau::Vector</text>
</a>
</g>
</g>
<!-- Node8&#45;&gt;Node3 -->
<g id="edge7" class="edge">
<title>Node8&#45;&gt;Node3</title>
<path fill="none" stroke="#9a32cd" stroke-dasharray="5,2" d="M205.86,-141.62C197.44,-126.03 185.61,-104.09 179.15,-92.12"/>
<polygon fill="#9a32cd" stroke="#9a32cd" points="202.97,-143.64 210.8,-150.78 209.13,-140.32 202.97,-143.64"/>
<text text-anchor="middle" x="213.5" y="-119" font-family="Helvetica,sans-Serif" font-size="10.00"> m_size</text>
</g>
</g>
</svg>
