<?xml version="1.0" encoding="UTF-8" standalone="no"?>
<!DOCTYPE svg PUBLIC "-//W3C//DTD SVG 1.1//EN"
 "http://www.w3.org/Graphics/SVG/1.1/DTD/svg11.dtd">
<!-- Generated by graphviz version 2.47.1 (20210515.0534)
 -->
<!-- Title: eltau::DrawingWindow Pages: 1 -->
<svg width="269pt" height="351pt"
 viewBox="0.00 0.00 268.50 351.00" xmlns="http://www.w3.org/2000/svg" xmlns:xlink="http://www.w3.org/1999/xlink">
<g id="graph0" class="graph" transform="scale(1 1) rotate(0) translate(4 347)">
<title>eltau::DrawingWindow</title>
<!-- Node1 -->
<g id="node1" class="node">
<title>Node1</title>
<g id="a_node1"><a xlink:title="Drawable area in a screen.">
<polygon fill="#bfbfbf" stroke="black" points="28.5,-0.5 28.5,-19.5 140.5,-19.5 140.5,-0.5 28.5,-0.5"/>
<text text-anchor="middle" x="84.5" y="-7.5" font-family="Helvetica,sans-Serif" font-size="10.00">eltau::DrawingWindow</text>
</a>
</g>
</g>
<!-- Node2 -->
<g id="node2" class="node">
<title>Node2</title>
<g id="a_node2"><a xlink:href="classeltau_1_1Window.html" target="_top" xlink:title="Rectangular area on the screen.">
<polygon fill="none" stroke="black" points="0,-67.5 0,-86.5 77,-86.5 77,-67.5 0,-67.5"/>
<text text-anchor="middle" x="38.5" y="-74.5" font-family="Helvetica,sans-Serif" font-size="10.00">eltau::Window</text>
</a>
</g>
</g>
<!-- Node2&#45;&gt;Node1 -->
<g id="edge1" class="edge">
<title>Node2&#45;&gt;Node1</title>
<path fill="none" stroke="midnightblue" d="M50.6,-58.9C59.54,-46.27 71.33,-29.6 78.39,-19.63"/>
<polygon fill="midnightblue" stroke="midnightblue" points="47.62,-57.05 44.7,-67.23 53.34,-61.09 47.62,-57.05"/>
</g>
<!-- Node3 -->
<g id="node3" class="node">
<title>Node3</title>
<g id="a_node3"><a xlink:href="structeltau_1_1Vector.html" target="_top" xlink:title="Coordinates in the screen.">
<polygon fill="none" stroke="black" points="15,-151 15,-170 86,-170 86,-151 15,-151"/>
<text text-anchor="middle" x="50.5" y="-158" font-family="Helvetica,sans-Serif" font-size="10.00">eltau::Vector</text>
</a>
</g>
</g>
<!-- Node3&#45;&gt;Node2 -->
<g id="edge2" class="edge">
<title>Node3&#45;&gt;Node2</title>
<path fill="none" stroke="#9a32cd" stroke-dasharray="5,2" d="M43.21,-141.17C41.7,-136.61 40.32,-131.69 39.5,-127 37.06,-113.09 37.37,-96.61 37.88,-86.75"/>
<polygon fill="#9a32cd" stroke="#9a32cd" points="40.04,-142.68 46.77,-150.86 46.61,-140.27 40.04,-142.68"/>
<text text-anchor="middle" x="59.5" y="-119" font-family="Helvetica,sans-Serif" font-size="10.00"> m_begin</text>
<text text-anchor="middle" x="59.5" y="-108" font-family="Helvetica,sans-Serif" font-size="10.00">m_size</text>
</g>
<!-- Node4 -->
<g id="node4" class="node">
<title>Node4</title>
<g id="a_node4"><a xlink:href="classeltau_1_1Screen.html" target="_top" xlink:title="Abstract terminal screen.">
<polygon fill="none" stroke="black" points="95,-67.5 95,-86.5 168,-86.5 168,-67.5 95,-67.5"/>
<text text-anchor="middle" x="131.5" y="-74.5" font-family="Helvetica,sans-Serif" font-size="10.00">eltau::Screen</text>
</a>
</g>
</g>
<!-- Node3&#45;&gt;Node4 -->
<g id="edge8" class="edge">
<title>Node3&#45;&gt;Node4</title>
<path fill="none" stroke="#9a32cd" stroke-dasharray="5,2" d="M65.09,-143.19C75.1,-132.18 88.82,-117.44 101.5,-105 108,-98.62 115.64,-91.76 121.58,-86.55"/>
<polygon fill="#9a32cd" stroke="#9a32cd" points="62.33,-141.02 58.23,-150.79 67.53,-145.71 62.33,-141.02"/>
<text text-anchor="middle" x="120" y="-113.5" font-family="Helvetica,sans-Serif" font-size="10.00"> m_dims</text>
</g>
<!-- Node4&#45;&gt;Node1 -->
<g id="edge3" class="edge">
<title>Node4&#45;&gt;Node1</title>
<path fill="none" stroke="#9a32cd" stroke-dasharray="5,2" d="M119.14,-58.9C110.01,-46.27 97.95,-29.6 90.74,-19.63"/>
<polygon fill="#9a32cd" stroke="#9a32cd" points="116.47,-61.18 125.16,-67.23 122.14,-57.08 116.47,-61.18"/>
<text text-anchor="middle" x="134.5" y="-41" font-family="Helvetica,sans-Serif" font-size="10.00"> m_screen</text>
</g>
<!-- Node5 -->
<g id="node5" class="node">
<title>Node5</title>
<g id="a_node5"><a xlink:title=" ">
<polygon fill="none" stroke="#bfbfbf" points="116,-145.5 116,-175.5 207,-175.5 207,-145.5 116,-145.5"/>
<text text-anchor="start" x="124" y="-163.5" font-family="Helvetica,sans-Serif" font-size="10.00">std::vector&lt; eltau</text>
<text text-anchor="middle" x="161.5" y="-152.5" font-family="Helvetica,sans-Serif" font-size="10.00">::Cell &gt;</text>
</a>
</g>
</g>
<!-- Node5&#45;&gt;Node4 -->
<g id="edge4" class="edge">
<title>Node5&#45;&gt;Node4</title>
<path fill="none" stroke="#9a32cd" stroke-dasharray="5,2" d="M152.75,-135.72C146.66,-119.18 138.9,-98.1 134.64,-86.54"/>
<polygon fill="#9a32cd" stroke="#9a32cd" points="149.54,-137.13 156.27,-145.3 156.1,-134.71 149.54,-137.13"/>
<text text-anchor="middle" x="169.5" y="-113.5" font-family="Helvetica,sans-Serif" font-size="10.00"> m_buffer</text>
</g>
<!-- Node6 -->
<g id="node6" class="node">
<title>Node6</title>
<g id="a_node6"><a xlink:href="structeltau_1_1Cell.html" target="_top" xlink:title="Terminal cell.">
<polygon fill="none" stroke="black" points="132,-223.5 132,-242.5 191,-242.5 191,-223.5 132,-223.5"/>
<text text-anchor="middle" x="161.5" y="-230.5" font-family="Helvetica,sans-Serif" font-size="10.00">eltau::Cell</text>
</a>
</g>
</g>
<!-- Node6&#45;&gt;Node5 -->
<g id="edge5" class="edge">
<title>Node6&#45;&gt;Node5</title>
<path fill="none" stroke="#9a32cd" stroke-dasharray="5,2" d="M161.5,-213.24C161.5,-201.41 161.5,-186.38 161.5,-175.58"/>
<polygon fill="#9a32cd" stroke="#9a32cd" points="158,-213.36 161.5,-223.36 165,-213.36 158,-213.36"/>
<text text-anchor="middle" x="183" y="-197" font-family="Helvetica,sans-Serif" font-size="10.00"> elements</text>
</g>
<!-- Node7 -->
<g id="node7" class="node">
<title>Node7</title>
<g id="a_node7"><a xlink:title=" ">
<polygon fill="none" stroke="#bfbfbf" points="45,-301.5 45,-342.5 162,-342.5 162,-301.5 45,-301.5"/>
<text text-anchor="start" x="53" y="-330.5" font-family="Helvetica,sans-Serif" font-size="10.00">std::array&lt; cpoint,</text>
<text text-anchor="start" x="53" y="-319.5" font-family="Helvetica,sans-Serif" font-size="10.00"> c_utf8_cpoints *c_max</text>
<text text-anchor="middle" x="103.5" y="-308.5" font-family="Helvetica,sans-Serif" font-size="10.00">_cunits+1 &gt;</text>
</a>
</g>
</g>
<!-- Node7&#45;&gt;Node6 -->
<g id="edge6" class="edge">
<title>Node7&#45;&gt;Node6</title>
<path fill="none" stroke="#9a32cd" stroke-dasharray="5,2" d="M122.45,-292.57C134.05,-275.18 148.08,-254.12 155.77,-242.59"/>
<polygon fill="#9a32cd" stroke="#9a32cd" points="119.3,-291 116.66,-301.26 125.12,-294.88 119.3,-291"/>
<text text-anchor="middle" x="161" y="-269.5" font-family="Helvetica,sans-Serif" font-size="10.00"> m_char</text>
</g>
<!-- Node8 -->
<g id="node8" class="node">
<title>Node8</title>
<g id="a_node8"><a xlink:href="structeltau_1_1Color256.html" target="_top" xlink:title="256 Terminal colors">
<polygon fill="none" stroke="black" points="180.5,-312.5 180.5,-331.5 260.5,-331.5 260.5,-312.5 180.5,-312.5"/>
<text text-anchor="middle" x="220.5" y="-319.5" font-family="Helvetica,sans-Serif" font-size="10.00">eltau::Color256</text>
</a>
</g>
</g>
<!-- Node8&#45;&gt;Node6 -->
<g id="edge7" class="edge">
<title>Node8&#45;&gt;Node6</title>
<path fill="none" stroke="#9a32cd" stroke-dasharray="5,2" d="M210.1,-303.61C202.69,-291.47 192.35,-275.01 182.5,-261 178.13,-254.78 172.88,-248.03 168.72,-242.84"/>
<polygon fill="#9a32cd" stroke="#9a32cd" points="207.18,-305.54 215.34,-312.28 213.17,-301.92 207.18,-305.54"/>
<text text-anchor="middle" x="210" y="-275" font-family="Helvetica,sans-Serif" font-size="10.00"> m_bg</text>
<text text-anchor="middle" x="210" y="-264" font-family="Helvetica,sans-Serif" font-size="10.00">m_fg</text>
</g>
</g>
</svg>
