<?xml version="1.0" encoding="UTF-8" standalone="no"?>
<!DOCTYPE svg PUBLIC "-//W3C//DTD SVG 1.1//EN"
 "http://www.w3.org/Graphics/SVG/1.1/DTD/svg11.dtd">
<!-- Generated by graphviz version 2.47.1 (20210515.0534)
 -->
<!-- Title: eltau::Screen Pages: 1 -->
<svg width="236pt" height="273pt"
 viewBox="0.00 0.00 235.50 273.00" xmlns="http://www.w3.org/2000/svg" xmlns:xlink="http://www.w3.org/1999/xlink">
<g id="graph0" class="graph" transform="scale(1 1) rotate(0) translate(4 269)">
<title>eltau::Screen</title>
<!-- Node1 -->
<g id="node1" class="node">
<title>Node1</title>
<g id="a_node1"><a xlink:title="Abstract terminal screen.">
<polygon fill="#bfbfbf" stroke="black" points="24,-0.5 24,-19.5 97,-19.5 97,-0.5 24,-0.5"/>
<text text-anchor="middle" x="60.5" y="-7.5" font-family="Helvetica,sans-Serif" font-size="10.00">eltau::Screen</text>
</a>
</g>
</g>
<!-- Node2 -->
<g id="node2" class="node">
<title>Node2</title>
<g id="a_node2"><a xlink:href="structeltau_1_1Vec2.html" target="_top" xlink:title="Coordinates in the screen.">
<polygon fill="none" stroke="black" points="0,-73 0,-92 65,-92 65,-73 0,-73"/>
<text text-anchor="middle" x="32.5" y="-80" font-family="Helvetica,sans-Serif" font-size="10.00">eltau::Vec2</text>
</a>
</g>
</g>
<!-- Node2&#45;&gt;Node1 -->
<g id="edge1" class="edge">
<title>Node2&#45;&gt;Node1</title>
<path fill="none" stroke="#9a32cd" stroke-dasharray="5,2" d="M39.74,-63.27C45.3,-49.26 52.74,-30.53 57.04,-19.72"/>
<polygon fill="#9a32cd" stroke="#9a32cd" points="36.37,-62.27 35.93,-72.86 42.88,-64.85 36.37,-62.27"/>
<text text-anchor="middle" x="66.5" y="-41" font-family="Helvetica,sans-Serif" font-size="10.00"> m_size</text>
</g>
<!-- Node3 -->
<g id="node3" class="node">
<title>Node3</title>
<g id="a_node3"><a xlink:title=" ">
<polygon fill="none" stroke="#bfbfbf" points="83,-67.5 83,-97.5 174,-97.5 174,-67.5 83,-67.5"/>
<text text-anchor="start" x="91" y="-85.5" font-family="Helvetica,sans-Serif" font-size="10.00">std::vector&lt; eltau</text>
<text text-anchor="middle" x="128.5" y="-74.5" font-family="Helvetica,sans-Serif" font-size="10.00">::Cell &gt;</text>
</a>
</g>
</g>
<!-- Node3&#45;&gt;Node1 -->
<g id="edge2" class="edge">
<title>Node3&#45;&gt;Node1</title>
<path fill="none" stroke="#9a32cd" stroke-dasharray="5,2" d="M107.53,-59.76C94.59,-46.34 78.68,-29.85 69.08,-19.89"/>
<polygon fill="#9a32cd" stroke="#9a32cd" points="105.28,-62.47 114.74,-67.23 110.32,-57.61 105.28,-62.47"/>
<text text-anchor="middle" x="117.5" y="-41" font-family="Helvetica,sans-Serif" font-size="10.00"> m_buffer</text>
</g>
<!-- Node4 -->
<g id="node4" class="node">
<title>Node4</title>
<g id="a_node4"><a xlink:href="structeltau_1_1Cell.html" target="_top" xlink:title="Terminal cell.">
<polygon fill="none" stroke="black" points="99,-145.5 99,-164.5 158,-164.5 158,-145.5 99,-145.5"/>
<text text-anchor="middle" x="128.5" y="-152.5" font-family="Helvetica,sans-Serif" font-size="10.00">eltau::Cell</text>
</a>
</g>
</g>
<!-- Node4&#45;&gt;Node3 -->
<g id="edge3" class="edge">
<title>Node4&#45;&gt;Node3</title>
<path fill="none" stroke="#9a32cd" stroke-dasharray="5,2" d="M128.5,-135.24C128.5,-123.41 128.5,-108.38 128.5,-97.58"/>
<polygon fill="#9a32cd" stroke="#9a32cd" points="125,-135.36 128.5,-145.36 132,-135.36 125,-135.36"/>
<text text-anchor="middle" x="150" y="-119" font-family="Helvetica,sans-Serif" font-size="10.00"> elements</text>
</g>
<!-- Node5 -->
<g id="node5" class="node">
<title>Node5</title>
<g id="a_node5"><a xlink:title=" ">
<polygon fill="none" stroke="#bfbfbf" points="12,-223.5 12,-264.5 129,-264.5 129,-223.5 12,-223.5"/>
<text text-anchor="start" x="20" y="-252.5" font-family="Helvetica,sans-Serif" font-size="10.00">std::array&lt; cpoint,</text>
<text text-anchor="start" x="20" y="-241.5" font-family="Helvetica,sans-Serif" font-size="10.00"> c_utf8_cpoints *c_max</text>
<text text-anchor="middle" x="70.5" y="-230.5" font-family="Helvetica,sans-Serif" font-size="10.00">_cunits+1 &gt;</text>
</a>
</g>
</g>
<!-- Node5&#45;&gt;Node4 -->
<g id="edge4" class="edge">
<title>Node5&#45;&gt;Node4</title>
<path fill="none" stroke="#9a32cd" stroke-dasharray="5,2" d="M89.45,-214.57C101.05,-197.18 115.08,-176.12 122.77,-164.59"/>
<polygon fill="#9a32cd" stroke="#9a32cd" points="86.3,-213 83.66,-223.26 92.12,-216.88 86.3,-213"/>
<text text-anchor="middle" x="128" y="-191.5" font-family="Helvetica,sans-Serif" font-size="10.00"> m_char</text>
</g>
<!-- Node6 -->
<g id="node6" class="node">
<title>Node6</title>
<g id="a_node6"><a xlink:href="structeltau_1_1Color256.html" target="_top" xlink:title="256 Terminal colors">
<polygon fill="none" stroke="black" points="147.5,-234.5 147.5,-253.5 227.5,-253.5 227.5,-234.5 147.5,-234.5"/>
<text text-anchor="middle" x="187.5" y="-241.5" font-family="Helvetica,sans-Serif" font-size="10.00">eltau::Color256</text>
</a>
</g>
</g>
<!-- Node6&#45;&gt;Node4 -->
<g id="edge5" class="edge">
<title>Node6&#45;&gt;Node4</title>
<path fill="none" stroke="#9a32cd" stroke-dasharray="5,2" d="M177.1,-225.61C169.69,-213.47 159.35,-197.01 149.5,-183 145.13,-176.78 139.88,-170.03 135.72,-164.84"/>
<polygon fill="#9a32cd" stroke="#9a32cd" points="174.18,-227.54 182.34,-234.28 180.17,-223.92 174.18,-227.54"/>
<text text-anchor="middle" x="177" y="-197" font-family="Helvetica,sans-Serif" font-size="10.00"> m_bg</text>
<text text-anchor="middle" x="177" y="-186" font-family="Helvetica,sans-Serif" font-size="10.00">m_fg</text>
</g>
</g>
</svg>
