<?xml version="1.0" encoding="UTF-8" standalone="no"?>
<!DOCTYPE svg PUBLIC "-//W3C//DTD SVG 1.1//EN"
 "http://www.w3.org/Graphics/SVG/1.1/DTD/svg11.dtd">
<!-- Generated by graphviz version 2.47.1 (20210515.0534)
 -->
<!-- Title: eltau::Screen Pages: 1 -->
<svg width="170pt" height="95pt"
 viewBox="0.00 0.00 170.00 95.00" xmlns="http://www.w3.org/2000/svg" xmlns:xlink="http://www.w3.org/1999/xlink">
<g id="graph0" class="graph" transform="scale(1 1) rotate(0) translate(4 91)">
<title>eltau::Screen</title>
<!-- Node1 -->
<g id="node1" class="node">
<title>Node1</title>
<g id="a_node1"><a xlink:title=" ">
<polygon fill="#bfbfbf" stroke="black" points="41.5,-0.5 41.5,-19.5 114.5,-19.5 114.5,-0.5 41.5,-0.5"/>
<text text-anchor="middle" x="78" y="-7.5" font-family="Helvetica,sans-Serif" font-size="10.00">eltau::Screen</text>
</a>
</g>
</g>
<!-- Node2 -->
<g id="node2" class="node">
<title>Node2</title>
<g id="a_node2"><a xlink:href="structeltau_1_1Size2.html" target="_top" xlink:title="Positive offset, analogous to std::size_t for 1D.">
<polygon fill="none" stroke="black" points="0,-67.5 0,-86.5 66,-86.5 66,-67.5 0,-67.5"/>
<text text-anchor="middle" x="33" y="-74.5" font-family="Helvetica,sans-Serif" font-size="10.00">eltau::Size2</text>
</a>
</g>
</g>
<!-- Node2&#45;&gt;Node1 -->
<g id="edge1" class="edge">
<title>Node2&#45;&gt;Node1</title>
<path fill="none" stroke="#9a32cd" stroke-dasharray="5,2" d="M44.84,-58.9C53.58,-46.27 65.12,-29.6 72.03,-19.63"/>
<polygon fill="#9a32cd" stroke="#9a32cd" points="41.88,-57.02 39.07,-67.23 47.64,-61 41.88,-57.02"/>
<text text-anchor="middle" x="76" y="-41" font-family="Helvetica,sans-Serif" font-size="10.00"> m_size</text>
</g>
<!-- Node3 -->
<g id="node3" class="node">
<title>Node3</title>
<g id="a_node3"><a xlink:href="structeltau_1_1Coords2.html" target="_top" xlink:title="Coordinates in the screen.">
<polygon fill="none" stroke="black" points="84,-67.5 84,-86.5 162,-86.5 162,-67.5 84,-67.5"/>
<text text-anchor="middle" x="123" y="-74.5" font-family="Helvetica,sans-Serif" font-size="10.00">eltau::Coords2</text>
</a>
</g>
</g>
<!-- Node3&#45;&gt;Node1 -->
<g id="edge2" class="edge">
<title>Node3&#45;&gt;Node1</title>
<path fill="none" stroke="#9a32cd" stroke-dasharray="5,2" d="M111.16,-58.59C106.73,-52.11 101.65,-44.71 97,-38 92.82,-31.97 88.07,-25.22 84.36,-19.98"/>
<polygon fill="#9a32cd" stroke="#9a32cd" points="108.52,-60.93 117.04,-67.22 114.3,-56.99 108.52,-60.93"/>
<text text-anchor="middle" x="125.5" y="-41" font-family="Helvetica,sans-Serif" font-size="10.00"> m_cursor</text>
</g>
</g>
</svg>
