<?xml version="1.0" encoding="UTF-8" standalone="no"?>
<!DOCTYPE svg PUBLIC "-//W3C//DTD SVG 1.1//EN"
 "http://www.w3.org/Graphics/SVG/1.1/DTD/svg11.dtd">
<!-- Generated by graphviz version 2.47.1 (20210515.0534)
 -->
<!-- Title: eltau::Text Pages: 1 -->
<svg width="190pt" height="173pt"
 viewBox="0.00 0.00 190.00 173.00" xmlns="http://www.w3.org/2000/svg" xmlns:xlink="http://www.w3.org/1999/xlink">
<g id="graph0" class="graph" transform="scale(1 1) rotate(0) translate(4 169)">
<title>eltau::Text</title>
<!-- Node1 -->
<g id="node1" class="node">
<title>Node1</title>
<g id="a_node1"><a xlink:title="Basic styled UTF&#45;8 text with optional wrapping.">
<polygon fill="#bfbfbf" stroke="black" points="54,-0.5 54,-19.5 115,-19.5 115,-0.5 54,-0.5"/>
<text text-anchor="middle" x="84.5" y="-7.5" font-family="Helvetica,sans-Serif" font-size="10.00">eltau::Text</text>
</a>
</g>
</g>
<!-- Node2 -->
<g id="node2" class="node">
<title>Node2</title>
<g id="a_node2"><a xlink:href="classeltau_1_1Element.html" target="_top" xlink:title="Basic TUI drawable element.">
<polygon fill="none" stroke="black" points="4,-67.5 4,-86.5 81,-86.5 81,-67.5 4,-67.5"/>
<text text-anchor="middle" x="42.5" y="-74.5" font-family="Helvetica,sans-Serif" font-size="10.00">eltau::Element</text>
</a>
</g>
</g>
<!-- Node2&#45;&gt;Node1 -->
<g id="edge1" class="edge">
<title>Node2&#45;&gt;Node1</title>
<path fill="none" stroke="midnightblue" d="M53.79,-58.53C61.92,-45.95 72.54,-29.51 78.93,-19.63"/>
<polygon fill="midnightblue" stroke="midnightblue" points="50.65,-56.94 48.16,-67.23 56.53,-60.73 50.65,-56.94"/>
</g>
<!-- Node3 -->
<g id="node3" class="node">
<title>Node3</title>
<g id="a_node3"><a xlink:href="structeltau_1_1Vector.html" target="_top" xlink:title="Coordinates in the screen.">
<polygon fill="none" stroke="black" points="0,-140 0,-159 71,-159 71,-140 0,-140"/>
<text text-anchor="middle" x="35.5" y="-147" font-family="Helvetica,sans-Serif" font-size="10.00">eltau::Vector</text>
</a>
</g>
</g>
<!-- Node3&#45;&gt;Node2 -->
<g id="edge2" class="edge">
<title>Node3&#45;&gt;Node2</title>
<path fill="none" stroke="#9a32cd" stroke-dasharray="5,2" d="M37.35,-129.86C38.74,-115.9 40.57,-97.43 41.63,-86.72"/>
<polygon fill="#9a32cd" stroke="#9a32cd" points="33.86,-129.56 36.36,-139.86 40.83,-130.25 33.86,-129.56"/>
<text text-anchor="middle" x="78.5" y="-108" font-family="Helvetica,sans-Serif" font-size="10.00"> m_last_pref_size</text>
</g>
<!-- Node4 -->
<g id="node4" class="node">
<title>Node4</title>
<g id="a_node4"><a xlink:title=" ">
<polygon fill="none" stroke="#bfbfbf" points="102,-67.5 102,-86.5 161,-86.5 161,-67.5 102,-67.5"/>
<text text-anchor="middle" x="131.5" y="-74.5" font-family="Helvetica,sans-Serif" font-size="10.00">std::string</text>
</a>
</g>
</g>
<!-- Node4&#45;&gt;Node1 -->
<g id="edge3" class="edge">
<title>Node4&#45;&gt;Node1</title>
<path fill="none" stroke="#9a32cd" stroke-dasharray="5,2" d="M119.14,-58.9C110.01,-46.27 97.95,-29.6 90.74,-19.63"/>
<polygon fill="#9a32cd" stroke="#9a32cd" points="116.47,-61.18 125.16,-67.23 122.14,-57.08 116.47,-61.18"/>
<text text-anchor="middle" x="126.5" y="-41" font-family="Helvetica,sans-Serif" font-size="10.00"> m_text</text>
</g>
<!-- Node5 -->
<g id="node5" class="node">
<title>Node5</title>
<g id="a_node5"><a xlink:title=" ">
<polygon fill="none" stroke="#bfbfbf" points="89,-134.5 89,-164.5 182,-164.5 182,-134.5 89,-134.5"/>
<text text-anchor="start" x="97" y="-152.5" font-family="Helvetica,sans-Serif" font-size="10.00">std::basic_string&lt;</text>
<text text-anchor="middle" x="135.5" y="-141.5" font-family="Helvetica,sans-Serif" font-size="10.00"> Char &gt;</text>
</a>
</g>
</g>
<!-- Node5&#45;&gt;Node4 -->
<g id="edge4" class="edge">
<title>Node5&#45;&gt;Node4</title>
<path fill="none" stroke="midnightblue" d="M134.12,-124.09C133.38,-111.21 132.53,-96.2 132,-86.89"/>
<polygon fill="midnightblue" stroke="midnightblue" points="130.63,-124.45 134.69,-134.23 137.62,-124.05 130.63,-124.45"/>
</g>
</g>
</svg>
