<?xml version="1.0" encoding="UTF-8" standalone="no"?>
<!DOCTYPE svg PUBLIC "-//W3C//DTD SVG 1.1//EN"
 "http://www.w3.org/Graphics/SVG/1.1/DTD/svg11.dtd">
<!-- Generated by graphviz version 2.47.1 (20210515.0534)
 -->
<!-- Title: eltau::Window Pages: 1 -->
<svg width="162pt" height="175pt"
 viewBox="0.00 0.00 162.00 175.00" xmlns="http://www.w3.org/2000/svg" xmlns:xlink="http://www.w3.org/1999/xlink">
<g id="graph0" class="graph" transform="scale(1 1) rotate(0) translate(4 171)">
<title>eltau::Window</title>
<!-- Node1 -->
<g id="node1" class="node">
<title>Node1</title>
<g id="a_node1"><a xlink:title="Rectangular area on the screen.">
<polygon fill="#bfbfbf" stroke="black" points="0,-0.5 0,-19.5 77,-19.5 77,-0.5 0,-0.5"/>
<text text-anchor="middle" x="38.5" y="-7.5" font-family="Helvetica,sans-Serif" font-size="10.00">eltau::Window</text>
</a>
</g>
</g>
<!-- Node2 -->
<g id="node2" class="node">
<title>Node2</title>
<g id="a_node2"><a xlink:href="structeltau_1_1Vec2.html" target="_top" xlink:title="Coordinates in the screen.">
<polygon fill="none" stroke="black" points="6,-147.5 6,-166.5 71,-166.5 71,-147.5 6,-147.5"/>
<text text-anchor="middle" x="38.5" y="-154.5" font-family="Helvetica,sans-Serif" font-size="10.00">eltau::Vec2</text>
</a>
</g>
</g>
<!-- Node2&#45;&gt;Node1 -->
<g id="edge1" class="edge">
<title>Node2&#45;&gt;Node1</title>
<path fill="none" stroke="#9a32cd" stroke-dasharray="5,2" d="M35.94,-137.4C33.77,-119.4 31.2,-91.34 32.5,-67 33.4,-50.21 35.8,-30.7 37.28,-19.71"/>
<polygon fill="#9a32cd" stroke="#9a32cd" points="32.48,-137.94 37.23,-147.41 39.42,-137.05 32.48,-137.94"/>
<text text-anchor="middle" x="52.5" y="-81" font-family="Helvetica,sans-Serif" font-size="10.00"> m_origin</text>
<text text-anchor="middle" x="52.5" y="-70" font-family="Helvetica,sans-Serif" font-size="10.00">m_size</text>
</g>
<!-- Node3 -->
<g id="node3" class="node">
<title>Node3</title>
<g id="a_node3"><a xlink:href="classeltau_1_1Screen.html" target="_top" xlink:title=" ">
<polygon fill="none" stroke="black" points="81,-68.5 81,-87.5 154,-87.5 154,-68.5 81,-68.5"/>
<text text-anchor="middle" x="117.5" y="-75.5" font-family="Helvetica,sans-Serif" font-size="10.00">eltau::Screen</text>
</a>
</g>
</g>
<!-- Node2&#45;&gt;Node3 -->
<g id="edge3" class="edge">
<title>Node2&#45;&gt;Node3</title>
<path fill="none" stroke="#9a32cd" stroke-dasharray="5,2" d="M54.47,-140.43C70.72,-124.6 95.32,-100.62 108.46,-87.81"/>
<polygon fill="#9a32cd" stroke="#9a32cd" points="51.97,-137.98 47.26,-147.47 56.86,-142.99 51.97,-137.98"/>
<text text-anchor="middle" x="108" y="-121" font-family="Helvetica,sans-Serif" font-size="10.00"> m_cursor</text>
<text text-anchor="middle" x="108" y="-110" font-family="Helvetica,sans-Serif" font-size="10.00">m_size</text>
</g>
<!-- Node3&#45;&gt;Node1 -->
<g id="edge2" class="edge">
<title>Node3&#45;&gt;Node1</title>
<path fill="none" stroke="#9a32cd" stroke-dasharray="5,2" d="M99.23,-61.73C83.58,-48.66 61.61,-30.3 48.83,-19.63"/>
<polygon fill="#9a32cd" stroke="#9a32cd" points="97.25,-64.65 107.17,-68.37 101.74,-59.27 97.25,-64.65"/>
<text text-anchor="middle" x="105.5" y="-41" font-family="Helvetica,sans-Serif" font-size="10.00"> m_screen</text>
</g>
</g>
</svg>
