<?xml version="1.0" encoding="UTF-8" standalone="no"?>
<!DOCTYPE svg PUBLIC "-//W3C//DTD SVG 1.1//EN"
 "http://www.w3.org/Graphics/SVG/1.1/DTD/svg11.dtd">
<!-- Generated by graphviz version 2.47.1 (20210515.0534)
 -->
<!-- Title: eltau::Text Pages: 1 -->
<svg width="185pt" height="173pt"
 viewBox="0.00 0.00 185.00 173.00" xmlns="http://www.w3.org/2000/svg" xmlns:xlink="http://www.w3.org/1999/xlink">
<g id="graph0" class="graph" transform="scale(1 1) rotate(0) translate(4 169)">
<title>eltau::Text</title>
<!-- Node1 -->
<g id="node1" class="node">
<title>Node1</title>
<g id="a_node1"><a xlink:title="Basic styled UTF&#45;8 text with optional wrapping.">
<polygon fill="#bfbfbf" stroke="black" points="50,-0.5 50,-19.5 111,-19.5 111,-0.5 50,-0.5"/>
<text text-anchor="middle" x="80.5" y="-7.5" font-family="Helvetica,sans-Serif" font-size="10.00">eltau::Text</text>
</a>
</g>
</g>
<!-- Node2 -->
<g id="node2" class="node">
<title>Node2</title>
<g id="a_node2"><a xlink:href="classeltau_1_1Element.html" target="_top" xlink:title="Basic TUI drawable element.">
<polygon fill="none" stroke="black" points="0,-67.5 0,-86.5 77,-86.5 77,-67.5 0,-67.5"/>
<text text-anchor="middle" x="38.5" y="-74.5" font-family="Helvetica,sans-Serif" font-size="10.00">eltau::Element</text>
</a>
</g>
</g>
<!-- Node2&#45;&gt;Node1 -->
<g id="edge1" class="edge">
<title>Node2&#45;&gt;Node1</title>
<path fill="none" stroke="midnightblue" d="M49.79,-58.53C57.92,-45.95 68.54,-29.51 74.93,-19.63"/>
<polygon fill="midnightblue" stroke="midnightblue" points="46.65,-56.94 44.16,-67.23 52.53,-60.73 46.65,-56.94"/>
</g>
<!-- Node3 -->
<g id="node3" class="node">
<title>Node3</title>
<g id="a_node3"><a xlink:href="structeltau_1_1Vec2.html" target="_top" xlink:title="Coordinates in the screen.">
<polygon fill="none" stroke="black" points="1,-140 1,-159 66,-159 66,-140 1,-140"/>
<text text-anchor="middle" x="33.5" y="-147" font-family="Helvetica,sans-Serif" font-size="10.00">eltau::Vec2</text>
</a>
</g>
</g>
<!-- Node3&#45;&gt;Node2 -->
<g id="edge2" class="edge">
<title>Node3&#45;&gt;Node2</title>
<path fill="none" stroke="#9a32cd" stroke-dasharray="5,2" d="M34.82,-129.86C35.81,-115.9 37.12,-97.43 37.88,-86.72"/>
<polygon fill="#9a32cd" stroke="#9a32cd" points="31.33,-129.63 34.11,-139.86 38.31,-130.13 31.33,-129.63"/>
<text text-anchor="middle" x="74.5" y="-108" font-family="Helvetica,sans-Serif" font-size="10.00"> m_last_pref_size</text>
</g>
<!-- Node4 -->
<g id="node4" class="node">
<title>Node4</title>
<g id="a_node4"><a xlink:title=" ">
<polygon fill="none" stroke="#bfbfbf" points="98,-67.5 98,-86.5 157,-86.5 157,-67.5 98,-67.5"/>
<text text-anchor="middle" x="127.5" y="-74.5" font-family="Helvetica,sans-Serif" font-size="10.00">std::string</text>
</a>
</g>
</g>
<!-- Node4&#45;&gt;Node1 -->
<g id="edge3" class="edge">
<title>Node4&#45;&gt;Node1</title>
<path fill="none" stroke="#9a32cd" stroke-dasharray="5,2" d="M115.14,-58.9C106.01,-46.27 93.95,-29.6 86.74,-19.63"/>
<polygon fill="#9a32cd" stroke="#9a32cd" points="112.47,-61.18 121.16,-67.23 118.14,-57.08 112.47,-61.18"/>
<text text-anchor="middle" x="122.5" y="-41" font-family="Helvetica,sans-Serif" font-size="10.00"> m_text</text>
</g>
<!-- Node5 -->
<g id="node5" class="node">
<title>Node5</title>
<g id="a_node5"><a xlink:title=" ">
<polygon fill="none" stroke="#bfbfbf" points="84,-134.5 84,-164.5 177,-164.5 177,-134.5 84,-134.5"/>
<text text-anchor="start" x="92" y="-152.5" font-family="Helvetica,sans-Serif" font-size="10.00">std::basic_string&lt;</text>
<text text-anchor="middle" x="130.5" y="-141.5" font-family="Helvetica,sans-Serif" font-size="10.00"> Char &gt;</text>
</a>
</g>
</g>
<!-- Node5&#45;&gt;Node4 -->
<g id="edge4" class="edge">
<title>Node5&#45;&gt;Node4</title>
<path fill="none" stroke="midnightblue" d="M129.46,-124.09C128.91,-111.21 128.27,-96.2 127.88,-86.89"/>
<polygon fill="midnightblue" stroke="midnightblue" points="125.97,-124.39 129.89,-134.23 132.96,-124.09 125.97,-124.39"/>
</g>
</g>
</svg>
