<?xml version="1.0" encoding="UTF-8" standalone="no"?>
<!DOCTYPE svg PUBLIC "-//W3C//DTD SVG 1.1//EN"
 "http://www.w3.org/Graphics/SVG/1.1/DTD/svg11.dtd">
<!-- Generated by graphviz version 2.47.1 (20210515.0534)
 -->
<!-- Title: eltau::EagerTerminal Pages: 1 -->
<svg width="329pt" height="351pt"
 viewBox="0.00 0.00 328.50 351.00" xmlns="http://www.w3.org/2000/svg" xmlns:xlink="http://www.w3.org/1999/xlink">
<g id="graph0" class="graph" transform="scale(1 1) rotate(0) translate(4 347)">
<title>eltau::EagerTerminal</title>
<!-- Node1 -->
<g id="node1" class="node">
<title>Node1</title>
<g id="a_node1"><a xlink:title="Terminal without caching.">
<polygon fill="#bfbfbf" stroke="black" points="30.5,-0.5 30.5,-19.5 134.5,-19.5 134.5,-0.5 30.5,-0.5"/>
<text text-anchor="middle" x="82.5" y="-7.5" font-family="Helvetica,sans-Serif" font-size="10.00">eltau::EagerTerminal</text>
</a>
</g>
</g>
<!-- Node2 -->
<g id="node2" class="node">
<title>Node2</title>
<g id="a_node2"><a xlink:title=" ">
<polygon fill="none" stroke="#bfbfbf" points="0,-67.5 0,-97.5 109,-97.5 109,-67.5 0,-67.5"/>
<text text-anchor="start" x="8" y="-85.5" font-family="Helvetica,sans-Serif" font-size="10.00">std::unique_ptr&lt; eltau</text>
<text text-anchor="middle" x="54.5" y="-74.5" font-family="Helvetica,sans-Serif" font-size="10.00">::Element &gt;</text>
</a>
</g>
</g>
<!-- Node2&#45;&gt;Node1 -->
<g id="edge1" class="edge">
<title>Node2&#45;&gt;Node1</title>
<path fill="none" stroke="#9a32cd" stroke-dasharray="5,2" d="M63.89,-57.86C69.07,-44.82 75.2,-29.38 78.97,-19.89"/>
<polygon fill="#9a32cd" stroke="#9a32cd" points="60.6,-56.65 60.17,-67.23 67.11,-59.23 60.6,-56.65"/>
<text text-anchor="middle" x="88" y="-41" font-family="Helvetica,sans-Serif" font-size="10.00"> m_root</text>
</g>
<!-- Node3 -->
<g id="node3" class="node">
<title>Node3</title>
<g id="a_node3"><a xlink:href="classeltau_1_1Screen.html" target="_top" xlink:title="Abstract terminal screen.">
<polygon fill="none" stroke="black" points="127,-73 127,-92 200,-92 200,-73 127,-73"/>
<text text-anchor="middle" x="163.5" y="-80" font-family="Helvetica,sans-Serif" font-size="10.00">eltau::Screen</text>
</a>
</g>
</g>
<!-- Node3&#45;&gt;Node1 -->
<g id="edge2" class="edge">
<title>Node3&#45;&gt;Node1</title>
<path fill="none" stroke="#9a32cd" stroke-dasharray="5,2" d="M145.79,-66.08C129.46,-51.87 105.79,-31.27 92.51,-19.72"/>
<polygon fill="#9a32cd" stroke="#9a32cd" points="143.73,-68.93 153.57,-72.86 148.32,-63.65 143.73,-68.93"/>
<text text-anchor="middle" x="148.5" y="-41" font-family="Helvetica,sans-Serif" font-size="10.00"> m_screen</text>
</g>
<!-- Node4 -->
<g id="node4" class="node">
<title>Node4</title>
<g id="a_node4"><a xlink:href="structeltau_1_1Vec2.html" target="_top" xlink:title="Coordinates in the screen.">
<polygon fill="none" stroke="black" points="93,-151 93,-170 158,-170 158,-151 93,-151"/>
<text text-anchor="middle" x="125.5" y="-158" font-family="Helvetica,sans-Serif" font-size="10.00">eltau::Vec2</text>
</a>
</g>
</g>
<!-- Node4&#45;&gt;Node3 -->
<g id="edge3" class="edge">
<title>Node4&#45;&gt;Node3</title>
<path fill="none" stroke="#9a32cd" stroke-dasharray="5,2" d="M133.45,-141.42C137,-133.55 141.33,-124.25 145.5,-116 149.63,-107.83 154.72,-98.72 158.43,-92.23"/>
<polygon fill="#9a32cd" stroke="#9a32cd" points="130.17,-140.18 129.3,-150.74 136.56,-143.03 130.17,-140.18"/>
<text text-anchor="middle" x="162.5" y="-119" font-family="Helvetica,sans-Serif" font-size="10.00"> m_size</text>
</g>
<!-- Node5 -->
<g id="node5" class="node">
<title>Node5</title>
<g id="a_node5"><a xlink:title=" ">
<polygon fill="none" stroke="#bfbfbf" points="176,-145.5 176,-175.5 267,-175.5 267,-145.5 176,-145.5"/>
<text text-anchor="start" x="184" y="-163.5" font-family="Helvetica,sans-Serif" font-size="10.00">std::vector&lt; eltau</text>
<text text-anchor="middle" x="221.5" y="-152.5" font-family="Helvetica,sans-Serif" font-size="10.00">::Cell &gt;</text>
</a>
</g>
</g>
<!-- Node5&#45;&gt;Node3 -->
<g id="edge4" class="edge">
<title>Node5&#45;&gt;Node3</title>
<path fill="none" stroke="#9a32cd" stroke-dasharray="5,2" d="M204.23,-136.87C192.73,-121.8 178.27,-102.85 170.04,-92.06"/>
<polygon fill="#9a32cd" stroke="#9a32cd" points="201.74,-139.38 210.59,-145.2 207.31,-135.13 201.74,-139.38"/>
<text text-anchor="middle" x="216.5" y="-119" font-family="Helvetica,sans-Serif" font-size="10.00"> m_buffer</text>
</g>
<!-- Node6 -->
<g id="node6" class="node">
<title>Node6</title>
<g id="a_node6"><a xlink:href="structeltau_1_1Cell.html" target="_top" xlink:title="Terminal cell.">
<polygon fill="none" stroke="black" points="192,-223.5 192,-242.5 251,-242.5 251,-223.5 192,-223.5"/>
<text text-anchor="middle" x="221.5" y="-230.5" font-family="Helvetica,sans-Serif" font-size="10.00">eltau::Cell</text>
</a>
</g>
</g>
<!-- Node6&#45;&gt;Node5 -->
<g id="edge5" class="edge">
<title>Node6&#45;&gt;Node5</title>
<path fill="none" stroke="#9a32cd" stroke-dasharray="5,2" d="M221.5,-213.24C221.5,-201.41 221.5,-186.38 221.5,-175.58"/>
<polygon fill="#9a32cd" stroke="#9a32cd" points="218,-213.36 221.5,-223.36 225,-213.36 218,-213.36"/>
<text text-anchor="middle" x="243" y="-197" font-family="Helvetica,sans-Serif" font-size="10.00"> elements</text>
</g>
<!-- Node7 -->
<g id="node7" class="node">
<title>Node7</title>
<g id="a_node7"><a xlink:title=" ">
<polygon fill="none" stroke="#bfbfbf" points="105,-301.5 105,-342.5 222,-342.5 222,-301.5 105,-301.5"/>
<text text-anchor="start" x="113" y="-330.5" font-family="Helvetica,sans-Serif" font-size="10.00">std::array&lt; cpoint,</text>
<text text-anchor="start" x="113" y="-319.5" font-family="Helvetica,sans-Serif" font-size="10.00"> c_utf8_cpoints *c_max</text>
<text text-anchor="middle" x="163.5" y="-308.5" font-family="Helvetica,sans-Serif" font-size="10.00">_cunits+1 &gt;</text>
</a>
</g>
</g>
<!-- Node7&#45;&gt;Node6 -->
<g id="edge6" class="edge">
<title>Node7&#45;&gt;Node6</title>
<path fill="none" stroke="#9a32cd" stroke-dasharray="5,2" d="M182.45,-292.57C194.05,-275.18 208.08,-254.12 215.77,-242.59"/>
<polygon fill="#9a32cd" stroke="#9a32cd" points="179.3,-291 176.66,-301.26 185.12,-294.88 179.3,-291"/>
<text text-anchor="middle" x="221" y="-269.5" font-family="Helvetica,sans-Serif" font-size="10.00"> m_char</text>
</g>
<!-- Node8 -->
<g id="node8" class="node">
<title>Node8</title>
<g id="a_node8"><a xlink:href="structeltau_1_1Color256.html" target="_top" xlink:title="256 Terminal colors">
<polygon fill="none" stroke="black" points="240.5,-312.5 240.5,-331.5 320.5,-331.5 320.5,-312.5 240.5,-312.5"/>
<text text-anchor="middle" x="280.5" y="-319.5" font-family="Helvetica,sans-Serif" font-size="10.00">eltau::Color256</text>
</a>
</g>
</g>
<!-- Node8&#45;&gt;Node6 -->
<g id="edge7" class="edge">
<title>Node8&#45;&gt;Node6</title>
<path fill="none" stroke="#9a32cd" stroke-dasharray="5,2" d="M270.1,-303.61C262.69,-291.47 252.35,-275.01 242.5,-261 238.13,-254.78 232.88,-248.03 228.72,-242.84"/>
<polygon fill="#9a32cd" stroke="#9a32cd" points="267.18,-305.54 275.34,-312.28 273.17,-301.92 267.18,-305.54"/>
<text text-anchor="middle" x="270" y="-275" font-family="Helvetica,sans-Serif" font-size="10.00"> m_bg</text>
<text text-anchor="middle" x="270" y="-264" font-family="Helvetica,sans-Serif" font-size="10.00">m_fg</text>
</g>
</g>
</svg>
