<?xml version="1.0" encoding="UTF-8" standalone="no"?>
<!DOCTYPE svg PUBLIC "-//W3C//DTD SVG 1.1//EN"
 "http://www.w3.org/Graphics/SVG/1.1/DTD/svg11.dtd">
<!-- Generated by graphviz version 2.47.1 (20210515.0534)
 -->
<!-- Title: eltau::HContainer&lt; Elems &gt; Pages: 1 -->
<svg width="133pt" height="163pt"
 viewBox="0.00 0.00 132.50 163.00" xmlns="http://www.w3.org/2000/svg" xmlns:xlink="http://www.w3.org/1999/xlink">
<g id="graph0" class="graph" transform="scale(1 1) rotate(0) translate(4 159)">
<title>eltau::HContainer&lt; Elems &gt;</title>
<!-- Node1 -->
<g id="node1" class="node">
<title>Node1</title>
<g id="a_node1"><a xlink:title=" ">
<polygon fill="#bfbfbf" stroke="black" points="0,-0.5 0,-30.5 97,-30.5 97,-0.5 0,-0.5"/>
<text text-anchor="start" x="8" y="-18.5" font-family="Helvetica,sans-Serif" font-size="10.00">eltau::HContainer&lt;</text>
<text text-anchor="middle" x="48.5" y="-7.5" font-family="Helvetica,sans-Serif" font-size="10.00"> Elems &gt;</text>
</a>
</g>
</g>
<!-- Node2 -->
<g id="node2" class="node">
<title>Node2</title>
<g id="a_node2"><a xlink:href="classeltau_1_1Element.html" target="_top" xlink:title="Basic TUI drawable element.">
<polygon fill="none" stroke="black" points="10,-68.5 10,-87.5 87,-87.5 87,-68.5 10,-68.5"/>
<text text-anchor="middle" x="48.5" y="-75.5" font-family="Helvetica,sans-Serif" font-size="10.00">eltau::Element</text>
</a>
</g>
</g>
<!-- Node2&#45;&gt;Node1 -->
<g id="edge1" class="edge">
<title>Node2&#45;&gt;Node1</title>
<path fill="none" stroke="midnightblue" d="M48.5,-58.22C48.5,-49.36 48.5,-38.96 48.5,-30.76"/>
<polygon fill="midnightblue" stroke="midnightblue" points="45,-58.33 48.5,-68.33 52,-58.33 45,-58.33"/>
</g>
<!-- Node3 -->
<g id="node3" class="node">
<title>Node3</title>
<g id="a_node3"><a xlink:href="structeltau_1_1Vector.html" target="_top" xlink:title="Coordinates in the screen.">
<polygon fill="none" stroke="black" points="13,-135.5 13,-154.5 84,-154.5 84,-135.5 13,-135.5"/>
<text text-anchor="middle" x="48.5" y="-142.5" font-family="Helvetica,sans-Serif" font-size="10.00">eltau::Vector</text>
</a>
</g>
</g>
<!-- Node3&#45;&gt;Node2 -->
<g id="edge2" class="edge">
<title>Node3&#45;&gt;Node2</title>
<path fill="none" stroke="#9a32cd" stroke-dasharray="5,2" d="M48.5,-125.04C48.5,-112.67 48.5,-97.12 48.5,-87.63"/>
<polygon fill="#9a32cd" stroke="#9a32cd" points="45,-125.23 48.5,-135.23 52,-125.23 45,-125.23"/>
<text text-anchor="middle" x="86.5" y="-109" font-family="Helvetica,sans-Serif" font-size="10.00"> m_last_pref_size</text>
</g>
</g>
</svg>
