<?xml version="1.0" encoding="UTF-8" standalone="no"?>
<!DOCTYPE svg PUBLIC "-//W3C//DTD SVG 1.1//EN"
 "http://www.w3.org/Graphics/SVG/1.1/DTD/svg11.dtd">
<!-- Generated by graphviz version 2.47.1 (20210515.0534)
 -->
<!-- Title: include/eltau/coords.hpp Pages: 1 -->
<svg width="382pt" height="252pt"
 viewBox="0.00 0.00 382.00 252.00" xmlns="http://www.w3.org/2000/svg" xmlns:xlink="http://www.w3.org/1999/xlink">
<g id="graph0" class="graph" transform="scale(1 1) rotate(0) translate(4 248)">
<title>include/eltau/coords.hpp</title>
<!-- Node1 -->
<g id="node1" class="node">
<title>Node1</title>
<g id="a_node1"><a xlink:title=" ">
<polygon fill="#bfbfbf" stroke="black" points="38,-224.5 38,-243.5 160,-243.5 160,-224.5 38,-224.5"/>
<text text-anchor="middle" x="99" y="-231.5" font-family="Helvetica,sans-Serif" font-size="10.00">include/eltau/coords.hpp</text>
</a>
</g>
</g>
<!-- Node2 -->
<g id="node2" class="node">
<title>Node2</title>
<g id="a_node2"><a xlink:href="coords_8cpp.html" target="_top" xlink:title=" ">
<polygon fill="none" stroke="black" points="0,-168.5 0,-187.5 80,-187.5 80,-168.5 0,-168.5"/>
<text text-anchor="middle" x="40" y="-175.5" font-family="Helvetica,sans-Serif" font-size="10.00">src/coords.cpp</text>
</a>
</g>
</g>
<!-- Node1&#45;&gt;Node2 -->
<g id="edge1" class="edge">
<title>Node1&#45;&gt;Node2</title>
<path fill="none" stroke="midnightblue" d="M82.11,-217.54C71.59,-207.91 58.43,-195.87 49.65,-187.83"/>
<polygon fill="midnightblue" stroke="midnightblue" points="79.78,-220.15 89.52,-224.32 84.51,-214.99 79.78,-220.15"/>
</g>
<!-- Node3 -->
<g id="node3" class="node">
<title>Node3</title>
<g id="a_node3"><a xlink:href="screen_8hpp.html" target="_top" xlink:title=" ">
<polygon fill="none" stroke="black" points="98,-168.5 98,-187.5 220,-187.5 220,-168.5 98,-168.5"/>
<text text-anchor="middle" x="159" y="-175.5" font-family="Helvetica,sans-Serif" font-size="10.00">include/eltau/screen.hpp</text>
</a>
</g>
</g>
<!-- Node1&#45;&gt;Node3 -->
<g id="edge2" class="edge">
<title>Node1&#45;&gt;Node3</title>
<path fill="none" stroke="midnightblue" d="M116.18,-217.54C126.88,-207.91 140.26,-195.87 149.18,-187.83"/>
<polygon fill="midnightblue" stroke="midnightblue" points="113.73,-215.03 108.64,-224.32 118.41,-220.24 113.73,-215.03"/>
</g>
<!-- Node4 -->
<g id="node4" class="node">
<title>Node4</title>
<g id="a_node4"><a xlink:href="screen_8cpp.html" target="_top" xlink:title=" ">
<polygon fill="none" stroke="black" points="5,-112.5 5,-131.5 85,-131.5 85,-112.5 5,-112.5"/>
<text text-anchor="middle" x="45" y="-119.5" font-family="Helvetica,sans-Serif" font-size="10.00">src/screen.cpp</text>
</a>
</g>
</g>
<!-- Node3&#45;&gt;Node4 -->
<g id="edge3" class="edge">
<title>Node3&#45;&gt;Node4</title>
<path fill="none" stroke="midnightblue" d="M131.76,-164.1C110.46,-154.01 81.46,-140.27 62.98,-131.52"/>
<polygon fill="midnightblue" stroke="midnightblue" points="130.4,-167.33 140.94,-168.44 133.4,-161 130.4,-167.33"/>
</g>
<!-- Node5 -->
<g id="node5" class="node">
<title>Node5</title>
<g id="a_node5"><a xlink:href="element_8hpp.html" target="_top" xlink:title=" ">
<polygon fill="none" stroke="black" points="141.5,-112.5 141.5,-131.5 268.5,-131.5 268.5,-112.5 141.5,-112.5"/>
<text text-anchor="middle" x="205" y="-119.5" font-family="Helvetica,sans-Serif" font-size="10.00">include/eltau/element.hpp</text>
</a>
</g>
</g>
<!-- Node3&#45;&gt;Node5 -->
<g id="edge4" class="edge">
<title>Node3&#45;&gt;Node5</title>
<path fill="none" stroke="midnightblue" d="M173.11,-160.43C181.18,-150.97 190.96,-139.48 197.55,-131.75"/>
<polygon fill="midnightblue" stroke="midnightblue" points="170.42,-158.2 166.6,-168.08 175.75,-162.74 170.42,-158.2"/>
</g>
<!-- Node7 -->
<g id="node7" class="node">
<title>Node7</title>
<g id="a_node7"><a xlink:href="terminal_8hpp.html" target="_top" xlink:title=" ">
<polygon fill="none" stroke="black" points="16.5,-56.5 16.5,-75.5 143.5,-75.5 143.5,-56.5 16.5,-56.5"/>
<text text-anchor="middle" x="80" y="-63.5" font-family="Helvetica,sans-Serif" font-size="10.00">include/eltau/terminal.hpp</text>
</a>
</g>
</g>
<!-- Node3&#45;&gt;Node7 -->
<g id="edge10" class="edge">
<title>Node3&#45;&gt;Node7</title>
<path fill="none" stroke="midnightblue" d="M146.76,-159.96C129.64,-136.12 99.18,-93.71 86.17,-75.59"/>
<polygon fill="midnightblue" stroke="midnightblue" points="144.12,-162.29 152.8,-168.37 149.81,-158.2 144.12,-162.29"/>
</g>
<!-- Node9 -->
<g id="node9" class="node">
<title>Node9</title>
<g id="a_node9"><a xlink:href="text_8hpp.html" target="_top" xlink:title=" ">
<polygon fill="none" stroke="black" points="266,-56.5 266,-75.5 374,-75.5 374,-56.5 266,-56.5"/>
<text text-anchor="middle" x="320" y="-63.5" font-family="Helvetica,sans-Serif" font-size="10.00">include/eltau/text.hpp</text>
</a>
</g>
</g>
<!-- Node3&#45;&gt;Node9 -->
<g id="edge11" class="edge">
<title>Node3&#45;&gt;Node9</title>
<path fill="none" stroke="midnightblue" d="M209.56,-165.6C232.22,-158.66 258.24,-147.96 278,-132 297.23,-116.47 310.52,-89.68 316.47,-75.85"/>
<polygon fill="midnightblue" stroke="midnightblue" points="208.38,-162.3 199.75,-168.45 210.33,-169.03 208.38,-162.3"/>
</g>
<!-- Node6 -->
<g id="node6" class="node">
<title>Node6</title>
<g id="a_node6"><a xlink:href="element_8cpp.html" target="_top" xlink:title=" ">
<polygon fill="none" stroke="black" points="162,-56.5 162,-75.5 248,-75.5 248,-56.5 162,-56.5"/>
<text text-anchor="middle" x="205" y="-63.5" font-family="Helvetica,sans-Serif" font-size="10.00">src/element.cpp</text>
</a>
</g>
</g>
<!-- Node5&#45;&gt;Node6 -->
<g id="edge5" class="edge">
<title>Node5&#45;&gt;Node6</title>
<path fill="none" stroke="midnightblue" d="M205,-101.8C205,-92.91 205,-82.78 205,-75.75"/>
<polygon fill="midnightblue" stroke="midnightblue" points="201.5,-102.08 205,-112.08 208.5,-102.08 201.5,-102.08"/>
</g>
<!-- Node5&#45;&gt;Node7 -->
<g id="edge6" class="edge">
<title>Node5&#45;&gt;Node7</title>
<path fill="none" stroke="midnightblue" d="M175.76,-108.37C152.35,-98.26 120.16,-84.35 99.71,-75.52"/>
<polygon fill="midnightblue" stroke="midnightblue" points="174.63,-111.69 185.19,-112.44 177.4,-105.26 174.63,-111.69"/>
</g>
<!-- Node5&#45;&gt;Node9 -->
<g id="edge8" class="edge">
<title>Node5&#45;&gt;Node9</title>
<path fill="none" stroke="midnightblue" d="M232.48,-108.1C253.97,-98.01 283.22,-84.27 301.86,-75.52"/>
<polygon fill="midnightblue" stroke="midnightblue" points="230.79,-105.02 223.22,-112.44 233.76,-111.36 230.79,-105.02"/>
</g>
<!-- Node8 -->
<g id="node8" class="node">
<title>Node8</title>
<g id="a_node8"><a xlink:href="terminal_8cpp.html" target="_top" xlink:title=" ">
<polygon fill="none" stroke="black" points="37,-0.5 37,-19.5 123,-19.5 123,-0.5 37,-0.5"/>
<text text-anchor="middle" x="80" y="-7.5" font-family="Helvetica,sans-Serif" font-size="10.00">src/terminal.cpp</text>
</a>
</g>
</g>
<!-- Node7&#45;&gt;Node8 -->
<g id="edge7" class="edge">
<title>Node7&#45;&gt;Node8</title>
<path fill="none" stroke="midnightblue" d="M80,-45.8C80,-36.91 80,-26.78 80,-19.75"/>
<polygon fill="midnightblue" stroke="midnightblue" points="76.5,-46.08 80,-56.08 83.5,-46.08 76.5,-46.08"/>
</g>
<!-- Node10 -->
<g id="node10" class="node">
<title>Node10</title>
<g id="a_node10"><a xlink:href="text_8cpp.html" target="_top" xlink:title=" ">
<polygon fill="none" stroke="black" points="286.5,-0.5 286.5,-19.5 353.5,-19.5 353.5,-0.5 286.5,-0.5"/>
<text text-anchor="middle" x="320" y="-7.5" font-family="Helvetica,sans-Serif" font-size="10.00">src/text.cpp</text>
</a>
</g>
</g>
<!-- Node9&#45;&gt;Node10 -->
<g id="edge9" class="edge">
<title>Node9&#45;&gt;Node10</title>
<path fill="none" stroke="midnightblue" d="M320,-45.8C320,-36.91 320,-26.78 320,-19.75"/>
<polygon fill="midnightblue" stroke="midnightblue" points="316.5,-46.08 320,-56.08 323.5,-46.08 316.5,-46.08"/>
</g>
</g>
</svg>
