<?xml version="1.0" encoding="UTF-8" standalone="no"?>
<!DOCTYPE svg PUBLIC "-//W3C//DTD SVG 1.1//EN"
 "http://www.w3.org/Graphics/SVG/1.1/DTD/svg11.dtd">
<!-- Generated by graphviz version 2.47.1 (20210515.0534)
 -->
<!-- Title: src/element.cpp Pages: 1 -->
<svg width="454pt" height="252pt"
 viewBox="0.00 0.00 453.50 252.00" xmlns="http://www.w3.org/2000/svg" xmlns:xlink="http://www.w3.org/1999/xlink">
<g id="graph0" class="graph" transform="scale(1 1) rotate(0) translate(4 248)">
<title>src/element.cpp</title>
<!-- Node1 -->
<g id="node1" class="node">
<title>Node1</title>
<g id="a_node1"><a xlink:title=" ">
<polygon fill="#bfbfbf" stroke="black" points="78.5,-224.5 78.5,-243.5 164.5,-243.5 164.5,-224.5 78.5,-224.5"/>
<text text-anchor="middle" x="121.5" y="-231.5" font-family="Helvetica,sans-Serif" font-size="10.00">src/element.cpp</text>
</a>
</g>
</g>
<!-- Node2 -->
<g id="node2" class="node">
<title>Node2</title>
<g id="a_node2"><a xlink:title=" ">
<polygon fill="none" stroke="#bfbfbf" points="53,-168.5 53,-187.5 102,-187.5 102,-168.5 53,-168.5"/>
<text text-anchor="middle" x="77.5" y="-175.5" font-family="Helvetica,sans-Serif" font-size="10.00">cassert</text>
</a>
</g>
</g>
<!-- Node1&#45;&gt;Node2 -->
<g id="edge1" class="edge">
<title>Node1&#45;&gt;Node2</title>
<path fill="none" stroke="midnightblue" d="M114.23,-224.08C107.96,-216.38 98.71,-205.03 91.07,-195.65"/>
<polygon fill="midnightblue" stroke="midnightblue" points="93.66,-193.29 84.63,-187.75 88.23,-197.71 93.66,-193.29"/>
</g>
<!-- Node3 -->
<g id="node3" class="node">
<title>Node3</title>
<g id="a_node3"><a xlink:href="element_8hpp.html" target="_top" xlink:title=" ">
<polygon fill="none" stroke="black" points="120,-168.5 120,-187.5 213,-187.5 213,-168.5 120,-168.5"/>
<text text-anchor="middle" x="166.5" y="-175.5" font-family="Helvetica,sans-Serif" font-size="10.00">eltau/element.hpp</text>
</a>
</g>
</g>
<!-- Node1&#45;&gt;Node3 -->
<g id="edge2" class="edge">
<title>Node1&#45;&gt;Node3</title>
<path fill="none" stroke="midnightblue" d="M128.93,-224.08C135.35,-216.38 144.81,-205.03 152.62,-195.65"/>
<polygon fill="midnightblue" stroke="midnightblue" points="155.49,-197.67 159.21,-187.75 150.12,-193.19 155.49,-197.67"/>
</g>
<!-- Node4 -->
<g id="node4" class="node">
<title>Node4</title>
<g id="a_node4"><a xlink:title=" ">
<polygon fill="none" stroke="#bfbfbf" points="0,-112.5 0,-131.5 59,-131.5 59,-112.5 0,-112.5"/>
<text text-anchor="middle" x="29.5" y="-119.5" font-family="Helvetica,sans-Serif" font-size="10.00">functional</text>
</a>
</g>
</g>
<!-- Node3&#45;&gt;Node4 -->
<g id="edge3" class="edge">
<title>Node3&#45;&gt;Node4</title>
<path fill="none" stroke="midnightblue" d="M144.79,-168.44C122.15,-159.52 86.43,-145.44 60.75,-135.32"/>
<polygon fill="midnightblue" stroke="midnightblue" points="61.69,-131.93 51.11,-131.52 59.13,-138.44 61.69,-131.93"/>
</g>
<!-- Node5 -->
<g id="node5" class="node">
<title>Node5</title>
<g id="a_node5"><a xlink:title=" ">
<polygon fill="none" stroke="#bfbfbf" points="77,-112.5 77,-131.5 128,-131.5 128,-112.5 77,-112.5"/>
<text text-anchor="middle" x="102.5" y="-119.5" font-family="Helvetica,sans-Serif" font-size="10.00">memory</text>
</a>
</g>
</g>
<!-- Node3&#45;&gt;Node5 -->
<g id="edge4" class="edge">
<title>Node3&#45;&gt;Node5</title>
<path fill="none" stroke="midnightblue" d="M156.22,-168.32C146.66,-160.26 132.22,-148.08 120.72,-138.37"/>
<polygon fill="midnightblue" stroke="midnightblue" points="122.87,-135.61 112.97,-131.83 118.36,-140.96 122.87,-135.61"/>
</g>
<!-- Node6 -->
<g id="node6" class="node">
<title>Node6</title>
<g id="a_node6"><a xlink:title=" ">
<polygon fill="none" stroke="#bfbfbf" points="146,-112.5 146,-131.5 187,-131.5 187,-112.5 146,-112.5"/>
<text text-anchor="middle" x="166.5" y="-119.5" font-family="Helvetica,sans-Serif" font-size="10.00">string</text>
</a>
</g>
</g>
<!-- Node3&#45;&gt;Node6 -->
<g id="edge5" class="edge">
<title>Node3&#45;&gt;Node6</title>
<path fill="none" stroke="midnightblue" d="M166.5,-168.08C166.5,-161.01 166.5,-150.86 166.5,-141.99"/>
<polygon fill="midnightblue" stroke="midnightblue" points="170,-141.75 166.5,-131.75 163,-141.75 170,-141.75"/>
</g>
<!-- Node7 -->
<g id="node7" class="node">
<title>Node7</title>
<g id="a_node7"><a xlink:title=" ">
<polygon fill="none" stroke="#bfbfbf" points="205.5,-112.5 205.5,-131.5 267.5,-131.5 267.5,-112.5 205.5,-112.5"/>
<text text-anchor="middle" x="236.5" y="-119.5" font-family="Helvetica,sans-Serif" font-size="10.00">type_traits</text>
</a>
</g>
</g>
<!-- Node3&#45;&gt;Node7 -->
<g id="edge6" class="edge">
<title>Node3&#45;&gt;Node7</title>
<path fill="none" stroke="midnightblue" d="M177.75,-168.32C188.3,-160.18 204.3,-147.84 216.94,-138.09"/>
<polygon fill="midnightblue" stroke="midnightblue" points="219.27,-140.71 225.05,-131.83 214.99,-135.17 219.27,-140.71"/>
</g>
<!-- Node8 -->
<g id="node8" class="node">
<title>Node8</title>
<g id="a_node8"><a xlink:href="screen_8hpp.html" target="_top" xlink:title=" ">
<polygon fill="none" stroke="black" points="285.5,-112.5 285.5,-131.5 373.5,-131.5 373.5,-112.5 285.5,-112.5"/>
<text text-anchor="middle" x="329.5" y="-119.5" font-family="Helvetica,sans-Serif" font-size="10.00">eltau/screen.hpp</text>
</a>
</g>
</g>
<!-- Node3&#45;&gt;Node8 -->
<g id="edge7" class="edge">
<title>Node3&#45;&gt;Node8</title>
<path fill="none" stroke="midnightblue" d="M192.33,-168.44C219.75,-159.36 263.28,-144.94 293.93,-134.78"/>
<polygon fill="midnightblue" stroke="midnightblue" points="295.4,-137.98 303.79,-131.52 293.2,-131.34 295.4,-137.98"/>
</g>
<!-- Node9 -->
<g id="node9" class="node">
<title>Node9</title>
<g id="a_node9"><a xlink:title=" ">
<polygon fill="none" stroke="#bfbfbf" points="263.5,-56.5 263.5,-75.5 301.5,-75.5 301.5,-56.5 263.5,-56.5"/>
<text text-anchor="middle" x="282.5" y="-63.5" font-family="Helvetica,sans-Serif" font-size="10.00">array</text>
</a>
</g>
</g>
<!-- Node8&#45;&gt;Node9 -->
<g id="edge8" class="edge">
<title>Node8&#45;&gt;Node9</title>
<path fill="none" stroke="midnightblue" d="M321.74,-112.08C314.96,-104.3 304.96,-92.8 296.74,-83.37"/>
<polygon fill="midnightblue" stroke="midnightblue" points="299.32,-81 290.12,-75.75 294.04,-85.59 299.32,-81"/>
</g>
<!-- Node10 -->
<g id="node10" class="node">
<title>Node10</title>
<g id="a_node10"><a xlink:title=" ">
<polygon fill="none" stroke="#bfbfbf" points="309.5,-0.5 309.5,-19.5 355.5,-19.5 355.5,-0.5 309.5,-0.5"/>
<text text-anchor="middle" x="332.5" y="-7.5" font-family="Helvetica,sans-Serif" font-size="10.00">cstdint</text>
</a>
</g>
</g>
<!-- Node8&#45;&gt;Node10 -->
<g id="edge9" class="edge">
<title>Node8&#45;&gt;Node10</title>
<path fill="none" stroke="midnightblue" d="M329.74,-112.37C330.22,-94.62 331.34,-53.67 331.99,-29.6"/>
<polygon fill="midnightblue" stroke="midnightblue" points="335.49,-29.68 332.27,-19.59 328.49,-29.49 335.49,-29.68"/>
</g>
<!-- Node11 -->
<g id="node11" class="node">
<title>Node11</title>
<g id="a_node11"><a xlink:href="coords_8hpp.html" target="_top" xlink:title=" ">
<polygon fill="none" stroke="black" points="357.5,-56.5 357.5,-75.5 445.5,-75.5 445.5,-56.5 357.5,-56.5"/>
<text text-anchor="middle" x="401.5" y="-63.5" font-family="Helvetica,sans-Serif" font-size="10.00">eltau/coords.hpp</text>
</a>
</g>
</g>
<!-- Node8&#45;&gt;Node11 -->
<g id="edge10" class="edge">
<title>Node8&#45;&gt;Node11</title>
<path fill="none" stroke="midnightblue" d="M341.07,-112.32C351.92,-104.18 368.38,-91.84 381.38,-82.09"/>
<polygon fill="midnightblue" stroke="midnightblue" points="383.82,-84.63 389.72,-75.83 379.62,-79.03 383.82,-84.63"/>
</g>
<!-- Node11&#45;&gt;Node10 -->
<g id="edge11" class="edge">
<title>Node11&#45;&gt;Node10</title>
<path fill="none" stroke="midnightblue" d="M390.41,-56.32C380.01,-48.18 364.24,-35.84 351.78,-26.09"/>
<polygon fill="midnightblue" stroke="midnightblue" points="353.82,-23.24 343.79,-19.83 349.51,-28.75 353.82,-23.24"/>
</g>
<!-- Node12 -->
<g id="node12" class="node">
<title>Node12</title>
<g id="a_node12"><a xlink:title=" ">
<polygon fill="none" stroke="#bfbfbf" points="375.5,-0.5 375.5,-19.5 427.5,-19.5 427.5,-0.5 375.5,-0.5"/>
<text text-anchor="middle" x="401.5" y="-7.5" font-family="Helvetica,sans-Serif" font-size="10.00">ostream</text>
</a>
</g>
</g>
<!-- Node11&#45;&gt;Node12 -->
<g id="edge12" class="edge">
<title>Node11&#45;&gt;Node12</title>
<path fill="none" stroke="midnightblue" d="M401.5,-56.08C401.5,-49.01 401.5,-38.86 401.5,-29.99"/>
<polygon fill="midnightblue" stroke="midnightblue" points="405,-29.75 401.5,-19.75 398,-29.75 405,-29.75"/>
</g>
</g>
</svg>
