<?xml version="1.0" encoding="UTF-8" standalone="no"?>
<!DOCTYPE svg PUBLIC "-//W3C//DTD SVG 1.1//EN"
 "http://www.w3.org/Graphics/SVG/1.1/DTD/svg11.dtd">
<!-- Generated by graphviz version 2.47.1 (20210515.0534)
 -->
<!-- Title: Graphical Class Hierarchy Pages: 1 -->
<svg width="218pt" height="78pt"
 viewBox="0.00 0.00 218.00 77.50" xmlns="http://www.w3.org/2000/svg" xmlns:xlink="http://www.w3.org/1999/xlink">
<g id="graph0" class="graph" transform="scale(1 1) rotate(0) translate(4 73.5)">
<title>Graphical Class Hierarchy</title>
<!-- Node0 -->
<g id="node1" class="node">
<title>Node0</title>
<g id="a_node1"><a xlink:href="classeltau_1_1Element.html" target="_top" xlink:title="Basic TUI drawable element.">
<polygon fill="none" stroke="black" points="0,-22.5 0,-41.5 77,-41.5 77,-22.5 0,-22.5"/>
<text text-anchor="middle" x="38.5" y="-29.5" font-family="Helvetica,sans-Serif" font-size="10.00">eltau::Element</text>
</a>
</g>
</g>
<!-- Node1 -->
<g id="node2" class="node">
<title>Node1</title>
<g id="a_node2"><a xlink:href="classeltau_1_1HContainer.html" target="_top" xlink:title=" ">
<polygon fill="none" stroke="black" points="113,-39 113,-69 210,-69 210,-39 113,-39"/>
<text text-anchor="start" x="121" y="-57" font-family="Helvetica,sans-Serif" font-size="10.00">eltau::HContainer&lt;</text>
<text text-anchor="middle" x="161.5" y="-46" font-family="Helvetica,sans-Serif" font-size="10.00"> Elems &gt;</text>
</a>
</g>
</g>
<!-- Node0&#45;&gt;Node1 -->
<g id="edge1" class="edge">
<title>Node0&#45;&gt;Node1</title>
<path fill="none" stroke="midnightblue" d="M87.13,-40.66C95.52,-42.18 104.25,-43.77 112.64,-45.3"/>
<polygon fill="midnightblue" stroke="midnightblue" points="87.59,-37.19 77.12,-38.84 86.33,-44.07 87.59,-37.19"/>
</g>
<!-- Node2 -->
<g id="node3" class="node">
<title>Node2</title>
<g id="a_node3"><a xlink:href="classeltau_1_1Text.html" target="_top" xlink:title="Basic styled UTF&#45;8 text with optional wrapping.">
<polygon fill="none" stroke="black" points="131,-0.5 131,-19.5 192,-19.5 192,-0.5 131,-0.5"/>
<text text-anchor="middle" x="161.5" y="-7.5" font-family="Helvetica,sans-Serif" font-size="10.00">eltau::Text</text>
</a>
</g>
</g>
<!-- Node0&#45;&gt;Node2 -->
<g id="edge2" class="edge">
<title>Node0&#45;&gt;Node2</title>
<path fill="none" stroke="midnightblue" d="M87.14,-23.34C101.93,-20.65 117.79,-17.77 130.97,-15.37"/>
<polygon fill="midnightblue" stroke="midnightblue" points="86.33,-19.93 77.12,-25.16 87.59,-26.81 86.33,-19.93"/>
</g>
</g>
</svg>
