<?xml version="1.0" encoding="UTF-8" standalone="no"?>
<!DOCTYPE svg PUBLIC "-//W3C//DTD SVG 1.1//EN"
 "http://www.w3.org/Graphics/SVG/1.1/DTD/svg11.dtd">
<!-- Generated by graphviz version 2.47.1 (20210515.0534)
 -->
<!-- Title: include/eltau/screen.hpp Pages: 1 -->
<svg width="377pt" height="196pt"
 viewBox="0.00 0.00 377.00 196.00" xmlns="http://www.w3.org/2000/svg" xmlns:xlink="http://www.w3.org/1999/xlink">
<g id="graph0" class="graph" transform="scale(1 1) rotate(0) translate(4 192)">
<title>include/eltau/screen.hpp</title>
<!-- Node1 -->
<g id="node1" class="node">
<title>Node1</title>
<g id="a_node1"><a xlink:title=" ">
<polygon fill="#bfbfbf" stroke="black" points="93,-168.5 93,-187.5 215,-187.5 215,-168.5 93,-168.5"/>
<text text-anchor="middle" x="154" y="-175.5" font-family="Helvetica,sans-Serif" font-size="10.00">include/eltau/screen.hpp</text>
</a>
</g>
</g>
<!-- Node2 -->
<g id="node2" class="node">
<title>Node2</title>
<g id="a_node2"><a xlink:href="screen_8cpp.html" target="_top" xlink:title=" ">
<polygon fill="none" stroke="black" points="0,-112.5 0,-131.5 80,-131.5 80,-112.5 0,-112.5"/>
<text text-anchor="middle" x="40" y="-119.5" font-family="Helvetica,sans-Serif" font-size="10.00">src/screen.cpp</text>
</a>
</g>
</g>
<!-- Node1&#45;&gt;Node2 -->
<g id="edge1" class="edge">
<title>Node1&#45;&gt;Node2</title>
<path fill="none" stroke="midnightblue" d="M126.76,-164.1C105.46,-154.01 76.46,-140.27 57.98,-131.52"/>
<polygon fill="midnightblue" stroke="midnightblue" points="125.4,-167.33 135.94,-168.44 128.4,-161 125.4,-167.33"/>
</g>
<!-- Node3 -->
<g id="node3" class="node">
<title>Node3</title>
<g id="a_node3"><a xlink:href="element_8hpp.html" target="_top" xlink:title=" ">
<polygon fill="none" stroke="black" points="136.5,-112.5 136.5,-131.5 263.5,-131.5 263.5,-112.5 136.5,-112.5"/>
<text text-anchor="middle" x="200" y="-119.5" font-family="Helvetica,sans-Serif" font-size="10.00">include/eltau/element.hpp</text>
</a>
</g>
</g>
<!-- Node1&#45;&gt;Node3 -->
<g id="edge2" class="edge">
<title>Node1&#45;&gt;Node3</title>
<path fill="none" stroke="midnightblue" d="M168.11,-160.43C176.18,-150.97 185.96,-139.48 192.55,-131.75"/>
<polygon fill="midnightblue" stroke="midnightblue" points="165.42,-158.2 161.6,-168.08 170.75,-162.74 165.42,-158.2"/>
</g>
<!-- Node5 -->
<g id="node5" class="node">
<title>Node5</title>
<g id="a_node5"><a xlink:href="terminal_8hpp.html" target="_top" xlink:title=" ">
<polygon fill="none" stroke="black" points="11.5,-56.5 11.5,-75.5 138.5,-75.5 138.5,-56.5 11.5,-56.5"/>
<text text-anchor="middle" x="75" y="-63.5" font-family="Helvetica,sans-Serif" font-size="10.00">include/eltau/terminal.hpp</text>
</a>
</g>
</g>
<!-- Node1&#45;&gt;Node5 -->
<g id="edge8" class="edge">
<title>Node1&#45;&gt;Node5</title>
<path fill="none" stroke="midnightblue" d="M141.76,-159.96C124.64,-136.12 94.18,-93.71 81.17,-75.59"/>
<polygon fill="midnightblue" stroke="midnightblue" points="139.12,-162.29 147.8,-168.37 144.81,-158.2 139.12,-162.29"/>
</g>
<!-- Node7 -->
<g id="node7" class="node">
<title>Node7</title>
<g id="a_node7"><a xlink:href="text_8hpp.html" target="_top" xlink:title=" ">
<polygon fill="none" stroke="black" points="261,-56.5 261,-75.5 369,-75.5 369,-56.5 261,-56.5"/>
<text text-anchor="middle" x="315" y="-63.5" font-family="Helvetica,sans-Serif" font-size="10.00">include/eltau/text.hpp</text>
</a>
</g>
</g>
<!-- Node1&#45;&gt;Node7 -->
<g id="edge9" class="edge">
<title>Node1&#45;&gt;Node7</title>
<path fill="none" stroke="midnightblue" d="M204.56,-165.6C227.22,-158.66 253.24,-147.96 273,-132 292.23,-116.47 305.52,-89.68 311.47,-75.85"/>
<polygon fill="midnightblue" stroke="midnightblue" points="203.38,-162.3 194.75,-168.45 205.33,-169.03 203.38,-162.3"/>
</g>
<!-- Node4 -->
<g id="node4" class="node">
<title>Node4</title>
<g id="a_node4"><a xlink:href="element_8cpp.html" target="_top" xlink:title=" ">
<polygon fill="none" stroke="black" points="157,-56.5 157,-75.5 243,-75.5 243,-56.5 157,-56.5"/>
<text text-anchor="middle" x="200" y="-63.5" font-family="Helvetica,sans-Serif" font-size="10.00">src/element.cpp</text>
</a>
</g>
</g>
<!-- Node3&#45;&gt;Node4 -->
<g id="edge3" class="edge">
<title>Node3&#45;&gt;Node4</title>
<path fill="none" stroke="midnightblue" d="M200,-101.8C200,-92.91 200,-82.78 200,-75.75"/>
<polygon fill="midnightblue" stroke="midnightblue" points="196.5,-102.08 200,-112.08 203.5,-102.08 196.5,-102.08"/>
</g>
<!-- Node3&#45;&gt;Node5 -->
<g id="edge4" class="edge">
<title>Node3&#45;&gt;Node5</title>
<path fill="none" stroke="midnightblue" d="M170.76,-108.37C147.35,-98.26 115.16,-84.35 94.71,-75.52"/>
<polygon fill="midnightblue" stroke="midnightblue" points="169.63,-111.69 180.19,-112.44 172.4,-105.26 169.63,-111.69"/>
</g>
<!-- Node3&#45;&gt;Node7 -->
<g id="edge6" class="edge">
<title>Node3&#45;&gt;Node7</title>
<path fill="none" stroke="midnightblue" d="M227.48,-108.1C248.97,-98.01 278.22,-84.27 296.86,-75.52"/>
<polygon fill="midnightblue" stroke="midnightblue" points="225.79,-105.02 218.22,-112.44 228.76,-111.36 225.79,-105.02"/>
</g>
<!-- Node6 -->
<g id="node6" class="node">
<title>Node6</title>
<g id="a_node6"><a xlink:href="terminal_8cpp.html" target="_top" xlink:title=" ">
<polygon fill="none" stroke="black" points="32,-0.5 32,-19.5 118,-19.5 118,-0.5 32,-0.5"/>
<text text-anchor="middle" x="75" y="-7.5" font-family="Helvetica,sans-Serif" font-size="10.00">src/terminal.cpp</text>
</a>
</g>
</g>
<!-- Node5&#45;&gt;Node6 -->
<g id="edge5" class="edge">
<title>Node5&#45;&gt;Node6</title>
<path fill="none" stroke="midnightblue" d="M75,-45.8C75,-36.91 75,-26.78 75,-19.75"/>
<polygon fill="midnightblue" stroke="midnightblue" points="71.5,-46.08 75,-56.08 78.5,-46.08 71.5,-46.08"/>
</g>
<!-- Node8 -->
<g id="node8" class="node">
<title>Node8</title>
<g id="a_node8"><a xlink:href="text_8cpp.html" target="_top" xlink:title=" ">
<polygon fill="none" stroke="black" points="281.5,-0.5 281.5,-19.5 348.5,-19.5 348.5,-0.5 281.5,-0.5"/>
<text text-anchor="middle" x="315" y="-7.5" font-family="Helvetica,sans-Serif" font-size="10.00">src/text.cpp</text>
</a>
</g>
</g>
<!-- Node7&#45;&gt;Node8 -->
<g id="edge7" class="edge">
<title>Node7&#45;&gt;Node8</title>
<path fill="none" stroke="midnightblue" d="M315,-45.8C315,-36.91 315,-26.78 315,-19.75"/>
<polygon fill="midnightblue" stroke="midnightblue" points="311.5,-46.08 315,-56.08 318.5,-46.08 311.5,-46.08"/>
</g>
</g>
</svg>
