<?xml version="1.0" encoding="UTF-8" standalone="no"?>
<!DOCTYPE svg PUBLIC "-//W3C//DTD SVG 1.1//EN"
 "http://www.w3.org/Graphics/SVG/1.1/DTD/svg11.dtd">
<!-- Generated by graphviz version 2.47.1 (20210515.0534)
 -->
<!-- Title: include/eltau/screen.hpp Pages: 1 -->
<svg width="228pt" height="84pt"
 viewBox="0.00 0.00 228.00 84.00" xmlns="http://www.w3.org/2000/svg" xmlns:xlink="http://www.w3.org/1999/xlink">
<g id="graph0" class="graph" transform="scale(1 1) rotate(0) translate(4 80)">
<title>include/eltau/screen.hpp</title>
<!-- Node1 -->
<g id="node1" class="node">
<title>Node1</title>
<g id="a_node1"><a xlink:title=" ">
<polygon fill="#bfbfbf" stroke="black" points="48,-56.5 48,-75.5 170,-75.5 170,-56.5 48,-56.5"/>
<text text-anchor="middle" x="109" y="-63.5" font-family="Helvetica,sans-Serif" font-size="10.00">include/eltau/screen.hpp</text>
</a>
</g>
</g>
<!-- Node2 -->
<g id="node2" class="node">
<title>Node2</title>
<g id="a_node2"><a xlink:title=" ">
<polygon fill="none" stroke="#bfbfbf" points="0,-0.5 0,-19.5 38,-19.5 38,-0.5 0,-0.5"/>
<text text-anchor="middle" x="19" y="-7.5" font-family="Helvetica,sans-Serif" font-size="10.00">array</text>
</a>
</g>
</g>
<!-- Node1&#45;&gt;Node2 -->
<g id="edge1" class="edge">
<title>Node1&#45;&gt;Node2</title>
<path fill="none" stroke="midnightblue" d="M94.54,-56.32C80.5,-47.9 58.95,-34.97 42.46,-25.07"/>
<polygon fill="midnightblue" stroke="midnightblue" points="43.8,-21.8 33.42,-19.65 40.2,-27.8 43.8,-21.8"/>
</g>
<!-- Node3 -->
<g id="node3" class="node">
<title>Node3</title>
<g id="a_node3"><a xlink:title=" ">
<polygon fill="none" stroke="#bfbfbf" points="56,-0.5 56,-19.5 102,-19.5 102,-0.5 56,-0.5"/>
<text text-anchor="middle" x="79" y="-7.5" font-family="Helvetica,sans-Serif" font-size="10.00">cstdint</text>
</a>
</g>
</g>
<!-- Node1&#45;&gt;Node3 -->
<g id="edge2" class="edge">
<title>Node1&#45;&gt;Node3</title>
<path fill="none" stroke="midnightblue" d="M104.05,-56.08C99.9,-48.61 93.85,-37.72 88.73,-28.52"/>
<polygon fill="midnightblue" stroke="midnightblue" points="91.78,-26.79 83.86,-19.75 85.66,-30.19 91.78,-26.79"/>
</g>
<!-- Node4 -->
<g id="node4" class="node">
<title>Node4</title>
<g id="a_node4"><a xlink:title=" ">
<polygon fill="none" stroke="#bfbfbf" points="120,-0.5 120,-19.5 158,-19.5 158,-0.5 120,-0.5"/>
<text text-anchor="middle" x="139" y="-7.5" font-family="Helvetica,sans-Serif" font-size="10.00">span</text>
</a>
</g>
</g>
<!-- Node1&#45;&gt;Node4 -->
<g id="edge3" class="edge">
<title>Node1&#45;&gt;Node4</title>
<path fill="none" stroke="midnightblue" d="M113.95,-56.08C118.1,-48.61 124.15,-37.72 129.27,-28.52"/>
<polygon fill="midnightblue" stroke="midnightblue" points="132.34,-30.19 134.14,-19.75 126.22,-26.79 132.34,-30.19"/>
</g>
<!-- Node5 -->
<g id="node5" class="node">
<title>Node5</title>
<g id="a_node5"><a xlink:title=" ">
<polygon fill="none" stroke="#bfbfbf" points="176,-0.5 176,-19.5 220,-19.5 220,-0.5 176,-0.5"/>
<text text-anchor="middle" x="198" y="-7.5" font-family="Helvetica,sans-Serif" font-size="10.00">vector</text>
</a>
</g>
</g>
<!-- Node1&#45;&gt;Node5 -->
<g id="edge4" class="edge">
<title>Node1&#45;&gt;Node5</title>
<path fill="none" stroke="midnightblue" d="M123.3,-56.32C137.18,-47.9 158.49,-34.97 174.8,-25.07"/>
<polygon fill="midnightblue" stroke="midnightblue" points="177,-27.83 183.74,-19.65 173.37,-21.85 177,-27.83"/>
</g>
</g>
</svg>
