<?xml version="1.0" encoding="UTF-8" standalone="no"?>
<!DOCTYPE svg PUBLIC "-//W3C//DTD SVG 1.1//EN"
 "http://www.w3.org/Graphics/SVG/1.1/DTD/svg11.dtd">
<!-- Generated by graphviz version 2.47.1 (20210515.0534)
 -->
<!-- Title: src/screen.cpp Pages: 1 -->
<svg width="235pt" height="196pt"
 viewBox="0.00 0.00 234.50 196.00" xmlns="http://www.w3.org/2000/svg" xmlns:xlink="http://www.w3.org/1999/xlink">
<g id="graph0" class="graph" transform="scale(1 1) rotate(0) translate(4 192)">
<title>src/screen.cpp</title>
<!-- Node1 -->
<g id="node1" class="node">
<title>Node1</title>
<g id="a_node1"><a xlink:title=" ">
<polygon fill="#bfbfbf" stroke="black" points="27.5,-168.5 27.5,-187.5 107.5,-187.5 107.5,-168.5 27.5,-168.5"/>
<text text-anchor="middle" x="67.5" y="-175.5" font-family="Helvetica,sans-Serif" font-size="10.00">src/screen.cpp</text>
</a>
</g>
</g>
<!-- Node2 -->
<g id="node2" class="node">
<title>Node2</title>
<g id="a_node2"><a xlink:title=" ">
<polygon fill="none" stroke="#bfbfbf" points="0,-112.5 0,-131.5 49,-131.5 49,-112.5 0,-112.5"/>
<text text-anchor="middle" x="24.5" y="-119.5" font-family="Helvetica,sans-Serif" font-size="10.00">cassert</text>
</a>
</g>
</g>
<!-- Node1&#45;&gt;Node2 -->
<g id="edge1" class="edge">
<title>Node1&#45;&gt;Node2</title>
<path fill="none" stroke="midnightblue" d="M60.4,-168.08C54.26,-160.38 45.23,-149.03 37.76,-139.65"/>
<polygon fill="midnightblue" stroke="midnightblue" points="40.44,-137.39 31.47,-131.75 34.96,-141.75 40.44,-137.39"/>
</g>
<!-- Node3 -->
<g id="node3" class="node">
<title>Node3</title>
<g id="a_node3"><a xlink:href="screen_8hpp.html" target="_top" xlink:title=" ">
<polygon fill="none" stroke="black" points="66.5,-112.5 66.5,-131.5 154.5,-131.5 154.5,-112.5 66.5,-112.5"/>
<text text-anchor="middle" x="110.5" y="-119.5" font-family="Helvetica,sans-Serif" font-size="10.00">eltau/screen.hpp</text>
</a>
</g>
</g>
<!-- Node1&#45;&gt;Node3 -->
<g id="edge2" class="edge">
<title>Node1&#45;&gt;Node3</title>
<path fill="none" stroke="midnightblue" d="M74.6,-168.08C80.74,-160.38 89.77,-149.03 97.24,-139.65"/>
<polygon fill="midnightblue" stroke="midnightblue" points="100.04,-141.75 103.53,-131.75 94.56,-137.39 100.04,-141.75"/>
</g>
<!-- Node4 -->
<g id="node4" class="node">
<title>Node4</title>
<g id="a_node4"><a xlink:title=" ">
<polygon fill="none" stroke="#bfbfbf" points="44.5,-56.5 44.5,-75.5 82.5,-75.5 82.5,-56.5 44.5,-56.5"/>
<text text-anchor="middle" x="63.5" y="-63.5" font-family="Helvetica,sans-Serif" font-size="10.00">array</text>
</a>
</g>
</g>
<!-- Node3&#45;&gt;Node4 -->
<g id="edge3" class="edge">
<title>Node3&#45;&gt;Node4</title>
<path fill="none" stroke="midnightblue" d="M102.74,-112.08C95.96,-104.3 85.96,-92.8 77.74,-83.37"/>
<polygon fill="midnightblue" stroke="midnightblue" points="80.32,-81 71.12,-75.75 75.04,-85.59 80.32,-81"/>
</g>
<!-- Node5 -->
<g id="node5" class="node">
<title>Node5</title>
<g id="a_node5"><a xlink:title=" ">
<polygon fill="none" stroke="#bfbfbf" points="89.5,-0.5 89.5,-19.5 135.5,-19.5 135.5,-0.5 89.5,-0.5"/>
<text text-anchor="middle" x="112.5" y="-7.5" font-family="Helvetica,sans-Serif" font-size="10.00">cstdint</text>
</a>
</g>
</g>
<!-- Node3&#45;&gt;Node5 -->
<g id="edge4" class="edge">
<title>Node3&#45;&gt;Node5</title>
<path fill="none" stroke="midnightblue" d="M110.66,-112.37C110.98,-94.62 111.72,-53.67 112.16,-29.6"/>
<polygon fill="midnightblue" stroke="midnightblue" points="115.66,-29.65 112.34,-19.59 108.66,-29.53 115.66,-29.65"/>
</g>
<!-- Node6 -->
<g id="node6" class="node">
<title>Node6</title>
<g id="a_node6"><a xlink:href="coords_8hpp.html" target="_top" xlink:title=" ">
<polygon fill="none" stroke="black" points="138.5,-56.5 138.5,-75.5 226.5,-75.5 226.5,-56.5 138.5,-56.5"/>
<text text-anchor="middle" x="182.5" y="-63.5" font-family="Helvetica,sans-Serif" font-size="10.00">eltau/coords.hpp</text>
</a>
</g>
</g>
<!-- Node3&#45;&gt;Node6 -->
<g id="edge5" class="edge">
<title>Node3&#45;&gt;Node6</title>
<path fill="none" stroke="midnightblue" d="M122.07,-112.32C132.92,-104.18 149.38,-91.84 162.38,-82.09"/>
<polygon fill="midnightblue" stroke="midnightblue" points="164.82,-84.63 170.72,-75.83 160.62,-79.03 164.82,-84.63"/>
</g>
<!-- Node6&#45;&gt;Node5 -->
<g id="edge6" class="edge">
<title>Node6&#45;&gt;Node5</title>
<path fill="none" stroke="midnightblue" d="M171.25,-56.32C160.7,-48.18 144.7,-35.84 132.06,-26.09"/>
<polygon fill="midnightblue" stroke="midnightblue" points="134.01,-23.17 123.95,-19.83 129.73,-28.71 134.01,-23.17"/>
</g>
<!-- Node7 -->
<g id="node7" class="node">
<title>Node7</title>
<g id="a_node7"><a xlink:title=" ">
<polygon fill="none" stroke="#bfbfbf" points="156.5,-0.5 156.5,-19.5 208.5,-19.5 208.5,-0.5 156.5,-0.5"/>
<text text-anchor="middle" x="182.5" y="-7.5" font-family="Helvetica,sans-Serif" font-size="10.00">ostream</text>
</a>
</g>
</g>
<!-- Node6&#45;&gt;Node7 -->
<g id="edge7" class="edge">
<title>Node6&#45;&gt;Node7</title>
<path fill="none" stroke="midnightblue" d="M182.5,-56.08C182.5,-49.01 182.5,-38.86 182.5,-29.99"/>
<polygon fill="midnightblue" stroke="midnightblue" points="186,-29.75 182.5,-19.75 179,-29.75 186,-29.75"/>
</g>
</g>
</svg>
