<?xml version="1.0" encoding="UTF-8" standalone="no"?>
<!DOCTYPE svg PUBLIC "-//W3C//DTD SVG 1.1//EN"
 "http://www.w3.org/Graphics/SVG/1.1/DTD/svg11.dtd">
<!-- Generated by graphviz version 2.47.1 (20210515.0534)
 -->
<!-- Title: eltau::Cell Pages: 1 -->
<svg width="224pt" height="128pt"
 viewBox="0.00 0.00 223.50 128.00" xmlns="http://www.w3.org/2000/svg" xmlns:xlink="http://www.w3.org/1999/xlink">
<g id="graph0" class="graph" transform="scale(1 1) rotate(0) translate(4 124)">
<title>eltau::Cell</title>
<!-- Node1 -->
<g id="node1" class="node">
<title>Node1</title>
<g id="a_node1"><a xlink:title="Terminal cell.">
<polygon fill="#bfbfbf" stroke="black" points="87,-0.5 87,-19.5 146,-19.5 146,-0.5 87,-0.5"/>
<text text-anchor="middle" x="116.5" y="-7.5" font-family="Helvetica,sans-Serif" font-size="10.00">eltau::Cell</text>
</a>
</g>
</g>
<!-- Node2 -->
<g id="node2" class="node">
<title>Node2</title>
<g id="a_node2"><a xlink:title=" ">
<polygon fill="none" stroke="#bfbfbf" points="0,-78.5 0,-119.5 117,-119.5 117,-78.5 0,-78.5"/>
<text text-anchor="start" x="8" y="-107.5" font-family="Helvetica,sans-Serif" font-size="10.00">std::array&lt; cpoint,</text>
<text text-anchor="start" x="8" y="-96.5" font-family="Helvetica,sans-Serif" font-size="10.00"> c_utf8_cpoints *c_max</text>
<text text-anchor="middle" x="58.5" y="-85.5" font-family="Helvetica,sans-Serif" font-size="10.00">_cunits+1 &gt;</text>
</a>
</g>
</g>
<!-- Node2&#45;&gt;Node1 -->
<g id="edge1" class="edge">
<title>Node2&#45;&gt;Node1</title>
<path fill="none" stroke="#9a32cd" stroke-dasharray="5,2" d="M77.45,-69.57C89.05,-52.18 103.08,-31.12 110.77,-19.59"/>
<polygon fill="#9a32cd" stroke="#9a32cd" points="74.3,-68 71.66,-78.26 80.12,-71.88 74.3,-68"/>
<text text-anchor="middle" x="116" y="-46.5" font-family="Helvetica,sans-Serif" font-size="10.00"> m_char</text>
</g>
<!-- Node3 -->
<g id="node3" class="node">
<title>Node3</title>
<g id="a_node3"><a xlink:href="structeltau_1_1Color256.html" target="_top" xlink:title="256 Terminal colors">
<polygon fill="none" stroke="black" points="135.5,-89.5 135.5,-108.5 215.5,-108.5 215.5,-89.5 135.5,-89.5"/>
<text text-anchor="middle" x="175.5" y="-96.5" font-family="Helvetica,sans-Serif" font-size="10.00">eltau::Color256</text>
</a>
</g>
</g>
<!-- Node3&#45;&gt;Node1 -->
<g id="edge2" class="edge">
<title>Node3&#45;&gt;Node1</title>
<path fill="none" stroke="#9a32cd" stroke-dasharray="5,2" d="M165.1,-80.61C157.69,-68.47 147.35,-52.01 137.5,-38 133.13,-31.78 127.88,-25.03 123.72,-19.84"/>
<polygon fill="#9a32cd" stroke="#9a32cd" points="162.18,-82.54 170.34,-89.28 168.17,-78.92 162.18,-82.54"/>
<text text-anchor="middle" x="165" y="-52" font-family="Helvetica,sans-Serif" font-size="10.00"> m_bg</text>
<text text-anchor="middle" x="165" y="-41" font-family="Helvetica,sans-Serif" font-size="10.00">m_fg</text>
</g>
</g>
</svg>
