<?xml version="1.0" encoding="UTF-8" standalone="no"?>
<!DOCTYPE svg PUBLIC "-//W3C//DTD SVG 1.1//EN"
 "http://www.w3.org/Graphics/SVG/1.1/DTD/svg11.dtd">
<!-- Generated by graphviz version 2.47.1 (20210515.0534)
 -->
<!-- Title: eltau::SharedStateImpl&lt; State &gt; Pages: 1 -->
<svg width="284pt" height="106pt"
 viewBox="0.00 0.00 283.50 106.00" xmlns="http://www.w3.org/2000/svg" xmlns:xlink="http://www.w3.org/1999/xlink">
<g id="graph0" class="graph" transform="scale(1 1) rotate(0) translate(4 102)">
<title>eltau::SharedStateImpl&lt; State &gt;</title>
<!-- Node1 -->
<g id="node1" class="node">
<title>Node1</title>
<g id="a_node1"><a xlink:title=" ">
<polygon fill="#bfbfbf" stroke="black" points="84,-0.5 84,-30.5 199,-30.5 199,-0.5 84,-0.5"/>
<text text-anchor="start" x="92" y="-18.5" font-family="Helvetica,sans-Serif" font-size="10.00">eltau::SharedStateImpl</text>
<text text-anchor="middle" x="141.5" y="-7.5" font-family="Helvetica,sans-Serif" font-size="10.00">&lt; State &gt;</text>
</a>
</g>
</g>
<!-- Node2 -->
<g id="node2" class="node">
<title>Node2</title>
<g id="a_node2"><a xlink:href="structeltau_1_1SharedStateBaseImpl.html" target="_top" xlink:title=" ">
<polygon fill="none" stroke="black" points="0,-78.5 0,-97.5 137,-97.5 137,-78.5 0,-78.5"/>
<text text-anchor="middle" x="68.5" y="-85.5" font-family="Helvetica,sans-Serif" font-size="10.00">eltau::SharedStateBaseImpl</text>
</a>
</g>
</g>
<!-- Node2&#45;&gt;Node1 -->
<g id="edge1" class="edge">
<title>Node2&#45;&gt;Node1</title>
<path fill="none" stroke="midnightblue" d="M84.97,-71.09C97.58,-58.91 114.81,-42.27 126.92,-30.58"/>
<polygon fill="midnightblue" stroke="midnightblue" points="82.21,-68.89 77.45,-78.36 87.08,-73.93 82.21,-68.89"/>
</g>
<!-- Node3 -->
<g id="node3" class="node">
<title>Node3</title>
<g id="a_node3"><a xlink:title=" ">
<polygon fill="none" stroke="#bfbfbf" points="155.5,-78.5 155.5,-97.5 275.5,-97.5 275.5,-78.5 155.5,-78.5"/>
<text text-anchor="middle" x="215.5" y="-85.5" font-family="Helvetica,sans-Serif" font-size="10.00">std::shared_ptr&lt; State &gt;</text>
</a>
</g>
</g>
<!-- Node3&#45;&gt;Node1 -->
<g id="edge2" class="edge">
<title>Node3&#45;&gt;Node1</title>
<path fill="none" stroke="#9a32cd" stroke-dasharray="5,2" d="M199.17,-71.44C186.35,-59.23 168.67,-42.39 156.27,-30.58"/>
<polygon fill="#9a32cd" stroke="#9a32cd" points="196.77,-73.99 206.43,-78.36 201.6,-68.92 196.77,-73.99"/>
<text text-anchor="middle" x="203.5" y="-52" font-family="Helvetica,sans-Serif" font-size="10.00"> m_state</text>
</g>
</g>
</svg>
