<?xml version="1.0" encoding="UTF-8" standalone="no"?>
<!DOCTYPE svg PUBLIC "-//W3C//DTD SVG 1.1//EN"
 "http://www.w3.org/Graphics/SVG/1.1/DTD/svg11.dtd">
<!-- Generated by graphviz version 2.47.1 (20210515.0534)
 -->
<!-- Title: include/eltau/terminal.hpp Pages: 1 -->
<svg width="449pt" height="196pt"
 viewBox="0.00 0.00 448.50 196.00" xmlns="http://www.w3.org/2000/svg" xmlns:xlink="http://www.w3.org/1999/xlink">
<g id="graph0" class="graph" transform="scale(1 1) rotate(0) translate(4 192)">
<title>include/eltau/terminal.hpp</title>
<!-- Node1 -->
<g id="node1" class="node">
<title>Node1</title>
<g id="a_node1"><a xlink:title=" ">
<polygon fill="#bfbfbf" stroke="black" points="103,-168.5 103,-187.5 230,-187.5 230,-168.5 103,-168.5"/>
<text text-anchor="middle" x="166.5" y="-175.5" font-family="Helvetica,sans-Serif" font-size="10.00">include/eltau/terminal.hpp</text>
</a>
</g>
</g>
<!-- Node2 -->
<g id="node2" class="node">
<title>Node2</title>
<g id="a_node2"><a xlink:title=" ">
<polygon fill="none" stroke="#bfbfbf" points="0,-56.5 0,-75.5 51,-75.5 51,-56.5 0,-56.5"/>
<text text-anchor="middle" x="25.5" y="-63.5" font-family="Helvetica,sans-Serif" font-size="10.00">memory</text>
</a>
</g>
</g>
<!-- Node1&#45;&gt;Node2 -->
<g id="edge1" class="edge">
<title>Node1&#45;&gt;Node2</title>
<path fill="none" stroke="midnightblue" d="M155.44,-168.37C131.45,-149.65 74.4,-105.15 44.51,-81.83"/>
<polygon fill="midnightblue" stroke="midnightblue" points="46.55,-78.98 36.51,-75.59 42.24,-84.5 46.55,-78.98"/>
</g>
<!-- Node3 -->
<g id="node3" class="node">
<title>Node3</title>
<g id="a_node3"><a xlink:href="element_8hpp.html" target="_top" xlink:title=" ">
<polygon fill="none" stroke="black" points="120,-112.5 120,-131.5 213,-131.5 213,-112.5 120,-112.5"/>
<text text-anchor="middle" x="166.5" y="-119.5" font-family="Helvetica,sans-Serif" font-size="10.00">eltau/element.hpp</text>
</a>
</g>
</g>
<!-- Node1&#45;&gt;Node3 -->
<g id="edge2" class="edge">
<title>Node1&#45;&gt;Node3</title>
<path fill="none" stroke="midnightblue" d="M166.5,-168.08C166.5,-161.01 166.5,-150.86 166.5,-141.99"/>
<polygon fill="midnightblue" stroke="midnightblue" points="170,-141.75 166.5,-131.75 163,-141.75 170,-141.75"/>
</g>
<!-- Node7 -->
<g id="node7" class="node">
<title>Node7</title>
<g id="a_node7"><a xlink:href="screen_8hpp.html" target="_top" xlink:title=" ">
<polygon fill="none" stroke="black" points="285.5,-56.5 285.5,-75.5 373.5,-75.5 373.5,-56.5 285.5,-56.5"/>
<text text-anchor="middle" x="329.5" y="-63.5" font-family="Helvetica,sans-Serif" font-size="10.00">eltau/screen.hpp</text>
</a>
</g>
</g>
<!-- Node1&#45;&gt;Node7 -->
<g id="edge12" class="edge">
<title>Node1&#45;&gt;Node7</title>
<path fill="none" stroke="midnightblue" d="M179.29,-168.37C207.26,-149.49 274.1,-104.38 308.4,-81.24"/>
<polygon fill="midnightblue" stroke="midnightblue" points="310.44,-84.09 316.77,-75.59 306.52,-78.28 310.44,-84.09"/>
</g>
<!-- Node3&#45;&gt;Node2 -->
<g id="edge4" class="edge">
<title>Node3&#45;&gt;Node2</title>
<path fill="none" stroke="midnightblue" d="M144.16,-112.44C120.75,-103.48 83.76,-89.31 57.31,-79.18"/>
<polygon fill="midnightblue" stroke="midnightblue" points="58.33,-75.82 47.74,-75.52 55.82,-82.36 58.33,-75.82"/>
</g>
<!-- Node4 -->
<g id="node4" class="node">
<title>Node4</title>
<g id="a_node4"><a xlink:title=" ">
<polygon fill="none" stroke="#bfbfbf" points="69,-56.5 69,-75.5 128,-75.5 128,-56.5 69,-56.5"/>
<text text-anchor="middle" x="98.5" y="-63.5" font-family="Helvetica,sans-Serif" font-size="10.00">functional</text>
</a>
</g>
</g>
<!-- Node3&#45;&gt;Node4 -->
<g id="edge3" class="edge">
<title>Node3&#45;&gt;Node4</title>
<path fill="none" stroke="midnightblue" d="M155.57,-112.32C145.33,-104.18 129.78,-91.84 117.5,-82.09"/>
<polygon fill="midnightblue" stroke="midnightblue" points="119.63,-79.31 109.62,-75.83 115.28,-84.79 119.63,-79.31"/>
</g>
<!-- Node5 -->
<g id="node5" class="node">
<title>Node5</title>
<g id="a_node5"><a xlink:title=" ">
<polygon fill="none" stroke="#bfbfbf" points="146,-56.5 146,-75.5 187,-75.5 187,-56.5 146,-56.5"/>
<text text-anchor="middle" x="166.5" y="-63.5" font-family="Helvetica,sans-Serif" font-size="10.00">string</text>
</a>
</g>
</g>
<!-- Node3&#45;&gt;Node5 -->
<g id="edge5" class="edge">
<title>Node3&#45;&gt;Node5</title>
<path fill="none" stroke="midnightblue" d="M166.5,-112.08C166.5,-105.01 166.5,-94.86 166.5,-85.99"/>
<polygon fill="midnightblue" stroke="midnightblue" points="170,-85.75 166.5,-75.75 163,-85.75 170,-85.75"/>
</g>
<!-- Node6 -->
<g id="node6" class="node">
<title>Node6</title>
<g id="a_node6"><a xlink:title=" ">
<polygon fill="none" stroke="#bfbfbf" points="205.5,-56.5 205.5,-75.5 267.5,-75.5 267.5,-56.5 205.5,-56.5"/>
<text text-anchor="middle" x="236.5" y="-63.5" font-family="Helvetica,sans-Serif" font-size="10.00">type_traits</text>
</a>
</g>
</g>
<!-- Node3&#45;&gt;Node6 -->
<g id="edge6" class="edge">
<title>Node3&#45;&gt;Node6</title>
<path fill="none" stroke="midnightblue" d="M177.75,-112.32C188.3,-104.18 204.3,-91.84 216.94,-82.09"/>
<polygon fill="midnightblue" stroke="midnightblue" points="219.27,-84.71 225.05,-75.83 214.99,-79.17 219.27,-84.71"/>
</g>
<!-- Node3&#45;&gt;Node7 -->
<g id="edge7" class="edge">
<title>Node3&#45;&gt;Node7</title>
<path fill="none" stroke="midnightblue" d="M192.33,-112.44C219.75,-103.36 263.28,-88.94 293.93,-78.78"/>
<polygon fill="midnightblue" stroke="midnightblue" points="295.4,-81.98 303.79,-75.52 293.2,-75.34 295.4,-81.98"/>
</g>
<!-- Node8 -->
<g id="node8" class="node">
<title>Node8</title>
<g id="a_node8"><a xlink:title=" ">
<polygon fill="none" stroke="#bfbfbf" points="220.5,-0.5 220.5,-19.5 258.5,-19.5 258.5,-0.5 220.5,-0.5"/>
<text text-anchor="middle" x="239.5" y="-7.5" font-family="Helvetica,sans-Serif" font-size="10.00">array</text>
</a>
</g>
</g>
<!-- Node7&#45;&gt;Node8 -->
<g id="edge8" class="edge">
<title>Node7&#45;&gt;Node8</title>
<path fill="none" stroke="midnightblue" d="M315.04,-56.32C301,-47.9 279.45,-34.97 262.96,-25.07"/>
<polygon fill="midnightblue" stroke="midnightblue" points="264.3,-21.8 253.92,-19.65 260.7,-27.8 264.3,-21.8"/>
</g>
<!-- Node9 -->
<g id="node9" class="node">
<title>Node9</title>
<g id="a_node9"><a xlink:title=" ">
<polygon fill="none" stroke="#bfbfbf" points="276.5,-0.5 276.5,-19.5 322.5,-19.5 322.5,-0.5 276.5,-0.5"/>
<text text-anchor="middle" x="299.5" y="-7.5" font-family="Helvetica,sans-Serif" font-size="10.00">cstdint</text>
</a>
</g>
</g>
<!-- Node7&#45;&gt;Node9 -->
<g id="edge9" class="edge">
<title>Node7&#45;&gt;Node9</title>
<path fill="none" stroke="midnightblue" d="M324.55,-56.08C320.4,-48.61 314.35,-37.72 309.23,-28.52"/>
<polygon fill="midnightblue" stroke="midnightblue" points="312.28,-26.79 304.36,-19.75 306.16,-30.19 312.28,-26.79"/>
</g>
<!-- Node10 -->
<g id="node10" class="node">
<title>Node10</title>
<g id="a_node10"><a xlink:title=" ">
<polygon fill="none" stroke="#bfbfbf" points="340.5,-0.5 340.5,-19.5 378.5,-19.5 378.5,-0.5 340.5,-0.5"/>
<text text-anchor="middle" x="359.5" y="-7.5" font-family="Helvetica,sans-Serif" font-size="10.00">span</text>
</a>
</g>
</g>
<!-- Node7&#45;&gt;Node10 -->
<g id="edge10" class="edge">
<title>Node7&#45;&gt;Node10</title>
<path fill="none" stroke="midnightblue" d="M334.45,-56.08C338.6,-48.61 344.65,-37.72 349.77,-28.52"/>
<polygon fill="midnightblue" stroke="midnightblue" points="352.84,-30.19 354.64,-19.75 346.72,-26.79 352.84,-30.19"/>
</g>
<!-- Node11 -->
<g id="node11" class="node">
<title>Node11</title>
<g id="a_node11"><a xlink:title=" ">
<polygon fill="none" stroke="#bfbfbf" points="396.5,-0.5 396.5,-19.5 440.5,-19.5 440.5,-0.5 396.5,-0.5"/>
<text text-anchor="middle" x="418.5" y="-7.5" font-family="Helvetica,sans-Serif" font-size="10.00">vector</text>
</a>
</g>
</g>
<!-- Node7&#45;&gt;Node11 -->
<g id="edge11" class="edge">
<title>Node7&#45;&gt;Node11</title>
<path fill="none" stroke="midnightblue" d="M343.8,-56.32C357.68,-47.9 378.99,-34.97 395.3,-25.07"/>
<polygon fill="midnightblue" stroke="midnightblue" points="397.5,-27.83 404.24,-19.65 393.87,-21.85 397.5,-27.83"/>
</g>
</g>
</svg>
