<?xml version="1.0" encoding="UTF-8" standalone="no"?>
<!DOCTYPE svg PUBLIC "-//W3C//DTD SVG 1.1//EN"
 "http://www.w3.org/Graphics/SVG/1.1/DTD/svg11.dtd">
<!-- Generated by graphviz version 2.47.1 (20210515.0534)
 -->
<!-- Title: src/terminal.cpp Pages: 1 -->
<svg width="852pt" height="308pt"
 viewBox="0.00 0.00 852.00 308.00" xmlns="http://www.w3.org/2000/svg" xmlns:xlink="http://www.w3.org/1999/xlink">
<g id="graph0" class="graph" transform="scale(1 1) rotate(0) translate(4 304)">
<title>src/terminal.cpp</title>
<!-- Node1 -->
<g id="node1" class="node">
<title>Node1</title>
<g id="a_node1"><a xlink:title=" ">
<polygon fill="#bfbfbf" stroke="black" points="229,-280.5 229,-299.5 315,-299.5 315,-280.5 229,-280.5"/>
<text text-anchor="middle" x="272" y="-287.5" font-family="Helvetica,sans-Serif" font-size="10.00">src/terminal.cpp</text>
</a>
</g>
</g>
<!-- Node2 -->
<g id="node2" class="node">
<title>Node2</title>
<g id="a_node2"><a xlink:title=" ">
<polygon fill="none" stroke="#bfbfbf" points="0,-224.5 0,-243.5 60,-243.5 60,-224.5 0,-224.5"/>
<text text-anchor="middle" x="30" y="-231.5" font-family="Helvetica,sans-Serif" font-size="10.00">fmt/core.h</text>
</a>
</g>
</g>
<!-- Node1&#45;&gt;Node2 -->
<g id="edge1" class="edge">
<title>Node1&#45;&gt;Node2</title>
<path fill="none" stroke="midnightblue" d="M233.06,-280.47C194.26,-271.95 132.69,-258.37 70.25,-244.27"/>
<polygon fill="midnightblue" stroke="midnightblue" points="70.75,-240.79 60.23,-242 69.21,-247.62 70.75,-240.79"/>
</g>
<!-- Node3 -->
<g id="node3" class="node">
<title>Node3</title>
<g id="a_node3"><a xlink:title=" ">
<polygon fill="none" stroke="#bfbfbf" points="78.5,-224.5 78.5,-243.5 147.5,-243.5 147.5,-224.5 78.5,-224.5"/>
<text text-anchor="middle" x="113" y="-231.5" font-family="Helvetica,sans-Serif" font-size="10.00">fmt/format.h</text>
</a>
</g>
</g>
<!-- Node1&#45;&gt;Node3 -->
<g id="edge2" class="edge">
<title>Node1&#45;&gt;Node3</title>
<path fill="none" stroke="midnightblue" d="M246.81,-280.44C220.06,-271.36 177.6,-256.94 147.69,-246.78"/>
<polygon fill="midnightblue" stroke="midnightblue" points="148.67,-243.42 138.08,-243.52 146.42,-250.05 148.67,-243.42"/>
</g>
<!-- Node4 -->
<g id="node4" class="node">
<title>Node4</title>
<g id="a_node4"><a xlink:title=" ">
<polygon fill="none" stroke="#bfbfbf" points="166,-224.5 166,-243.5 226,-243.5 226,-224.5 166,-224.5"/>
<text text-anchor="middle" x="196" y="-231.5" font-family="Helvetica,sans-Serif" font-size="10.00">sys/ioctl.h</text>
</a>
</g>
</g>
<!-- Node1&#45;&gt;Node4 -->
<g id="edge3" class="edge">
<title>Node1&#45;&gt;Node4</title>
<path fill="none" stroke="midnightblue" d="M259.79,-280.32C248.22,-272.11 230.62,-259.6 216.84,-249.81"/>
<polygon fill="midnightblue" stroke="midnightblue" points="218.61,-246.77 208.43,-243.83 214.56,-252.48 218.61,-246.77"/>
</g>
<!-- Node5 -->
<g id="node5" class="node">
<title>Node5</title>
<g id="a_node5"><a xlink:title=" ">
<polygon fill="none" stroke="#bfbfbf" points="244,-224.5 244,-243.5 300,-243.5 300,-224.5 244,-224.5"/>
<text text-anchor="middle" x="272" y="-231.5" font-family="Helvetica,sans-Serif" font-size="10.00">termios.h</text>
</a>
</g>
</g>
<!-- Node1&#45;&gt;Node5 -->
<g id="edge4" class="edge">
<title>Node1&#45;&gt;Node5</title>
<path fill="none" stroke="midnightblue" d="M272,-280.08C272,-273.01 272,-262.86 272,-253.99"/>
<polygon fill="midnightblue" stroke="midnightblue" points="275.5,-253.75 272,-243.75 268.5,-253.75 275.5,-253.75"/>
</g>
<!-- Node6 -->
<g id="node6" class="node">
<title>Node6</title>
<g id="a_node6"><a xlink:title=" ">
<polygon fill="none" stroke="#bfbfbf" points="318,-224.5 318,-243.5 368,-243.5 368,-224.5 318,-224.5"/>
<text text-anchor="middle" x="343" y="-231.5" font-family="Helvetica,sans-Serif" font-size="10.00">unistd.h</text>
</a>
</g>
</g>
<!-- Node1&#45;&gt;Node6 -->
<g id="edge5" class="edge">
<title>Node1&#45;&gt;Node6</title>
<path fill="none" stroke="midnightblue" d="M283.41,-280.32C294.11,-272.18 310.34,-259.84 323.16,-250.09"/>
<polygon fill="midnightblue" stroke="midnightblue" points="325.54,-252.67 331.39,-243.83 321.31,-247.1 325.54,-252.67"/>
</g>
<!-- Node7 -->
<g id="node7" class="node">
<title>Node7</title>
<g id="a_node7"><a xlink:href="exception_8hpp.html" target="_top" xlink:title=" ">
<polygon fill="none" stroke="black" points="386,-224.5 386,-243.5 486,-243.5 486,-224.5 386,-224.5"/>
<text text-anchor="middle" x="436" y="-231.5" font-family="Helvetica,sans-Serif" font-size="10.00">eltau/exception.hpp</text>
</a>
</g>
</g>
<!-- Node1&#45;&gt;Node7 -->
<g id="edge6" class="edge">
<title>Node1&#45;&gt;Node7</title>
<path fill="none" stroke="midnightblue" d="M297.99,-280.44C325.7,-271.32 369.75,-256.81 400.62,-246.65"/>
<polygon fill="midnightblue" stroke="midnightblue" points="401.73,-249.97 410.14,-243.52 399.54,-243.32 401.73,-249.97"/>
</g>
<!-- Node9 -->
<g id="node9" class="node">
<title>Node9</title>
<g id="a_node9"><a xlink:href="terminal_8hpp.html" target="_top" xlink:title=" ">
<polygon fill="none" stroke="black" points="513.5,-224.5 513.5,-243.5 606.5,-243.5 606.5,-224.5 513.5,-224.5"/>
<text text-anchor="middle" x="560" y="-231.5" font-family="Helvetica,sans-Serif" font-size="10.00">eltau/terminal.hpp</text>
</a>
</g>
</g>
<!-- Node1&#45;&gt;Node9 -->
<g id="edge8" class="edge">
<title>Node1&#45;&gt;Node9</title>
<path fill="none" stroke="midnightblue" d="M315.12,-280.92C365.49,-271.47 448.96,-255.82 504.23,-245.46"/>
<polygon fill="midnightblue" stroke="midnightblue" points="505.02,-248.87 514.21,-243.59 503.73,-241.99 505.02,-248.87"/>
</g>
<!-- Node8 -->
<g id="node8" class="node">
<title>Node8</title>
<g id="a_node8"><a xlink:title=" ">
<polygon fill="none" stroke="#bfbfbf" points="402.5,-168.5 402.5,-187.5 461.5,-187.5 461.5,-168.5 402.5,-168.5"/>
<text text-anchor="middle" x="432" y="-175.5" font-family="Helvetica,sans-Serif" font-size="10.00">stdexcept</text>
</a>
</g>
</g>
<!-- Node7&#45;&gt;Node8 -->
<g id="edge7" class="edge">
<title>Node7&#45;&gt;Node8</title>
<path fill="none" stroke="midnightblue" d="M435.34,-224.08C434.82,-217.01 434.06,-206.86 433.41,-197.99"/>
<polygon fill="midnightblue" stroke="midnightblue" points="436.88,-197.47 432.65,-187.75 429.9,-197.98 436.88,-197.47"/>
</g>
<!-- Node10 -->
<g id="node10" class="node">
<title>Node10</title>
<g id="a_node10"><a xlink:title=" ">
<polygon fill="none" stroke="#bfbfbf" points="398.5,-112.5 398.5,-131.5 449.5,-131.5 449.5,-112.5 398.5,-112.5"/>
<text text-anchor="middle" x="424" y="-119.5" font-family="Helvetica,sans-Serif" font-size="10.00">memory</text>
</a>
</g>
</g>
<!-- Node9&#45;&gt;Node10 -->
<g id="edge9" class="edge">
<title>Node9&#45;&gt;Node10</title>
<path fill="none" stroke="midnightblue" d="M549.33,-224.37C526.29,-205.73 471.64,-161.53 442.71,-138.13"/>
<polygon fill="midnightblue" stroke="midnightblue" points="444.6,-135.16 434.62,-131.59 440.2,-140.6 444.6,-135.16"/>
</g>
<!-- Node11 -->
<g id="node11" class="node">
<title>Node11</title>
<g id="a_node11"><a xlink:href="element_8hpp.html" target="_top" xlink:title=" ">
<polygon fill="none" stroke="black" points="518.5,-168.5 518.5,-187.5 611.5,-187.5 611.5,-168.5 518.5,-168.5"/>
<text text-anchor="middle" x="565" y="-175.5" font-family="Helvetica,sans-Serif" font-size="10.00">eltau/element.hpp</text>
</a>
</g>
</g>
<!-- Node9&#45;&gt;Node11 -->
<g id="edge10" class="edge">
<title>Node9&#45;&gt;Node11</title>
<path fill="none" stroke="midnightblue" d="M560.83,-224.08C561.48,-217.01 562.42,-206.86 563.24,-197.99"/>
<polygon fill="midnightblue" stroke="midnightblue" points="566.75,-198.03 564.19,-187.75 559.78,-197.39 566.75,-198.03"/>
</g>
<!-- Node15 -->
<g id="node15" class="node">
<title>Node15</title>
<g id="a_node15"><a xlink:href="screen_8hpp.html" target="_top" xlink:title=" ">
<polygon fill="none" stroke="black" points="684,-112.5 684,-131.5 772,-131.5 772,-112.5 684,-112.5"/>
<text text-anchor="middle" x="728" y="-119.5" font-family="Helvetica,sans-Serif" font-size="10.00">eltau/screen.hpp</text>
</a>
</g>
</g>
<!-- Node9&#45;&gt;Node15 -->
<g id="edge21" class="edge">
<title>Node9&#45;&gt;Node15</title>
<path fill="none" stroke="midnightblue" d="M573.18,-224.37C602.01,-205.49 670.9,-160.38 706.26,-137.24"/>
<polygon fill="midnightblue" stroke="midnightblue" points="708.43,-140 714.88,-131.59 704.6,-134.14 708.43,-140"/>
</g>
<!-- Node11&#45;&gt;Node10 -->
<g id="edge12" class="edge">
<title>Node11&#45;&gt;Node10</title>
<path fill="none" stroke="midnightblue" d="M542.66,-168.44C519.25,-159.48 482.26,-145.31 455.81,-135.18"/>
<polygon fill="midnightblue" stroke="midnightblue" points="456.83,-131.82 446.24,-131.52 454.32,-138.36 456.83,-131.82"/>
</g>
<!-- Node12 -->
<g id="node12" class="node">
<title>Node12</title>
<g id="a_node12"><a xlink:title=" ">
<polygon fill="none" stroke="#bfbfbf" points="467.5,-112.5 467.5,-131.5 526.5,-131.5 526.5,-112.5 467.5,-112.5"/>
<text text-anchor="middle" x="497" y="-119.5" font-family="Helvetica,sans-Serif" font-size="10.00">functional</text>
</a>
</g>
</g>
<!-- Node11&#45;&gt;Node12 -->
<g id="edge11" class="edge">
<title>Node11&#45;&gt;Node12</title>
<path fill="none" stroke="midnightblue" d="M554.07,-168.32C543.83,-160.18 528.28,-147.84 516,-138.09"/>
<polygon fill="midnightblue" stroke="midnightblue" points="518.13,-135.31 508.12,-131.83 513.78,-140.79 518.13,-135.31"/>
</g>
<!-- Node13 -->
<g id="node13" class="node">
<title>Node13</title>
<g id="a_node13"><a xlink:title=" ">
<polygon fill="none" stroke="#bfbfbf" points="544.5,-112.5 544.5,-131.5 585.5,-131.5 585.5,-112.5 544.5,-112.5"/>
<text text-anchor="middle" x="565" y="-119.5" font-family="Helvetica,sans-Serif" font-size="10.00">string</text>
</a>
</g>
</g>
<!-- Node11&#45;&gt;Node13 -->
<g id="edge13" class="edge">
<title>Node11&#45;&gt;Node13</title>
<path fill="none" stroke="midnightblue" d="M565,-168.08C565,-161.01 565,-150.86 565,-141.99"/>
<polygon fill="midnightblue" stroke="midnightblue" points="568.5,-141.75 565,-131.75 561.5,-141.75 568.5,-141.75"/>
</g>
<!-- Node14 -->
<g id="node14" class="node">
<title>Node14</title>
<g id="a_node14"><a xlink:title=" ">
<polygon fill="none" stroke="#bfbfbf" points="604,-112.5 604,-131.5 666,-131.5 666,-112.5 604,-112.5"/>
<text text-anchor="middle" x="635" y="-119.5" font-family="Helvetica,sans-Serif" font-size="10.00">type_traits</text>
</a>
</g>
</g>
<!-- Node11&#45;&gt;Node14 -->
<g id="edge14" class="edge">
<title>Node11&#45;&gt;Node14</title>
<path fill="none" stroke="midnightblue" d="M576.25,-168.32C586.8,-160.18 602.8,-147.84 615.44,-138.09"/>
<polygon fill="midnightblue" stroke="midnightblue" points="617.77,-140.71 623.55,-131.83 613.49,-135.17 617.77,-140.71"/>
</g>
<!-- Node11&#45;&gt;Node15 -->
<g id="edge15" class="edge">
<title>Node11&#45;&gt;Node15</title>
<path fill="none" stroke="midnightblue" d="M590.83,-168.44C618.25,-159.36 661.78,-144.94 692.43,-134.78"/>
<polygon fill="midnightblue" stroke="midnightblue" points="693.9,-137.98 702.29,-131.52 691.7,-131.34 693.9,-137.98"/>
</g>
<!-- Node16 -->
<g id="node16" class="node">
<title>Node16</title>
<g id="a_node16"><a xlink:title=" ">
<polygon fill="none" stroke="#bfbfbf" points="662,-56.5 662,-75.5 700,-75.5 700,-56.5 662,-56.5"/>
<text text-anchor="middle" x="681" y="-63.5" font-family="Helvetica,sans-Serif" font-size="10.00">array</text>
</a>
</g>
</g>
<!-- Node15&#45;&gt;Node16 -->
<g id="edge16" class="edge">
<title>Node15&#45;&gt;Node16</title>
<path fill="none" stroke="midnightblue" d="M720.24,-112.08C713.46,-104.3 703.46,-92.8 695.24,-83.37"/>
<polygon fill="midnightblue" stroke="midnightblue" points="697.82,-81 688.62,-75.75 692.54,-85.59 697.82,-81"/>
</g>
<!-- Node17 -->
<g id="node17" class="node">
<title>Node17</title>
<g id="a_node17"><a xlink:title=" ">
<polygon fill="none" stroke="#bfbfbf" points="708,-0.5 708,-19.5 754,-19.5 754,-0.5 708,-0.5"/>
<text text-anchor="middle" x="731" y="-7.5" font-family="Helvetica,sans-Serif" font-size="10.00">cstdint</text>
</a>
</g>
</g>
<!-- Node15&#45;&gt;Node17 -->
<g id="edge17" class="edge">
<title>Node15&#45;&gt;Node17</title>
<path fill="none" stroke="midnightblue" d="M728.24,-112.37C728.72,-94.62 729.84,-53.67 730.49,-29.6"/>
<polygon fill="midnightblue" stroke="midnightblue" points="733.99,-29.68 730.77,-19.59 726.99,-29.49 733.99,-29.68"/>
</g>
<!-- Node18 -->
<g id="node18" class="node">
<title>Node18</title>
<g id="a_node18"><a xlink:href="coords_8hpp.html" target="_top" xlink:title=" ">
<polygon fill="none" stroke="black" points="756,-56.5 756,-75.5 844,-75.5 844,-56.5 756,-56.5"/>
<text text-anchor="middle" x="800" y="-63.5" font-family="Helvetica,sans-Serif" font-size="10.00">eltau/coords.hpp</text>
</a>
</g>
</g>
<!-- Node15&#45;&gt;Node18 -->
<g id="edge18" class="edge">
<title>Node15&#45;&gt;Node18</title>
<path fill="none" stroke="midnightblue" d="M739.57,-112.32C750.42,-104.18 766.88,-91.84 779.88,-82.09"/>
<polygon fill="midnightblue" stroke="midnightblue" points="782.32,-84.63 788.22,-75.83 778.12,-79.03 782.32,-84.63"/>
</g>
<!-- Node18&#45;&gt;Node17 -->
<g id="edge19" class="edge">
<title>Node18&#45;&gt;Node17</title>
<path fill="none" stroke="midnightblue" d="M788.91,-56.32C778.51,-48.18 762.74,-35.84 750.28,-26.09"/>
<polygon fill="midnightblue" stroke="midnightblue" points="752.32,-23.24 742.29,-19.83 748.01,-28.75 752.32,-23.24"/>
</g>
<!-- Node19 -->
<g id="node19" class="node">
<title>Node19</title>
<g id="a_node19"><a xlink:title=" ">
<polygon fill="none" stroke="#bfbfbf" points="774,-0.5 774,-19.5 826,-19.5 826,-0.5 774,-0.5"/>
<text text-anchor="middle" x="800" y="-7.5" font-family="Helvetica,sans-Serif" font-size="10.00">ostream</text>
</a>
</g>
</g>
<!-- Node18&#45;&gt;Node19 -->
<g id="edge20" class="edge">
<title>Node18&#45;&gt;Node19</title>
<path fill="none" stroke="midnightblue" d="M800,-56.08C800,-49.01 800,-38.86 800,-29.99"/>
<polygon fill="midnightblue" stroke="midnightblue" points="803.5,-29.75 800,-19.75 796.5,-29.75 803.5,-29.75"/>
</g>
</g>
</svg>
