<?xml version="1.0" encoding="UTF-8" standalone="no"?>
<!DOCTYPE svg PUBLIC "-//W3C//DTD SVG 1.1//EN"
 "http://www.w3.org/Graphics/SVG/1.1/DTD/svg11.dtd">
<!-- Generated by graphviz version 2.47.1 (20210515.0534)
 -->
<!-- Title: src/terminal.cpp Pages: 1 -->
<svg width="880pt" height="252pt"
 viewBox="0.00 0.00 880.00 252.00" xmlns="http://www.w3.org/2000/svg" xmlns:xlink="http://www.w3.org/1999/xlink">
<g id="graph0" class="graph" transform="scale(1 1) rotate(0) translate(4 248)">
<title>src/terminal.cpp</title>
<!-- Node1 -->
<g id="node1" class="node">
<title>Node1</title>
<g id="a_node1"><a xlink:title=" ">
<polygon fill="#bfbfbf" stroke="black" points="229,-224.5 229,-243.5 315,-243.5 315,-224.5 229,-224.5"/>
<text text-anchor="middle" x="272" y="-231.5" font-family="Helvetica,sans-Serif" font-size="10.00">src/terminal.cpp</text>
</a>
</g>
</g>
<!-- Node2 -->
<g id="node2" class="node">
<title>Node2</title>
<g id="a_node2"><a xlink:title=" ">
<polygon fill="none" stroke="#bfbfbf" points="0,-168.5 0,-187.5 60,-187.5 60,-168.5 0,-168.5"/>
<text text-anchor="middle" x="30" y="-175.5" font-family="Helvetica,sans-Serif" font-size="10.00">fmt/core.h</text>
</a>
</g>
</g>
<!-- Node1&#45;&gt;Node2 -->
<g id="edge1" class="edge">
<title>Node1&#45;&gt;Node2</title>
<path fill="none" stroke="midnightblue" d="M233.06,-224.47C194.26,-215.95 132.69,-202.37 70.25,-188.27"/>
<polygon fill="midnightblue" stroke="midnightblue" points="70.75,-184.79 60.23,-186 69.21,-191.62 70.75,-184.79"/>
</g>
<!-- Node3 -->
<g id="node3" class="node">
<title>Node3</title>
<g id="a_node3"><a xlink:title=" ">
<polygon fill="none" stroke="#bfbfbf" points="78.5,-168.5 78.5,-187.5 147.5,-187.5 147.5,-168.5 78.5,-168.5"/>
<text text-anchor="middle" x="113" y="-175.5" font-family="Helvetica,sans-Serif" font-size="10.00">fmt/format.h</text>
</a>
</g>
</g>
<!-- Node1&#45;&gt;Node3 -->
<g id="edge2" class="edge">
<title>Node1&#45;&gt;Node3</title>
<path fill="none" stroke="midnightblue" d="M246.81,-224.44C220.06,-215.36 177.6,-200.94 147.69,-190.78"/>
<polygon fill="midnightblue" stroke="midnightblue" points="148.67,-187.42 138.08,-187.52 146.42,-194.05 148.67,-187.42"/>
</g>
<!-- Node4 -->
<g id="node4" class="node">
<title>Node4</title>
<g id="a_node4"><a xlink:title=" ">
<polygon fill="none" stroke="#bfbfbf" points="166,-168.5 166,-187.5 226,-187.5 226,-168.5 166,-168.5"/>
<text text-anchor="middle" x="196" y="-175.5" font-family="Helvetica,sans-Serif" font-size="10.00">sys/ioctl.h</text>
</a>
</g>
</g>
<!-- Node1&#45;&gt;Node4 -->
<g id="edge3" class="edge">
<title>Node1&#45;&gt;Node4</title>
<path fill="none" stroke="midnightblue" d="M259.79,-224.32C248.22,-216.11 230.62,-203.6 216.84,-193.81"/>
<polygon fill="midnightblue" stroke="midnightblue" points="218.61,-190.77 208.43,-187.83 214.56,-196.48 218.61,-190.77"/>
</g>
<!-- Node5 -->
<g id="node5" class="node">
<title>Node5</title>
<g id="a_node5"><a xlink:title=" ">
<polygon fill="none" stroke="#bfbfbf" points="244,-168.5 244,-187.5 300,-187.5 300,-168.5 244,-168.5"/>
<text text-anchor="middle" x="272" y="-175.5" font-family="Helvetica,sans-Serif" font-size="10.00">termios.h</text>
</a>
</g>
</g>
<!-- Node1&#45;&gt;Node5 -->
<g id="edge4" class="edge">
<title>Node1&#45;&gt;Node5</title>
<path fill="none" stroke="midnightblue" d="M272,-224.08C272,-217.01 272,-206.86 272,-197.99"/>
<polygon fill="midnightblue" stroke="midnightblue" points="275.5,-197.75 272,-187.75 268.5,-197.75 275.5,-197.75"/>
</g>
<!-- Node6 -->
<g id="node6" class="node">
<title>Node6</title>
<g id="a_node6"><a xlink:title=" ">
<polygon fill="none" stroke="#bfbfbf" points="318,-168.5 318,-187.5 368,-187.5 368,-168.5 318,-168.5"/>
<text text-anchor="middle" x="343" y="-175.5" font-family="Helvetica,sans-Serif" font-size="10.00">unistd.h</text>
</a>
</g>
</g>
<!-- Node1&#45;&gt;Node6 -->
<g id="edge5" class="edge">
<title>Node1&#45;&gt;Node6</title>
<path fill="none" stroke="midnightblue" d="M283.41,-224.32C294.11,-216.18 310.34,-203.84 323.16,-194.09"/>
<polygon fill="midnightblue" stroke="midnightblue" points="325.54,-196.67 331.39,-187.83 321.31,-191.1 325.54,-196.67"/>
</g>
<!-- Node7 -->
<g id="node7" class="node">
<title>Node7</title>
<g id="a_node7"><a xlink:href="exception_8hpp.html" target="_top" xlink:title=" ">
<polygon fill="none" stroke="black" points="386,-168.5 386,-187.5 486,-187.5 486,-168.5 386,-168.5"/>
<text text-anchor="middle" x="436" y="-175.5" font-family="Helvetica,sans-Serif" font-size="10.00">eltau/exception.hpp</text>
</a>
</g>
</g>
<!-- Node1&#45;&gt;Node7 -->
<g id="edge6" class="edge">
<title>Node1&#45;&gt;Node7</title>
<path fill="none" stroke="midnightblue" d="M297.99,-224.44C325.7,-215.32 369.75,-200.81 400.62,-190.65"/>
<polygon fill="midnightblue" stroke="midnightblue" points="401.73,-193.97 410.14,-187.52 399.54,-187.32 401.73,-193.97"/>
</g>
<!-- Node9 -->
<g id="node9" class="node">
<title>Node9</title>
<g id="a_node9"><a xlink:href="terminal_8hpp.html" target="_top" xlink:title=" ">
<polygon fill="none" stroke="black" points="513.5,-168.5 513.5,-187.5 606.5,-187.5 606.5,-168.5 513.5,-168.5"/>
<text text-anchor="middle" x="560" y="-175.5" font-family="Helvetica,sans-Serif" font-size="10.00">eltau/terminal.hpp</text>
</a>
</g>
</g>
<!-- Node1&#45;&gt;Node9 -->
<g id="edge8" class="edge">
<title>Node1&#45;&gt;Node9</title>
<path fill="none" stroke="midnightblue" d="M315.12,-224.92C365.49,-215.47 448.96,-199.82 504.23,-189.46"/>
<polygon fill="midnightblue" stroke="midnightblue" points="505.02,-192.87 514.21,-187.59 503.73,-185.99 505.02,-192.87"/>
</g>
<!-- Node8 -->
<g id="node8" class="node">
<title>Node8</title>
<g id="a_node8"><a xlink:title=" ">
<polygon fill="none" stroke="#bfbfbf" points="402.5,-112.5 402.5,-131.5 461.5,-131.5 461.5,-112.5 402.5,-112.5"/>
<text text-anchor="middle" x="432" y="-119.5" font-family="Helvetica,sans-Serif" font-size="10.00">stdexcept</text>
</a>
</g>
</g>
<!-- Node7&#45;&gt;Node8 -->
<g id="edge7" class="edge">
<title>Node7&#45;&gt;Node8</title>
<path fill="none" stroke="midnightblue" d="M435.34,-168.08C434.82,-161.01 434.06,-150.86 433.41,-141.99"/>
<polygon fill="midnightblue" stroke="midnightblue" points="436.88,-141.47 432.65,-131.75 429.9,-141.98 436.88,-141.47"/>
</g>
<!-- Node10 -->
<g id="node10" class="node">
<title>Node10</title>
<g id="a_node10"><a xlink:title=" ">
<polygon fill="none" stroke="#bfbfbf" points="398.5,-56.5 398.5,-75.5 449.5,-75.5 449.5,-56.5 398.5,-56.5"/>
<text text-anchor="middle" x="424" y="-63.5" font-family="Helvetica,sans-Serif" font-size="10.00">memory</text>
</a>
</g>
</g>
<!-- Node9&#45;&gt;Node10 -->
<g id="edge9" class="edge">
<title>Node9&#45;&gt;Node10</title>
<path fill="none" stroke="midnightblue" d="M549.33,-168.37C526.29,-149.73 471.64,-105.53 442.71,-82.13"/>
<polygon fill="midnightblue" stroke="midnightblue" points="444.6,-79.16 434.62,-75.59 440.2,-84.6 444.6,-79.16"/>
</g>
<!-- Node11 -->
<g id="node11" class="node">
<title>Node11</title>
<g id="a_node11"><a xlink:href="element_8hpp.html" target="_top" xlink:title=" ">
<polygon fill="none" stroke="black" points="518.5,-112.5 518.5,-131.5 611.5,-131.5 611.5,-112.5 518.5,-112.5"/>
<text text-anchor="middle" x="565" y="-119.5" font-family="Helvetica,sans-Serif" font-size="10.00">eltau/element.hpp</text>
</a>
</g>
</g>
<!-- Node9&#45;&gt;Node11 -->
<g id="edge10" class="edge">
<title>Node9&#45;&gt;Node11</title>
<path fill="none" stroke="midnightblue" d="M560.83,-168.08C561.48,-161.01 562.42,-150.86 563.24,-141.99"/>
<polygon fill="midnightblue" stroke="midnightblue" points="566.75,-142.03 564.19,-131.75 559.78,-141.39 566.75,-142.03"/>
</g>
<!-- Node15 -->
<g id="node15" class="node">
<title>Node15</title>
<g id="a_node15"><a xlink:href="screen_8hpp.html" target="_top" xlink:title=" ">
<polygon fill="none" stroke="black" points="684,-56.5 684,-75.5 772,-75.5 772,-56.5 684,-56.5"/>
<text text-anchor="middle" x="728" y="-63.5" font-family="Helvetica,sans-Serif" font-size="10.00">eltau/screen.hpp</text>
</a>
</g>
</g>
<!-- Node9&#45;&gt;Node15 -->
<g id="edge21" class="edge">
<title>Node9&#45;&gt;Node15</title>
<path fill="none" stroke="midnightblue" d="M573.18,-168.37C602.01,-149.49 670.9,-104.38 706.26,-81.24"/>
<polygon fill="midnightblue" stroke="midnightblue" points="708.43,-84 714.88,-75.59 704.6,-78.14 708.43,-84"/>
</g>
<!-- Node11&#45;&gt;Node10 -->
<g id="edge12" class="edge">
<title>Node11&#45;&gt;Node10</title>
<path fill="none" stroke="midnightblue" d="M542.66,-112.44C519.25,-103.48 482.26,-89.31 455.81,-79.18"/>
<polygon fill="midnightblue" stroke="midnightblue" points="456.83,-75.82 446.24,-75.52 454.32,-82.36 456.83,-75.82"/>
</g>
<!-- Node12 -->
<g id="node12" class="node">
<title>Node12</title>
<g id="a_node12"><a xlink:title=" ">
<polygon fill="none" stroke="#bfbfbf" points="467.5,-56.5 467.5,-75.5 526.5,-75.5 526.5,-56.5 467.5,-56.5"/>
<text text-anchor="middle" x="497" y="-63.5" font-family="Helvetica,sans-Serif" font-size="10.00">functional</text>
</a>
</g>
</g>
<!-- Node11&#45;&gt;Node12 -->
<g id="edge11" class="edge">
<title>Node11&#45;&gt;Node12</title>
<path fill="none" stroke="midnightblue" d="M554.07,-112.32C543.83,-104.18 528.28,-91.84 516,-82.09"/>
<polygon fill="midnightblue" stroke="midnightblue" points="518.13,-79.31 508.12,-75.83 513.78,-84.79 518.13,-79.31"/>
</g>
<!-- Node13 -->
<g id="node13" class="node">
<title>Node13</title>
<g id="a_node13"><a xlink:title=" ">
<polygon fill="none" stroke="#bfbfbf" points="544.5,-56.5 544.5,-75.5 585.5,-75.5 585.5,-56.5 544.5,-56.5"/>
<text text-anchor="middle" x="565" y="-63.5" font-family="Helvetica,sans-Serif" font-size="10.00">string</text>
</a>
</g>
</g>
<!-- Node11&#45;&gt;Node13 -->
<g id="edge13" class="edge">
<title>Node11&#45;&gt;Node13</title>
<path fill="none" stroke="midnightblue" d="M565,-112.08C565,-105.01 565,-94.86 565,-85.99"/>
<polygon fill="midnightblue" stroke="midnightblue" points="568.5,-85.75 565,-75.75 561.5,-85.75 568.5,-85.75"/>
</g>
<!-- Node14 -->
<g id="node14" class="node">
<title>Node14</title>
<g id="a_node14"><a xlink:title=" ">
<polygon fill="none" stroke="#bfbfbf" points="604,-56.5 604,-75.5 666,-75.5 666,-56.5 604,-56.5"/>
<text text-anchor="middle" x="635" y="-63.5" font-family="Helvetica,sans-Serif" font-size="10.00">type_traits</text>
</a>
</g>
</g>
<!-- Node11&#45;&gt;Node14 -->
<g id="edge14" class="edge">
<title>Node11&#45;&gt;Node14</title>
<path fill="none" stroke="midnightblue" d="M576.25,-112.32C586.8,-104.18 602.8,-91.84 615.44,-82.09"/>
<polygon fill="midnightblue" stroke="midnightblue" points="617.77,-84.71 623.55,-75.83 613.49,-79.17 617.77,-84.71"/>
</g>
<!-- Node11&#45;&gt;Node15 -->
<g id="edge15" class="edge">
<title>Node11&#45;&gt;Node15</title>
<path fill="none" stroke="midnightblue" d="M590.83,-112.44C618.25,-103.36 661.78,-88.94 692.43,-78.78"/>
<polygon fill="midnightblue" stroke="midnightblue" points="693.9,-81.98 702.29,-75.52 691.7,-75.34 693.9,-81.98"/>
</g>
<!-- Node16 -->
<g id="node16" class="node">
<title>Node16</title>
<g id="a_node16"><a xlink:title=" ">
<polygon fill="none" stroke="#bfbfbf" points="582,-0.5 582,-19.5 620,-19.5 620,-0.5 582,-0.5"/>
<text text-anchor="middle" x="601" y="-7.5" font-family="Helvetica,sans-Serif" font-size="10.00">array</text>
</a>
</g>
</g>
<!-- Node15&#45;&gt;Node16 -->
<g id="edge16" class="edge">
<title>Node15&#45;&gt;Node16</title>
<path fill="none" stroke="midnightblue" d="M707.88,-56.44C686.73,-47.45 653.29,-33.23 629.45,-23.1"/>
<polygon fill="midnightblue" stroke="midnightblue" points="630.77,-19.86 620.2,-19.16 628.03,-26.3 630.77,-19.86"/>
</g>
<!-- Node17 -->
<g id="node17" class="node">
<title>Node17</title>
<g id="a_node17"><a xlink:title=" ">
<polygon fill="none" stroke="#bfbfbf" points="638,-0.5 638,-19.5 684,-19.5 684,-0.5 638,-0.5"/>
<text text-anchor="middle" x="661" y="-7.5" font-family="Helvetica,sans-Serif" font-size="10.00">cstdint</text>
</a>
</g>
</g>
<!-- Node15&#45;&gt;Node17 -->
<g id="edge17" class="edge">
<title>Node15&#45;&gt;Node17</title>
<path fill="none" stroke="midnightblue" d="M717.24,-56.32C707.23,-48.26 692.11,-36.08 680.07,-26.37"/>
<polygon fill="midnightblue" stroke="midnightblue" points="681.94,-23.38 671.96,-19.83 677.55,-28.83 681.94,-23.38"/>
</g>
<!-- Node18 -->
<g id="node18" class="node">
<title>Node18</title>
<g id="a_node18"><a xlink:title=" ">
<polygon fill="none" stroke="#bfbfbf" points="702,-0.5 702,-19.5 754,-19.5 754,-0.5 702,-0.5"/>
<text text-anchor="middle" x="728" y="-7.5" font-family="Helvetica,sans-Serif" font-size="10.00">ostream</text>
</a>
</g>
</g>
<!-- Node15&#45;&gt;Node18 -->
<g id="edge18" class="edge">
<title>Node15&#45;&gt;Node18</title>
<path fill="none" stroke="midnightblue" d="M728,-56.08C728,-49.01 728,-38.86 728,-29.99"/>
<polygon fill="midnightblue" stroke="midnightblue" points="731.5,-29.75 728,-19.75 724.5,-29.75 731.5,-29.75"/>
</g>
<!-- Node19 -->
<g id="node19" class="node">
<title>Node19</title>
<g id="a_node19"><a xlink:title=" ">
<polygon fill="none" stroke="#bfbfbf" points="772,-0.5 772,-19.5 810,-19.5 810,-0.5 772,-0.5"/>
<text text-anchor="middle" x="791" y="-7.5" font-family="Helvetica,sans-Serif" font-size="10.00">span</text>
</a>
</g>
</g>
<!-- Node15&#45;&gt;Node19 -->
<g id="edge19" class="edge">
<title>Node15&#45;&gt;Node19</title>
<path fill="none" stroke="midnightblue" d="M738.12,-56.32C747.53,-48.26 761.74,-36.08 773.07,-26.37"/>
<polygon fill="midnightblue" stroke="midnightblue" points="775.38,-29 780.69,-19.83 770.82,-23.68 775.38,-29"/>
</g>
<!-- Node20 -->
<g id="node20" class="node">
<title>Node20</title>
<g id="a_node20"><a xlink:title=" ">
<polygon fill="none" stroke="#bfbfbf" points="828,-0.5 828,-19.5 872,-19.5 872,-0.5 828,-0.5"/>
<text text-anchor="middle" x="850" y="-7.5" font-family="Helvetica,sans-Serif" font-size="10.00">vector</text>
</a>
</g>
</g>
<!-- Node15&#45;&gt;Node20 -->
<g id="edge20" class="edge">
<title>Node15&#45;&gt;Node20</title>
<path fill="none" stroke="midnightblue" d="M747.33,-56.44C767.32,-47.6 798.74,-33.69 821.56,-23.59"/>
<polygon fill="midnightblue" stroke="midnightblue" points="823.03,-26.76 830.76,-19.52 820.2,-20.36 823.03,-26.76"/>
</g>
</g>
</svg>
