<?xml version="1.0" encoding="UTF-8" standalone="no"?>
<!DOCTYPE svg PUBLIC "-//W3C//DTD SVG 1.1//EN"
 "http://www.w3.org/Graphics/SVG/1.1/DTD/svg11.dtd">
<!-- Generated by graphviz version 2.47.1 (20210515.0534)
 -->
<!-- Title: src/terminal.cpp Pages: 1 -->
<svg width="651pt" height="252pt"
 viewBox="0.00 0.00 651.00 252.00" xmlns="http://www.w3.org/2000/svg" xmlns:xlink="http://www.w3.org/1999/xlink">
<g id="graph0" class="graph" transform="scale(1 1) rotate(0) translate(4 248)">
<title>src/terminal.cpp</title>
<!-- Node1 -->
<g id="node1" class="node">
<title>Node1</title>
<g id="a_node1"><a xlink:title=" ">
<polygon fill="#bfbfbf" stroke="black" points="212,-224.5 212,-243.5 298,-243.5 298,-224.5 212,-224.5"/>
<text text-anchor="middle" x="255" y="-231.5" font-family="Helvetica,sans-Serif" font-size="10.00">src/terminal.cpp</text>
</a>
</g>
</g>
<!-- Node2 -->
<g id="node2" class="node">
<title>Node2</title>
<g id="a_node2"><a xlink:title=" ">
<polygon fill="none" stroke="#bfbfbf" points="0,-168.5 0,-187.5 60,-187.5 60,-168.5 0,-168.5"/>
<text text-anchor="middle" x="30" y="-175.5" font-family="Helvetica,sans-Serif" font-size="10.00">fmt/core.h</text>
</a>
</g>
</g>
<!-- Node1&#45;&gt;Node2 -->
<g id="edge1" class="edge">
<title>Node1&#45;&gt;Node2</title>
<path fill="none" stroke="midnightblue" d="M219.35,-224.44C178.71,-214.69 112.44,-198.79 70.05,-188.61"/>
<polygon fill="midnightblue" stroke="midnightblue" points="70.63,-185.15 60.08,-186.22 68.99,-191.96 70.63,-185.15"/>
</g>
<!-- Node3 -->
<g id="node3" class="node">
<title>Node3</title>
<g id="a_node3"><a xlink:title=" ">
<polygon fill="none" stroke="#bfbfbf" points="78,-168.5 78,-187.5 138,-187.5 138,-168.5 78,-168.5"/>
<text text-anchor="middle" x="108" y="-175.5" font-family="Helvetica,sans-Serif" font-size="10.00">sys/ioctl.h</text>
</a>
</g>
</g>
<!-- Node1&#45;&gt;Node3 -->
<g id="edge2" class="edge">
<title>Node1&#45;&gt;Node3</title>
<path fill="none" stroke="midnightblue" d="M231.71,-224.44C207.19,-215.44 168.4,-201.19 140.8,-191.05"/>
<polygon fill="midnightblue" stroke="midnightblue" points="141.78,-187.68 131.18,-187.52 139.36,-194.25 141.78,-187.68"/>
</g>
<!-- Node4 -->
<g id="node4" class="node">
<title>Node4</title>
<g id="a_node4"><a xlink:title=" ">
<polygon fill="none" stroke="#bfbfbf" points="156,-168.5 156,-187.5 212,-187.5 212,-168.5 156,-168.5"/>
<text text-anchor="middle" x="184" y="-175.5" font-family="Helvetica,sans-Serif" font-size="10.00">termios.h</text>
</a>
</g>
</g>
<!-- Node1&#45;&gt;Node4 -->
<g id="edge3" class="edge">
<title>Node1&#45;&gt;Node4</title>
<path fill="none" stroke="midnightblue" d="M243.59,-224.32C232.89,-216.18 216.66,-203.84 203.84,-194.09"/>
<polygon fill="midnightblue" stroke="midnightblue" points="205.69,-191.1 195.61,-187.83 201.46,-196.67 205.69,-191.1"/>
</g>
<!-- Node5 -->
<g id="node5" class="node">
<title>Node5</title>
<g id="a_node5"><a xlink:title=" ">
<polygon fill="none" stroke="#bfbfbf" points="230,-168.5 230,-187.5 280,-187.5 280,-168.5 230,-168.5"/>
<text text-anchor="middle" x="255" y="-175.5" font-family="Helvetica,sans-Serif" font-size="10.00">unistd.h</text>
</a>
</g>
</g>
<!-- Node1&#45;&gt;Node5 -->
<g id="edge4" class="edge">
<title>Node1&#45;&gt;Node5</title>
<path fill="none" stroke="midnightblue" d="M255,-224.08C255,-217.01 255,-206.86 255,-197.99"/>
<polygon fill="midnightblue" stroke="midnightblue" points="258.5,-197.75 255,-187.75 251.5,-197.75 258.5,-197.75"/>
</g>
<!-- Node6 -->
<g id="node6" class="node">
<title>Node6</title>
<g id="a_node6"><a xlink:href="terminal_8hpp.html" target="_top" xlink:title=" ">
<polygon fill="none" stroke="black" points="298.5,-168.5 298.5,-187.5 391.5,-187.5 391.5,-168.5 298.5,-168.5"/>
<text text-anchor="middle" x="345" y="-175.5" font-family="Helvetica,sans-Serif" font-size="10.00">eltau/terminal.hpp</text>
</a>
</g>
</g>
<!-- Node1&#45;&gt;Node6 -->
<g id="edge5" class="edge">
<title>Node1&#45;&gt;Node6</title>
<path fill="none" stroke="midnightblue" d="M269.46,-224.32C283.5,-215.9 305.05,-202.97 321.54,-193.07"/>
<polygon fill="midnightblue" stroke="midnightblue" points="323.8,-195.8 330.58,-187.65 320.2,-189.8 323.8,-195.8"/>
</g>
<!-- Node18 -->
<g id="node18" class="node">
<title>Node18</title>
<g id="a_node18"><a xlink:href="exception_8hpp.html" target="_top" xlink:title=" ">
<polygon fill="none" stroke="black" points="410,-168.5 410,-187.5 510,-187.5 510,-168.5 410,-168.5"/>
<text text-anchor="middle" x="460" y="-175.5" font-family="Helvetica,sans-Serif" font-size="10.00">eltau/exception.hpp</text>
</a>
</g>
</g>
<!-- Node1&#45;&gt;Node18 -->
<g id="edge19" class="edge">
<title>Node1&#45;&gt;Node18</title>
<path fill="none" stroke="midnightblue" d="M287.48,-224.44C322.72,-215.16 379.1,-200.31 417.76,-190.13"/>
<polygon fill="midnightblue" stroke="midnightblue" points="418.89,-193.45 427.67,-187.52 417.11,-186.68 418.89,-193.45"/>
</g>
<!-- Node20 -->
<g id="node20" class="node">
<title>Node20</title>
<g id="a_node20"><a xlink:title=" ">
<polygon fill="none" stroke="#bfbfbf" points="528.5,-168.5 528.5,-187.5 597.5,-187.5 597.5,-168.5 528.5,-168.5"/>
<text text-anchor="middle" x="563" y="-175.5" font-family="Helvetica,sans-Serif" font-size="10.00">fmt/format.h</text>
</a>
</g>
</g>
<!-- Node1&#45;&gt;Node20 -->
<g id="edge21" class="edge">
<title>Node1&#45;&gt;Node20</title>
<path fill="none" stroke="midnightblue" d="M298.06,-226.11C348.39,-217.95 434.44,-203.7 518.47,-188.05"/>
<polygon fill="midnightblue" stroke="midnightblue" points="519.25,-191.46 528.43,-186.18 517.96,-184.58 519.25,-191.46"/>
</g>
<!-- Node7 -->
<g id="node7" class="node">
<title>Node7</title>
<g id="a_node7"><a xlink:title=" ">
<polygon fill="none" stroke="#bfbfbf" points="169.5,-56.5 169.5,-75.5 220.5,-75.5 220.5,-56.5 169.5,-56.5"/>
<text text-anchor="middle" x="195" y="-63.5" font-family="Helvetica,sans-Serif" font-size="10.00">memory</text>
</a>
</g>
</g>
<!-- Node6&#45;&gt;Node7 -->
<g id="edge6" class="edge">
<title>Node6&#45;&gt;Node7</title>
<path fill="none" stroke="midnightblue" d="M331.92,-168.21C318.71,-159.27 297.75,-144.92 280,-132 256.98,-115.24 231.05,-95.25 213.95,-81.9"/>
<polygon fill="midnightblue" stroke="midnightblue" points="215.91,-78.99 205.88,-75.58 211.59,-84.5 215.91,-78.99"/>
</g>
<!-- Node8 -->
<g id="node8" class="node">
<title>Node8</title>
<g id="a_node8"><a xlink:href="element_8hpp.html" target="_top" xlink:title=" ">
<polygon fill="none" stroke="black" points="289.5,-112.5 289.5,-131.5 382.5,-131.5 382.5,-112.5 289.5,-112.5"/>
<text text-anchor="middle" x="336" y="-119.5" font-family="Helvetica,sans-Serif" font-size="10.00">eltau/element.hpp</text>
</a>
</g>
</g>
<!-- Node6&#45;&gt;Node8 -->
<g id="edge7" class="edge">
<title>Node6&#45;&gt;Node8</title>
<path fill="none" stroke="midnightblue" d="M343.51,-168.08C342.32,-160.93 340.61,-150.64 339.12,-141.69"/>
<polygon fill="midnightblue" stroke="midnightblue" points="342.55,-141.04 337.46,-131.75 335.65,-142.19 342.55,-141.04"/>
</g>
<!-- Node12 -->
<g id="node12" class="node">
<title>Node12</title>
<g id="a_node12"><a xlink:href="screen_8hpp.html" target="_top" xlink:title=" ">
<polygon fill="none" stroke="black" points="455,-56.5 455,-75.5 543,-75.5 543,-56.5 455,-56.5"/>
<text text-anchor="middle" x="499" y="-63.5" font-family="Helvetica,sans-Serif" font-size="10.00">eltau/screen.hpp</text>
</a>
</g>
</g>
<!-- Node6&#45;&gt;Node12 -->
<g id="edge18" class="edge">
<title>Node6&#45;&gt;Node12</title>
<path fill="none" stroke="midnightblue" d="M355.97,-168.36C372.16,-155.69 403.5,-131.46 431,-112 446.12,-101.3 463.54,-89.79 476.96,-81.08"/>
<polygon fill="midnightblue" stroke="midnightblue" points="479.04,-83.91 485.54,-75.55 475.24,-78.03 479.04,-83.91"/>
</g>
<!-- Node8&#45;&gt;Node7 -->
<g id="edge9" class="edge">
<title>Node8&#45;&gt;Node7</title>
<path fill="none" stroke="midnightblue" d="M313.66,-112.44C290.25,-103.48 253.26,-89.31 226.81,-79.18"/>
<polygon fill="midnightblue" stroke="midnightblue" points="227.83,-75.82 217.24,-75.52 225.32,-82.36 227.83,-75.82"/>
</g>
<!-- Node9 -->
<g id="node9" class="node">
<title>Node9</title>
<g id="a_node9"><a xlink:title=" ">
<polygon fill="none" stroke="#bfbfbf" points="238.5,-56.5 238.5,-75.5 297.5,-75.5 297.5,-56.5 238.5,-56.5"/>
<text text-anchor="middle" x="268" y="-63.5" font-family="Helvetica,sans-Serif" font-size="10.00">functional</text>
</a>
</g>
</g>
<!-- Node8&#45;&gt;Node9 -->
<g id="edge8" class="edge">
<title>Node8&#45;&gt;Node9</title>
<path fill="none" stroke="midnightblue" d="M325.07,-112.32C314.83,-104.18 299.28,-91.84 287,-82.09"/>
<polygon fill="midnightblue" stroke="midnightblue" points="289.13,-79.31 279.12,-75.83 284.78,-84.79 289.13,-79.31"/>
</g>
<!-- Node10 -->
<g id="node10" class="node">
<title>Node10</title>
<g id="a_node10"><a xlink:title=" ">
<polygon fill="none" stroke="#bfbfbf" points="315.5,-56.5 315.5,-75.5 356.5,-75.5 356.5,-56.5 315.5,-56.5"/>
<text text-anchor="middle" x="336" y="-63.5" font-family="Helvetica,sans-Serif" font-size="10.00">string</text>
</a>
</g>
</g>
<!-- Node8&#45;&gt;Node10 -->
<g id="edge10" class="edge">
<title>Node8&#45;&gt;Node10</title>
<path fill="none" stroke="midnightblue" d="M336,-112.08C336,-105.01 336,-94.86 336,-85.99"/>
<polygon fill="midnightblue" stroke="midnightblue" points="339.5,-85.75 336,-75.75 332.5,-85.75 339.5,-85.75"/>
</g>
<!-- Node11 -->
<g id="node11" class="node">
<title>Node11</title>
<g id="a_node11"><a xlink:title=" ">
<polygon fill="none" stroke="#bfbfbf" points="375,-56.5 375,-75.5 437,-75.5 437,-56.5 375,-56.5"/>
<text text-anchor="middle" x="406" y="-63.5" font-family="Helvetica,sans-Serif" font-size="10.00">type_traits</text>
</a>
</g>
</g>
<!-- Node8&#45;&gt;Node11 -->
<g id="edge11" class="edge">
<title>Node8&#45;&gt;Node11</title>
<path fill="none" stroke="midnightblue" d="M347.25,-112.32C357.8,-104.18 373.8,-91.84 386.44,-82.09"/>
<polygon fill="midnightblue" stroke="midnightblue" points="388.77,-84.71 394.55,-75.83 384.49,-79.17 388.77,-84.71"/>
</g>
<!-- Node8&#45;&gt;Node12 -->
<g id="edge12" class="edge">
<title>Node8&#45;&gt;Node12</title>
<path fill="none" stroke="midnightblue" d="M361.83,-112.44C389.25,-103.36 432.78,-88.94 463.43,-78.78"/>
<polygon fill="midnightblue" stroke="midnightblue" points="464.9,-81.98 473.29,-75.52 462.7,-75.34 464.9,-81.98"/>
</g>
<!-- Node13 -->
<g id="node13" class="node">
<title>Node13</title>
<g id="a_node13"><a xlink:title=" ">
<polygon fill="none" stroke="#bfbfbf" points="353,-0.5 353,-19.5 391,-19.5 391,-0.5 353,-0.5"/>
<text text-anchor="middle" x="372" y="-7.5" font-family="Helvetica,sans-Serif" font-size="10.00">array</text>
</a>
</g>
</g>
<!-- Node12&#45;&gt;Node13 -->
<g id="edge13" class="edge">
<title>Node12&#45;&gt;Node13</title>
<path fill="none" stroke="midnightblue" d="M478.88,-56.44C457.73,-47.45 424.29,-33.23 400.45,-23.1"/>
<polygon fill="midnightblue" stroke="midnightblue" points="401.77,-19.86 391.2,-19.16 399.03,-26.3 401.77,-19.86"/>
</g>
<!-- Node14 -->
<g id="node14" class="node">
<title>Node14</title>
<g id="a_node14"><a xlink:title=" ">
<polygon fill="none" stroke="#bfbfbf" points="409,-0.5 409,-19.5 455,-19.5 455,-0.5 409,-0.5"/>
<text text-anchor="middle" x="432" y="-7.5" font-family="Helvetica,sans-Serif" font-size="10.00">cstdint</text>
</a>
</g>
</g>
<!-- Node12&#45;&gt;Node14 -->
<g id="edge14" class="edge">
<title>Node12&#45;&gt;Node14</title>
<path fill="none" stroke="midnightblue" d="M488.24,-56.32C478.23,-48.26 463.11,-36.08 451.07,-26.37"/>
<polygon fill="midnightblue" stroke="midnightblue" points="452.94,-23.38 442.96,-19.83 448.55,-28.83 452.94,-23.38"/>
</g>
<!-- Node15 -->
<g id="node15" class="node">
<title>Node15</title>
<g id="a_node15"><a xlink:title=" ">
<polygon fill="none" stroke="#bfbfbf" points="473,-0.5 473,-19.5 525,-19.5 525,-0.5 473,-0.5"/>
<text text-anchor="middle" x="499" y="-7.5" font-family="Helvetica,sans-Serif" font-size="10.00">ostream</text>
</a>
</g>
</g>
<!-- Node12&#45;&gt;Node15 -->
<g id="edge15" class="edge">
<title>Node12&#45;&gt;Node15</title>
<path fill="none" stroke="midnightblue" d="M499,-56.08C499,-49.01 499,-38.86 499,-29.99"/>
<polygon fill="midnightblue" stroke="midnightblue" points="502.5,-29.75 499,-19.75 495.5,-29.75 502.5,-29.75"/>
</g>
<!-- Node16 -->
<g id="node16" class="node">
<title>Node16</title>
<g id="a_node16"><a xlink:title=" ">
<polygon fill="none" stroke="#bfbfbf" points="543,-0.5 543,-19.5 581,-19.5 581,-0.5 543,-0.5"/>
<text text-anchor="middle" x="562" y="-7.5" font-family="Helvetica,sans-Serif" font-size="10.00">span</text>
</a>
</g>
</g>
<!-- Node12&#45;&gt;Node16 -->
<g id="edge16" class="edge">
<title>Node12&#45;&gt;Node16</title>
<path fill="none" stroke="midnightblue" d="M509.12,-56.32C518.53,-48.26 532.74,-36.08 544.07,-26.37"/>
<polygon fill="midnightblue" stroke="midnightblue" points="546.38,-29 551.69,-19.83 541.82,-23.68 546.38,-29"/>
</g>
<!-- Node17 -->
<g id="node17" class="node">
<title>Node17</title>
<g id="a_node17"><a xlink:title=" ">
<polygon fill="none" stroke="#bfbfbf" points="599,-0.5 599,-19.5 643,-19.5 643,-0.5 599,-0.5"/>
<text text-anchor="middle" x="621" y="-7.5" font-family="Helvetica,sans-Serif" font-size="10.00">vector</text>
</a>
</g>
</g>
<!-- Node12&#45;&gt;Node17 -->
<g id="edge17" class="edge">
<title>Node12&#45;&gt;Node17</title>
<path fill="none" stroke="midnightblue" d="M518.33,-56.44C538.32,-47.6 569.74,-33.69 592.56,-23.59"/>
<polygon fill="midnightblue" stroke="midnightblue" points="594.03,-26.76 601.76,-19.52 591.2,-20.36 594.03,-26.76"/>
</g>
<!-- Node19 -->
<g id="node19" class="node">
<title>Node19</title>
<g id="a_node19"><a xlink:title=" ">
<polygon fill="none" stroke="#bfbfbf" points="439.5,-112.5 439.5,-131.5 498.5,-131.5 498.5,-112.5 439.5,-112.5"/>
<text text-anchor="middle" x="469" y="-119.5" font-family="Helvetica,sans-Serif" font-size="10.00">stdexcept</text>
</a>
</g>
</g>
<!-- Node18&#45;&gt;Node19 -->
<g id="edge20" class="edge">
<title>Node18&#45;&gt;Node19</title>
<path fill="none" stroke="midnightblue" d="M461.49,-168.08C462.68,-160.93 464.39,-150.64 465.88,-141.69"/>
<polygon fill="midnightblue" stroke="midnightblue" points="469.35,-142.19 467.54,-131.75 462.45,-141.04 469.35,-142.19"/>
</g>
</g>
</svg>
