<?xml version="1.0" encoding="UTF-8" standalone="no"?>
<!DOCTYPE svg PUBLIC "-//W3C//DTD SVG 1.1//EN"
 "http://www.w3.org/Graphics/SVG/1.1/DTD/svg11.dtd">
<!-- Generated by graphviz version 2.47.1 (20210515.0534)
 -->
<!-- Title: src/terminal.cpp Pages: 1 -->
<svg width="461pt" height="308pt"
 viewBox="0.00 0.00 461.00 308.00" xmlns="http://www.w3.org/2000/svg" xmlns:xlink="http://www.w3.org/1999/xlink">
<g id="graph0" class="graph" transform="scale(1 1) rotate(0) translate(4 304)">
<title>src/terminal.cpp</title>
<!-- Node1 -->
<g id="node1" class="node">
<title>Node1</title>
<g id="a_node1"><a xlink:title=" ">
<polygon fill="#bfbfbf" stroke="black" points="64,-280.5 64,-299.5 150,-299.5 150,-280.5 64,-280.5"/>
<text text-anchor="middle" x="107" y="-287.5" font-family="Helvetica,sans-Serif" font-size="10.00">src/terminal.cpp</text>
</a>
</g>
</g>
<!-- Node2 -->
<g id="node2" class="node">
<title>Node2</title>
<g id="a_node2"><a xlink:href="exception_8hpp.html" target="_top" xlink:title=" ">
<polygon fill="none" stroke="black" points="0,-224.5 0,-243.5 100,-243.5 100,-224.5 0,-224.5"/>
<text text-anchor="middle" x="50" y="-231.5" font-family="Helvetica,sans-Serif" font-size="10.00">eltau/exception.hpp</text>
</a>
</g>
</g>
<!-- Node1&#45;&gt;Node2 -->
<g id="edge1" class="edge">
<title>Node1&#45;&gt;Node2</title>
<path fill="none" stroke="midnightblue" d="M97.84,-280.32C89.5,-272.42 76.97,-260.55 66.82,-250.94"/>
<polygon fill="midnightblue" stroke="midnightblue" points="68.99,-248.17 59.32,-243.83 64.18,-253.25 68.99,-248.17"/>
</g>
<!-- Node4 -->
<g id="node4" class="node">
<title>Node4</title>
<g id="a_node4"><a xlink:href="terminal_8hpp.html" target="_top" xlink:title=" ">
<polygon fill="none" stroke="black" points="122.5,-224.5 122.5,-243.5 215.5,-243.5 215.5,-224.5 122.5,-224.5"/>
<text text-anchor="middle" x="169" y="-231.5" font-family="Helvetica,sans-Serif" font-size="10.00">eltau/terminal.hpp</text>
</a>
</g>
</g>
<!-- Node1&#45;&gt;Node4 -->
<g id="edge3" class="edge">
<title>Node1&#45;&gt;Node4</title>
<path fill="none" stroke="midnightblue" d="M116.96,-280.32C126.13,-272.34 139.94,-260.31 151.03,-250.65"/>
<polygon fill="midnightblue" stroke="midnightblue" points="153.62,-253.04 158.86,-243.83 149.02,-247.76 153.62,-253.04"/>
</g>
<!-- Node3 -->
<g id="node3" class="node">
<title>Node3</title>
<g id="a_node3"><a xlink:title=" ">
<polygon fill="none" stroke="#bfbfbf" points="11.5,-168.5 11.5,-187.5 70.5,-187.5 70.5,-168.5 11.5,-168.5"/>
<text text-anchor="middle" x="41" y="-175.5" font-family="Helvetica,sans-Serif" font-size="10.00">stdexcept</text>
</a>
</g>
</g>
<!-- Node2&#45;&gt;Node3 -->
<g id="edge2" class="edge">
<title>Node2&#45;&gt;Node3</title>
<path fill="none" stroke="midnightblue" d="M48.51,-224.08C47.32,-216.93 45.61,-206.64 44.12,-197.69"/>
<polygon fill="midnightblue" stroke="midnightblue" points="47.55,-197.04 42.46,-187.75 40.65,-198.19 47.55,-197.04"/>
</g>
<!-- Node5 -->
<g id="node5" class="node">
<title>Node5</title>
<g id="a_node5"><a xlink:title=" ">
<polygon fill="none" stroke="#bfbfbf" points="7.5,-112.5 7.5,-131.5 58.5,-131.5 58.5,-112.5 7.5,-112.5"/>
<text text-anchor="middle" x="33" y="-119.5" font-family="Helvetica,sans-Serif" font-size="10.00">memory</text>
</a>
</g>
</g>
<!-- Node4&#45;&gt;Node5 -->
<g id="edge4" class="edge">
<title>Node4&#45;&gt;Node5</title>
<path fill="none" stroke="midnightblue" d="M158.33,-224.37C135.29,-205.73 80.64,-161.53 51.71,-138.13"/>
<polygon fill="midnightblue" stroke="midnightblue" points="53.6,-135.16 43.62,-131.59 49.2,-140.6 53.6,-135.16"/>
</g>
<!-- Node6 -->
<g id="node6" class="node">
<title>Node6</title>
<g id="a_node6"><a xlink:href="element_8hpp.html" target="_top" xlink:title=" ">
<polygon fill="none" stroke="black" points="127.5,-168.5 127.5,-187.5 220.5,-187.5 220.5,-168.5 127.5,-168.5"/>
<text text-anchor="middle" x="174" y="-175.5" font-family="Helvetica,sans-Serif" font-size="10.00">eltau/element.hpp</text>
</a>
</g>
</g>
<!-- Node4&#45;&gt;Node6 -->
<g id="edge5" class="edge">
<title>Node4&#45;&gt;Node6</title>
<path fill="none" stroke="midnightblue" d="M169.83,-224.08C170.48,-217.01 171.42,-206.86 172.24,-197.99"/>
<polygon fill="midnightblue" stroke="midnightblue" points="175.75,-198.03 173.19,-187.75 168.78,-197.39 175.75,-198.03"/>
</g>
<!-- Node10 -->
<g id="node10" class="node">
<title>Node10</title>
<g id="a_node10"><a xlink:href="screen_8hpp.html" target="_top" xlink:title=" ">
<polygon fill="none" stroke="black" points="293,-112.5 293,-131.5 381,-131.5 381,-112.5 293,-112.5"/>
<text text-anchor="middle" x="337" y="-119.5" font-family="Helvetica,sans-Serif" font-size="10.00">eltau/screen.hpp</text>
</a>
</g>
</g>
<!-- Node4&#45;&gt;Node10 -->
<g id="edge16" class="edge">
<title>Node4&#45;&gt;Node10</title>
<path fill="none" stroke="midnightblue" d="M182.18,-224.37C211.01,-205.49 279.9,-160.38 315.26,-137.24"/>
<polygon fill="midnightblue" stroke="midnightblue" points="317.43,-140 323.88,-131.59 313.6,-134.14 317.43,-140"/>
</g>
<!-- Node6&#45;&gt;Node5 -->
<g id="edge7" class="edge">
<title>Node6&#45;&gt;Node5</title>
<path fill="none" stroke="midnightblue" d="M151.66,-168.44C128.25,-159.48 91.26,-145.31 64.81,-135.18"/>
<polygon fill="midnightblue" stroke="midnightblue" points="65.83,-131.82 55.24,-131.52 63.32,-138.36 65.83,-131.82"/>
</g>
<!-- Node7 -->
<g id="node7" class="node">
<title>Node7</title>
<g id="a_node7"><a xlink:title=" ">
<polygon fill="none" stroke="#bfbfbf" points="76.5,-112.5 76.5,-131.5 135.5,-131.5 135.5,-112.5 76.5,-112.5"/>
<text text-anchor="middle" x="106" y="-119.5" font-family="Helvetica,sans-Serif" font-size="10.00">functional</text>
</a>
</g>
</g>
<!-- Node6&#45;&gt;Node7 -->
<g id="edge6" class="edge">
<title>Node6&#45;&gt;Node7</title>
<path fill="none" stroke="midnightblue" d="M163.07,-168.32C152.83,-160.18 137.28,-147.84 125,-138.09"/>
<polygon fill="midnightblue" stroke="midnightblue" points="127.13,-135.31 117.12,-131.83 122.78,-140.79 127.13,-135.31"/>
</g>
<!-- Node8 -->
<g id="node8" class="node">
<title>Node8</title>
<g id="a_node8"><a xlink:title=" ">
<polygon fill="none" stroke="#bfbfbf" points="153.5,-112.5 153.5,-131.5 194.5,-131.5 194.5,-112.5 153.5,-112.5"/>
<text text-anchor="middle" x="174" y="-119.5" font-family="Helvetica,sans-Serif" font-size="10.00">string</text>
</a>
</g>
</g>
<!-- Node6&#45;&gt;Node8 -->
<g id="edge8" class="edge">
<title>Node6&#45;&gt;Node8</title>
<path fill="none" stroke="midnightblue" d="M174,-168.08C174,-161.01 174,-150.86 174,-141.99"/>
<polygon fill="midnightblue" stroke="midnightblue" points="177.5,-141.75 174,-131.75 170.5,-141.75 177.5,-141.75"/>
</g>
<!-- Node9 -->
<g id="node9" class="node">
<title>Node9</title>
<g id="a_node9"><a xlink:title=" ">
<polygon fill="none" stroke="#bfbfbf" points="213,-112.5 213,-131.5 275,-131.5 275,-112.5 213,-112.5"/>
<text text-anchor="middle" x="244" y="-119.5" font-family="Helvetica,sans-Serif" font-size="10.00">type_traits</text>
</a>
</g>
</g>
<!-- Node6&#45;&gt;Node9 -->
<g id="edge9" class="edge">
<title>Node6&#45;&gt;Node9</title>
<path fill="none" stroke="midnightblue" d="M185.25,-168.32C195.8,-160.18 211.8,-147.84 224.44,-138.09"/>
<polygon fill="midnightblue" stroke="midnightblue" points="226.77,-140.71 232.55,-131.83 222.49,-135.17 226.77,-140.71"/>
</g>
<!-- Node6&#45;&gt;Node10 -->
<g id="edge10" class="edge">
<title>Node6&#45;&gt;Node10</title>
<path fill="none" stroke="midnightblue" d="M199.83,-168.44C227.25,-159.36 270.78,-144.94 301.43,-134.78"/>
<polygon fill="midnightblue" stroke="midnightblue" points="302.9,-137.98 311.29,-131.52 300.7,-131.34 302.9,-137.98"/>
</g>
<!-- Node11 -->
<g id="node11" class="node">
<title>Node11</title>
<g id="a_node11"><a xlink:title=" ">
<polygon fill="none" stroke="#bfbfbf" points="271,-56.5 271,-75.5 309,-75.5 309,-56.5 271,-56.5"/>
<text text-anchor="middle" x="290" y="-63.5" font-family="Helvetica,sans-Serif" font-size="10.00">array</text>
</a>
</g>
</g>
<!-- Node10&#45;&gt;Node11 -->
<g id="edge11" class="edge">
<title>Node10&#45;&gt;Node11</title>
<path fill="none" stroke="midnightblue" d="M329.24,-112.08C322.46,-104.3 312.46,-92.8 304.24,-83.37"/>
<polygon fill="midnightblue" stroke="midnightblue" points="306.82,-81 297.62,-75.75 301.54,-85.59 306.82,-81"/>
</g>
<!-- Node12 -->
<g id="node12" class="node">
<title>Node12</title>
<g id="a_node12"><a xlink:title=" ">
<polygon fill="none" stroke="#bfbfbf" points="317,-0.5 317,-19.5 363,-19.5 363,-0.5 317,-0.5"/>
<text text-anchor="middle" x="340" y="-7.5" font-family="Helvetica,sans-Serif" font-size="10.00">cstdint</text>
</a>
</g>
</g>
<!-- Node10&#45;&gt;Node12 -->
<g id="edge12" class="edge">
<title>Node10&#45;&gt;Node12</title>
<path fill="none" stroke="midnightblue" d="M337.24,-112.37C337.72,-94.62 338.84,-53.67 339.49,-29.6"/>
<polygon fill="midnightblue" stroke="midnightblue" points="342.99,-29.68 339.77,-19.59 335.99,-29.49 342.99,-29.68"/>
</g>
<!-- Node13 -->
<g id="node13" class="node">
<title>Node13</title>
<g id="a_node13"><a xlink:href="coords_8hpp.html" target="_top" xlink:title=" ">
<polygon fill="none" stroke="black" points="365,-56.5 365,-75.5 453,-75.5 453,-56.5 365,-56.5"/>
<text text-anchor="middle" x="409" y="-63.5" font-family="Helvetica,sans-Serif" font-size="10.00">eltau/coords.hpp</text>
</a>
</g>
</g>
<!-- Node10&#45;&gt;Node13 -->
<g id="edge13" class="edge">
<title>Node10&#45;&gt;Node13</title>
<path fill="none" stroke="midnightblue" d="M348.57,-112.32C359.42,-104.18 375.88,-91.84 388.88,-82.09"/>
<polygon fill="midnightblue" stroke="midnightblue" points="391.32,-84.63 397.22,-75.83 387.12,-79.03 391.32,-84.63"/>
</g>
<!-- Node13&#45;&gt;Node12 -->
<g id="edge14" class="edge">
<title>Node13&#45;&gt;Node12</title>
<path fill="none" stroke="midnightblue" d="M397.91,-56.32C387.51,-48.18 371.74,-35.84 359.28,-26.09"/>
<polygon fill="midnightblue" stroke="midnightblue" points="361.32,-23.24 351.29,-19.83 357.01,-28.75 361.32,-23.24"/>
</g>
<!-- Node14 -->
<g id="node14" class="node">
<title>Node14</title>
<g id="a_node14"><a xlink:title=" ">
<polygon fill="none" stroke="#bfbfbf" points="383,-0.5 383,-19.5 435,-19.5 435,-0.5 383,-0.5"/>
<text text-anchor="middle" x="409" y="-7.5" font-family="Helvetica,sans-Serif" font-size="10.00">ostream</text>
</a>
</g>
</g>
<!-- Node13&#45;&gt;Node14 -->
<g id="edge15" class="edge">
<title>Node13&#45;&gt;Node14</title>
<path fill="none" stroke="midnightblue" d="M409,-56.08C409,-49.01 409,-38.86 409,-29.99"/>
<polygon fill="midnightblue" stroke="midnightblue" points="412.5,-29.75 409,-19.75 405.5,-29.75 412.5,-29.75"/>
</g>
</g>
</svg>
