<?xml version="1.0" encoding="UTF-8" standalone="no"?>
<!DOCTYPE svg PUBLIC "-//W3C//DTD SVG 1.1//EN"
 "http://www.w3.org/Graphics/SVG/1.1/DTD/svg11.dtd">
<!-- Generated by graphviz version 2.47.1 (20210515.0534)
 -->
<!-- Title: src/text.cpp Pages: 1 -->
<svg width="552pt" height="252pt"
 viewBox="0.00 0.00 552.00 252.00" xmlns="http://www.w3.org/2000/svg" xmlns:xlink="http://www.w3.org/1999/xlink">
<g id="graph0" class="graph" transform="scale(1 1) rotate(0) translate(4 248)">
<title>src/text.cpp</title>
<!-- Node1 -->
<g id="node1" class="node">
<title>Node1</title>
<g id="a_node1"><a xlink:title=" ">
<polygon fill="#bfbfbf" stroke="black" points="65.5,-224.5 65.5,-243.5 132.5,-243.5 132.5,-224.5 65.5,-224.5"/>
<text text-anchor="middle" x="99" y="-231.5" font-family="Helvetica,sans-Serif" font-size="10.00">src/text.cpp</text>
</a>
</g>
</g>
<!-- Node2 -->
<g id="node2" class="node">
<title>Node2</title>
<g id="a_node2"><a xlink:title=" ">
<polygon fill="none" stroke="#bfbfbf" points="0,-168.5 0,-187.5 56,-187.5 56,-168.5 0,-168.5"/>
<text text-anchor="middle" x="28" y="-175.5" font-family="Helvetica,sans-Serif" font-size="10.00">algorithm</text>
</a>
</g>
</g>
<!-- Node1&#45;&gt;Node2 -->
<g id="edge1" class="edge">
<title>Node1&#45;&gt;Node2</title>
<path fill="none" stroke="midnightblue" d="M87.59,-224.32C76.89,-216.18 60.66,-203.84 47.84,-194.09"/>
<polygon fill="midnightblue" stroke="midnightblue" points="49.69,-191.1 39.61,-187.83 45.46,-196.67 49.69,-191.1"/>
</g>
<!-- Node3 -->
<g id="node3" class="node">
<title>Node3</title>
<g id="a_node3"><a xlink:title=" ">
<polygon fill="none" stroke="#bfbfbf" points="74.5,-168.5 74.5,-187.5 123.5,-187.5 123.5,-168.5 74.5,-168.5"/>
<text text-anchor="middle" x="99" y="-175.5" font-family="Helvetica,sans-Serif" font-size="10.00">cassert</text>
</a>
</g>
</g>
<!-- Node1&#45;&gt;Node3 -->
<g id="edge2" class="edge">
<title>Node1&#45;&gt;Node3</title>
<path fill="none" stroke="midnightblue" d="M99,-224.08C99,-217.01 99,-206.86 99,-197.99"/>
<polygon fill="midnightblue" stroke="midnightblue" points="102.5,-197.75 99,-187.75 95.5,-197.75 102.5,-197.75"/>
</g>
<!-- Node4 -->
<g id="node4" class="node">
<title>Node4</title>
<g id="a_node4"><a xlink:href="text_8hpp.html" target="_top" xlink:title=" ">
<polygon fill="none" stroke="black" points="142,-168.5 142,-187.5 216,-187.5 216,-168.5 142,-168.5"/>
<text text-anchor="middle" x="179" y="-175.5" font-family="Helvetica,sans-Serif" font-size="10.00">eltau/text.hpp</text>
</a>
</g>
</g>
<!-- Node1&#45;&gt;Node4 -->
<g id="edge3" class="edge">
<title>Node1&#45;&gt;Node4</title>
<path fill="none" stroke="midnightblue" d="M111.85,-224.32C124.22,-215.98 143.13,-203.21 157.74,-193.35"/>
<polygon fill="midnightblue" stroke="midnightblue" points="159.85,-196.15 166.18,-187.65 155.93,-190.35 159.85,-196.15"/>
</g>
<!-- Node5 -->
<g id="node5" class="node">
<title>Node5</title>
<g id="a_node5"><a xlink:title=" ">
<polygon fill="none" stroke="#bfbfbf" points="168,-0.5 168,-19.5 214,-19.5 214,-0.5 168,-0.5"/>
<text text-anchor="middle" x="191" y="-7.5" font-family="Helvetica,sans-Serif" font-size="10.00">cstdint</text>
</a>
</g>
</g>
<!-- Node4&#45;&gt;Node5 -->
<g id="edge4" class="edge">
<title>Node4&#45;&gt;Node5</title>
<path fill="none" stroke="midnightblue" d="M152.7,-168.37C135.51,-161.33 114.08,-149.63 102,-132 82.78,-103.94 74.64,-84.63 93,-56 107.2,-33.86 135.32,-22.47 157.82,-16.69"/>
<polygon fill="midnightblue" stroke="midnightblue" points="158.73,-20.08 167.69,-14.42 157.16,-13.26 158.73,-20.08"/>
</g>
<!-- Node6 -->
<g id="node6" class="node">
<title>Node6</title>
<g id="a_node6"><a xlink:title=" ">
<polygon fill="none" stroke="#bfbfbf" points="111,-112.5 111,-131.5 151,-131.5 151,-112.5 111,-112.5"/>
<text text-anchor="middle" x="131" y="-119.5" font-family="Helvetica,sans-Serif" font-size="10.00">limits</text>
</a>
</g>
</g>
<!-- Node4&#45;&gt;Node6 -->
<g id="edge5" class="edge">
<title>Node4&#45;&gt;Node6</title>
<path fill="none" stroke="midnightblue" d="M171.07,-168.08C164.15,-160.3 153.93,-148.8 145.55,-139.37"/>
<polygon fill="midnightblue" stroke="midnightblue" points="148.04,-136.9 138.78,-131.75 142.81,-141.55 148.04,-136.9"/>
</g>
<!-- Node7 -->
<g id="node7" class="node">
<title>Node7</title>
<g id="a_node7"><a xlink:title=" ">
<polygon fill="none" stroke="#bfbfbf" points="102.5,-56.5 102.5,-75.5 143.5,-75.5 143.5,-56.5 102.5,-56.5"/>
<text text-anchor="middle" x="123" y="-63.5" font-family="Helvetica,sans-Serif" font-size="10.00">string</text>
</a>
</g>
</g>
<!-- Node4&#45;&gt;Node7 -->
<g id="edge6" class="edge">
<title>Node4&#45;&gt;Node7</title>
<path fill="none" stroke="midnightblue" d="M177.59,-168.16C175.27,-155.24 169.89,-130.71 160,-112 154.4,-101.4 146.06,-90.98 138.71,-82.83"/>
<polygon fill="midnightblue" stroke="midnightblue" points="141.23,-80.41 131.83,-75.52 136.14,-85.2 141.23,-80.41"/>
</g>
<!-- Node8 -->
<g id="node8" class="node">
<title>Node8</title>
<g id="a_node8"><a xlink:href="element_8hpp.html" target="_top" xlink:title=" ">
<polygon fill="none" stroke="black" points="212.5,-112.5 212.5,-131.5 305.5,-131.5 305.5,-112.5 212.5,-112.5"/>
<text text-anchor="middle" x="259" y="-119.5" font-family="Helvetica,sans-Serif" font-size="10.00">eltau/element.hpp</text>
</a>
</g>
</g>
<!-- Node4&#45;&gt;Node8 -->
<g id="edge7" class="edge">
<title>Node4&#45;&gt;Node8</title>
<path fill="none" stroke="midnightblue" d="M191.85,-168.32C204.22,-159.98 223.13,-147.21 237.74,-137.35"/>
<polygon fill="midnightblue" stroke="midnightblue" points="239.85,-140.15 246.18,-131.65 235.93,-134.35 239.85,-140.15"/>
</g>
<!-- Node12 -->
<g id="node12" class="node">
<title>Node12</title>
<g id="a_node12"><a xlink:href="screen_8hpp.html" target="_top" xlink:title=" ">
<polygon fill="none" stroke="black" points="388,-56.5 388,-75.5 476,-75.5 476,-56.5 388,-56.5"/>
<text text-anchor="middle" x="432" y="-63.5" font-family="Helvetica,sans-Serif" font-size="10.00">eltau/screen.hpp</text>
</a>
</g>
</g>
<!-- Node4&#45;&gt;Node12 -->
<g id="edge18" class="edge">
<title>Node4&#45;&gt;Node12</title>
<path fill="none" stroke="midnightblue" d="M210.41,-168.43C238.38,-160.37 280.15,-147.28 315,-132 349.23,-116.99 386.63,-95.18 409.71,-81.04"/>
<polygon fill="midnightblue" stroke="midnightblue" points="411.72,-83.91 418.38,-75.68 408.04,-77.96 411.72,-83.91"/>
</g>
<!-- Node8&#45;&gt;Node7 -->
<g id="edge10" class="edge">
<title>Node8&#45;&gt;Node7</title>
<path fill="none" stroke="midnightblue" d="M237.45,-112.44C214.7,-103.41 178.68,-89.11 153.12,-78.96"/>
<polygon fill="midnightblue" stroke="midnightblue" points="154.14,-75.6 143.56,-75.16 151.56,-82.11 154.14,-75.6"/>
</g>
<!-- Node9 -->
<g id="node9" class="node">
<title>Node9</title>
<g id="a_node9"><a xlink:title=" ">
<polygon fill="none" stroke="#bfbfbf" points="161.5,-56.5 161.5,-75.5 220.5,-75.5 220.5,-56.5 161.5,-56.5"/>
<text text-anchor="middle" x="191" y="-63.5" font-family="Helvetica,sans-Serif" font-size="10.00">functional</text>
</a>
</g>
</g>
<!-- Node8&#45;&gt;Node9 -->
<g id="edge8" class="edge">
<title>Node8&#45;&gt;Node9</title>
<path fill="none" stroke="midnightblue" d="M248.07,-112.32C237.83,-104.18 222.28,-91.84 210,-82.09"/>
<polygon fill="midnightblue" stroke="midnightblue" points="212.13,-79.31 202.12,-75.83 207.78,-84.79 212.13,-79.31"/>
</g>
<!-- Node10 -->
<g id="node10" class="node">
<title>Node10</title>
<g id="a_node10"><a xlink:title=" ">
<polygon fill="none" stroke="#bfbfbf" points="238.5,-56.5 238.5,-75.5 289.5,-75.5 289.5,-56.5 238.5,-56.5"/>
<text text-anchor="middle" x="264" y="-63.5" font-family="Helvetica,sans-Serif" font-size="10.00">memory</text>
</a>
</g>
</g>
<!-- Node8&#45;&gt;Node10 -->
<g id="edge9" class="edge">
<title>Node8&#45;&gt;Node10</title>
<path fill="none" stroke="midnightblue" d="M259.83,-112.08C260.48,-105.01 261.42,-94.86 262.24,-85.99"/>
<polygon fill="midnightblue" stroke="midnightblue" points="265.75,-86.03 263.19,-75.75 258.78,-85.39 265.75,-86.03"/>
</g>
<!-- Node11 -->
<g id="node11" class="node">
<title>Node11</title>
<g id="a_node11"><a xlink:title=" ">
<polygon fill="none" stroke="#bfbfbf" points="308,-56.5 308,-75.5 370,-75.5 370,-56.5 308,-56.5"/>
<text text-anchor="middle" x="339" y="-63.5" font-family="Helvetica,sans-Serif" font-size="10.00">type_traits</text>
</a>
</g>
</g>
<!-- Node8&#45;&gt;Node11 -->
<g id="edge11" class="edge">
<title>Node8&#45;&gt;Node11</title>
<path fill="none" stroke="midnightblue" d="M271.85,-112.32C284.22,-103.98 303.13,-91.21 317.74,-81.35"/>
<polygon fill="midnightblue" stroke="midnightblue" points="319.85,-84.15 326.18,-75.65 315.93,-78.35 319.85,-84.15"/>
</g>
<!-- Node8&#45;&gt;Node12 -->
<g id="edge12" class="edge">
<title>Node8&#45;&gt;Node12</title>
<path fill="none" stroke="midnightblue" d="M286.41,-112.44C315.77,-103.28 362.52,-88.69 395.1,-78.52"/>
<polygon fill="midnightblue" stroke="midnightblue" points="396.21,-81.84 404.72,-75.52 394.13,-75.16 396.21,-81.84"/>
</g>
<!-- Node12&#45;&gt;Node5 -->
<g id="edge14" class="edge">
<title>Node12&#45;&gt;Node5</title>
<path fill="none" stroke="midnightblue" d="M393.81,-56.44C347,-45.95 268.43,-28.35 224.08,-18.41"/>
<polygon fill="midnightblue" stroke="midnightblue" points="224.63,-14.95 214.11,-16.18 223.1,-21.78 224.63,-14.95"/>
</g>
<!-- Node13 -->
<g id="node13" class="node">
<title>Node13</title>
<g id="a_node13"><a xlink:title=" ">
<polygon fill="none" stroke="#bfbfbf" points="318,-0.5 318,-19.5 356,-19.5 356,-0.5 318,-0.5"/>
<text text-anchor="middle" x="337" y="-7.5" font-family="Helvetica,sans-Serif" font-size="10.00">array</text>
</a>
</g>
</g>
<!-- Node12&#45;&gt;Node13 -->
<g id="edge13" class="edge">
<title>Node12&#45;&gt;Node13</title>
<path fill="none" stroke="midnightblue" d="M416.74,-56.32C401.78,-47.82 378.75,-34.73 361.27,-24.8"/>
<polygon fill="midnightblue" stroke="midnightblue" points="362.65,-21.55 352.23,-19.65 359.19,-27.64 362.65,-21.55"/>
</g>
<!-- Node14 -->
<g id="node14" class="node">
<title>Node14</title>
<g id="a_node14"><a xlink:title=" ">
<polygon fill="none" stroke="#bfbfbf" points="374,-0.5 374,-19.5 426,-19.5 426,-0.5 374,-0.5"/>
<text text-anchor="middle" x="400" y="-7.5" font-family="Helvetica,sans-Serif" font-size="10.00">ostream</text>
</a>
</g>
</g>
<!-- Node12&#45;&gt;Node14 -->
<g id="edge15" class="edge">
<title>Node12&#45;&gt;Node14</title>
<path fill="none" stroke="midnightblue" d="M426.72,-56.08C422.29,-48.61 415.84,-37.72 410.38,-28.52"/>
<polygon fill="midnightblue" stroke="midnightblue" points="413.29,-26.57 405.19,-19.75 407.27,-30.14 413.29,-26.57"/>
</g>
<!-- Node15 -->
<g id="node15" class="node">
<title>Node15</title>
<g id="a_node15"><a xlink:title=" ">
<polygon fill="none" stroke="#bfbfbf" points="444,-0.5 444,-19.5 482,-19.5 482,-0.5 444,-0.5"/>
<text text-anchor="middle" x="463" y="-7.5" font-family="Helvetica,sans-Serif" font-size="10.00">span</text>
</a>
</g>
</g>
<!-- Node12&#45;&gt;Node15 -->
<g id="edge16" class="edge">
<title>Node12&#45;&gt;Node15</title>
<path fill="none" stroke="midnightblue" d="M437.12,-56.08C441.41,-48.61 447.66,-37.72 452.94,-28.52"/>
<polygon fill="midnightblue" stroke="midnightblue" points="456.03,-30.17 457.98,-19.75 449.96,-26.68 456.03,-30.17"/>
</g>
<!-- Node16 -->
<g id="node16" class="node">
<title>Node16</title>
<g id="a_node16"><a xlink:title=" ">
<polygon fill="none" stroke="#bfbfbf" points="500,-0.5 500,-19.5 544,-19.5 544,-0.5 500,-0.5"/>
<text text-anchor="middle" x="522" y="-7.5" font-family="Helvetica,sans-Serif" font-size="10.00">vector</text>
</a>
</g>
</g>
<!-- Node12&#45;&gt;Node16 -->
<g id="edge17" class="edge">
<title>Node12&#45;&gt;Node16</title>
<path fill="none" stroke="midnightblue" d="M446.46,-56.32C460.5,-47.9 482.05,-34.97 498.54,-25.07"/>
<polygon fill="midnightblue" stroke="midnightblue" points="500.8,-27.8 507.58,-19.65 497.2,-21.8 500.8,-27.8"/>
</g>
</g>
</svg>
