<?xml version="1.0" encoding="UTF-8" standalone="no"?>
<!DOCTYPE svg PUBLIC "-//W3C//DTD SVG 1.1//EN"
 "http://www.w3.org/Graphics/SVG/1.1/DTD/svg11.dtd">
<!-- Generated by graphviz version 2.47.1 (20210515.0534)
 -->
<!-- Title: include/eltau/text.hpp Pages: 1 -->
<svg width="442pt" height="252pt"
 viewBox="0.00 0.00 441.96 252.00" xmlns="http://www.w3.org/2000/svg" xmlns:xlink="http://www.w3.org/1999/xlink">
<g id="graph0" class="graph" transform="scale(1 1) rotate(0) translate(4 248)">
<title>include/eltau/text.hpp</title>
<!-- Node1 -->
<g id="node1" class="node">
<title>Node1</title>
<g id="a_node1"><a xlink:title=" ">
<polygon fill="#bfbfbf" stroke="black" points="42.96,-224.5 42.96,-243.5 150.96,-243.5 150.96,-224.5 42.96,-224.5"/>
<text text-anchor="middle" x="96.96" y="-231.5" font-family="Helvetica,sans-Serif" font-size="10.00">include/eltau/text.hpp</text>
</a>
</g>
</g>
<!-- Node2 -->
<g id="node2" class="node">
<title>Node2</title>
<g id="a_node2"><a xlink:title=" ">
<polygon fill="none" stroke="#bfbfbf" points="238.96,-0.5 238.96,-19.5 284.96,-19.5 284.96,-0.5 238.96,-0.5"/>
<text text-anchor="middle" x="261.96" y="-7.5" font-family="Helvetica,sans-Serif" font-size="10.00">cstdint</text>
</a>
</g>
</g>
<!-- Node1&#45;&gt;Node2 -->
<g id="edge1" class="edge">
<title>Node1&#45;&gt;Node2</title>
<path fill="none" stroke="midnightblue" d="M70.66,-224.37C53.47,-217.33 32.04,-205.63 19.96,-188 0.74,-159.94 -8.08,-140.19 10.96,-112 60.37,-38.87 172.46,-18.68 228.61,-13.11"/>
<polygon fill="midnightblue" stroke="midnightblue" points="229.08,-16.58 238.73,-12.21 228.46,-9.61 229.08,-16.58"/>
</g>
<!-- Node3 -->
<g id="node3" class="node">
<title>Node3</title>
<g id="a_node3"><a xlink:title=" ">
<polygon fill="none" stroke="#bfbfbf" points="28.96,-168.5 28.96,-187.5 68.96,-187.5 68.96,-168.5 28.96,-168.5"/>
<text text-anchor="middle" x="48.96" y="-175.5" font-family="Helvetica,sans-Serif" font-size="10.00">limits</text>
</a>
</g>
</g>
<!-- Node1&#45;&gt;Node3 -->
<g id="edge2" class="edge">
<title>Node1&#45;&gt;Node3</title>
<path fill="none" stroke="midnightblue" d="M89.04,-224.08C82.12,-216.3 71.9,-204.8 63.51,-195.37"/>
<polygon fill="midnightblue" stroke="midnightblue" points="66,-192.9 56.74,-187.75 60.77,-197.55 66,-192.9"/>
</g>
<!-- Node4 -->
<g id="node4" class="node">
<title>Node4</title>
<g id="a_node4"><a xlink:title=" ">
<polygon fill="none" stroke="#bfbfbf" points="20.46,-112.5 20.46,-131.5 61.46,-131.5 61.46,-112.5 20.46,-112.5"/>
<text text-anchor="middle" x="40.96" y="-119.5" font-family="Helvetica,sans-Serif" font-size="10.00">string</text>
</a>
</g>
</g>
<!-- Node1&#45;&gt;Node4 -->
<g id="edge3" class="edge">
<title>Node1&#45;&gt;Node4</title>
<path fill="none" stroke="midnightblue" d="M95.55,-224.16C93.23,-211.24 87.85,-186.71 77.96,-168 72.36,-157.4 64.02,-146.98 56.67,-138.83"/>
<polygon fill="midnightblue" stroke="midnightblue" points="59.2,-136.41 49.79,-131.52 54.1,-141.2 59.2,-136.41"/>
</g>
<!-- Node5 -->
<g id="node5" class="node">
<title>Node5</title>
<g id="a_node5"><a xlink:href="element_8hpp.html" target="_top" xlink:title=" ">
<polygon fill="none" stroke="black" points="130.46,-168.5 130.46,-187.5 223.46,-187.5 223.46,-168.5 130.46,-168.5"/>
<text text-anchor="middle" x="176.96" y="-175.5" font-family="Helvetica,sans-Serif" font-size="10.00">eltau/element.hpp</text>
</a>
</g>
</g>
<!-- Node1&#45;&gt;Node5 -->
<g id="edge4" class="edge">
<title>Node1&#45;&gt;Node5</title>
<path fill="none" stroke="midnightblue" d="M109.82,-224.32C122.18,-215.98 141.09,-203.21 155.7,-193.35"/>
<polygon fill="midnightblue" stroke="midnightblue" points="157.81,-196.15 164.14,-187.65 153.89,-190.35 157.81,-196.15"/>
</g>
<!-- Node9 -->
<g id="node9" class="node">
<title>Node9</title>
<g id="a_node9"><a xlink:href="screen_8hpp.html" target="_top" xlink:title=" ">
<polygon fill="none" stroke="black" points="305.96,-112.5 305.96,-131.5 393.96,-131.5 393.96,-112.5 305.96,-112.5"/>
<text text-anchor="middle" x="349.96" y="-119.5" font-family="Helvetica,sans-Serif" font-size="10.00">eltau/screen.hpp</text>
</a>
</g>
</g>
<!-- Node1&#45;&gt;Node9 -->
<g id="edge15" class="edge">
<title>Node1&#45;&gt;Node9</title>
<path fill="none" stroke="midnightblue" d="M128.37,-224.43C156.34,-216.37 198.12,-203.28 232.96,-188 267.19,-172.99 304.59,-151.18 327.67,-137.04"/>
<polygon fill="midnightblue" stroke="midnightblue" points="329.68,-139.91 336.35,-131.68 326,-133.96 329.68,-139.91"/>
</g>
<!-- Node5&#45;&gt;Node4 -->
<g id="edge7" class="edge">
<title>Node5&#45;&gt;Node4</title>
<path fill="none" stroke="midnightblue" d="M155.41,-168.44C132.67,-159.41 96.64,-145.11 71.09,-134.96"/>
<polygon fill="midnightblue" stroke="midnightblue" points="72.11,-131.6 61.52,-131.16 69.52,-138.11 72.11,-131.6"/>
</g>
<!-- Node6 -->
<g id="node6" class="node">
<title>Node6</title>
<g id="a_node6"><a xlink:title=" ">
<polygon fill="none" stroke="#bfbfbf" points="79.46,-112.5 79.46,-131.5 138.46,-131.5 138.46,-112.5 79.46,-112.5"/>
<text text-anchor="middle" x="108.96" y="-119.5" font-family="Helvetica,sans-Serif" font-size="10.00">functional</text>
</a>
</g>
</g>
<!-- Node5&#45;&gt;Node6 -->
<g id="edge5" class="edge">
<title>Node5&#45;&gt;Node6</title>
<path fill="none" stroke="midnightblue" d="M166.04,-168.32C155.79,-160.18 140.24,-147.84 127.96,-138.09"/>
<polygon fill="midnightblue" stroke="midnightblue" points="130.09,-135.31 120.09,-131.83 125.74,-140.79 130.09,-135.31"/>
</g>
<!-- Node7 -->
<g id="node7" class="node">
<title>Node7</title>
<g id="a_node7"><a xlink:title=" ">
<polygon fill="none" stroke="#bfbfbf" points="156.46,-112.5 156.46,-131.5 207.46,-131.5 207.46,-112.5 156.46,-112.5"/>
<text text-anchor="middle" x="181.96" y="-119.5" font-family="Helvetica,sans-Serif" font-size="10.00">memory</text>
</a>
</g>
</g>
<!-- Node5&#45;&gt;Node7 -->
<g id="edge6" class="edge">
<title>Node5&#45;&gt;Node7</title>
<path fill="none" stroke="midnightblue" d="M177.79,-168.08C178.44,-161.01 179.38,-150.86 180.2,-141.99"/>
<polygon fill="midnightblue" stroke="midnightblue" points="183.72,-142.03 181.15,-131.75 176.74,-141.39 183.72,-142.03"/>
</g>
<!-- Node8 -->
<g id="node8" class="node">
<title>Node8</title>
<g id="a_node8"><a xlink:title=" ">
<polygon fill="none" stroke="#bfbfbf" points="225.96,-112.5 225.96,-131.5 287.96,-131.5 287.96,-112.5 225.96,-112.5"/>
<text text-anchor="middle" x="256.96" y="-119.5" font-family="Helvetica,sans-Serif" font-size="10.00">type_traits</text>
</a>
</g>
</g>
<!-- Node5&#45;&gt;Node8 -->
<g id="edge8" class="edge">
<title>Node5&#45;&gt;Node8</title>
<path fill="none" stroke="midnightblue" d="M189.82,-168.32C202.18,-159.98 221.09,-147.21 235.7,-137.35"/>
<polygon fill="midnightblue" stroke="midnightblue" points="237.81,-140.15 244.14,-131.65 233.89,-134.35 237.81,-140.15"/>
</g>
<!-- Node5&#45;&gt;Node9 -->
<g id="edge9" class="edge">
<title>Node5&#45;&gt;Node9</title>
<path fill="none" stroke="midnightblue" d="M204.37,-168.44C233.73,-159.28 280.48,-144.69 313.06,-134.52"/>
<polygon fill="midnightblue" stroke="midnightblue" points="314.18,-137.84 322.68,-131.52 312.09,-131.16 314.18,-137.84"/>
</g>
<!-- Node9&#45;&gt;Node2 -->
<g id="edge11" class="edge">
<title>Node9&#45;&gt;Node2</title>
<path fill="none" stroke="midnightblue" d="M329.27,-112.35C313.82,-104.88 293.32,-92.65 280.96,-76 271,-62.58 266.24,-44.01 263.98,-30.16"/>
<polygon fill="midnightblue" stroke="midnightblue" points="267.4,-29.3 262.61,-19.85 260.46,-30.22 267.4,-29.3"/>
</g>
<!-- Node10 -->
<g id="node10" class="node">
<title>Node10</title>
<g id="a_node10"><a xlink:title=" ">
<polygon fill="none" stroke="#bfbfbf" points="289.96,-56.5 289.96,-75.5 327.96,-75.5 327.96,-56.5 289.96,-56.5"/>
<text text-anchor="middle" x="308.96" y="-63.5" font-family="Helvetica,sans-Serif" font-size="10.00">array</text>
</a>
</g>
</g>
<!-- Node9&#45;&gt;Node10 -->
<g id="edge10" class="edge">
<title>Node9&#45;&gt;Node10</title>
<path fill="none" stroke="midnightblue" d="M343.19,-112.08C337.4,-104.46 328.9,-93.26 321.82,-83.94"/>
<polygon fill="midnightblue" stroke="midnightblue" points="324.44,-81.6 315.61,-75.75 318.87,-85.83 324.44,-81.6"/>
</g>
<!-- Node11 -->
<g id="node11" class="node">
<title>Node11</title>
<g id="a_node11"><a xlink:href="coords_8hpp.html" target="_top" xlink:title=" ">
<polygon fill="none" stroke="black" points="345.96,-56.5 345.96,-75.5 433.96,-75.5 433.96,-56.5 345.96,-56.5"/>
<text text-anchor="middle" x="389.96" y="-63.5" font-family="Helvetica,sans-Serif" font-size="10.00">eltau/coords.hpp</text>
</a>
</g>
</g>
<!-- Node9&#45;&gt;Node11 -->
<g id="edge12" class="edge">
<title>Node9&#45;&gt;Node11</title>
<path fill="none" stroke="midnightblue" d="M356.57,-112.08C362.22,-104.46 370.51,-93.26 377.41,-83.94"/>
<polygon fill="midnightblue" stroke="midnightblue" points="380.34,-85.87 383.48,-75.75 374.72,-81.7 380.34,-85.87"/>
</g>
<!-- Node11&#45;&gt;Node2 -->
<g id="edge13" class="edge">
<title>Node11&#45;&gt;Node2</title>
<path fill="none" stroke="midnightblue" d="M369.68,-56.44C348.62,-47.56 315.45,-33.56 291.48,-23.45"/>
<polygon fill="midnightblue" stroke="midnightblue" points="292.72,-20.18 282.15,-19.52 290,-26.63 292.72,-20.18"/>
</g>
<!-- Node12 -->
<g id="node12" class="node">
<title>Node12</title>
<g id="a_node12"><a xlink:title=" ">
<polygon fill="none" stroke="#bfbfbf" points="363.96,-0.5 363.96,-19.5 415.96,-19.5 415.96,-0.5 363.96,-0.5"/>
<text text-anchor="middle" x="389.96" y="-7.5" font-family="Helvetica,sans-Serif" font-size="10.00">ostream</text>
</a>
</g>
</g>
<!-- Node11&#45;&gt;Node12 -->
<g id="edge14" class="edge">
<title>Node11&#45;&gt;Node12</title>
<path fill="none" stroke="midnightblue" d="M389.96,-56.08C389.96,-49.01 389.96,-38.86 389.96,-29.99"/>
<polygon fill="midnightblue" stroke="midnightblue" points="393.46,-29.75 389.96,-19.75 386.46,-29.75 393.46,-29.75"/>
</g>
</g>
</svg>
