<?xml version="1.0" encoding="UTF-8" standalone="no"?>
<!DOCTYPE svg PUBLIC "-//W3C//DTD SVG 1.1//EN"
 "http://www.w3.org/Graphics/SVG/1.1/DTD/svg11.dtd">
<!-- Generated by graphviz version 2.47.1 (20210515.0534)
 -->
<!-- Title: include/eltau/text.hpp Pages: 1 -->
<svg width="470pt" height="196pt"
 viewBox="0.00 0.00 469.66 196.00" xmlns="http://www.w3.org/2000/svg" xmlns:xlink="http://www.w3.org/1999/xlink">
<g id="graph0" class="graph" transform="scale(1 1) rotate(0) translate(4 192)">
<title>include/eltau/text.hpp</title>
<!-- Node1 -->
<g id="node1" class="node">
<title>Node1</title>
<g id="a_node1"><a xlink:title=" ">
<polygon fill="#bfbfbf" stroke="black" points="42.66,-168.5 42.66,-187.5 150.66,-187.5 150.66,-168.5 42.66,-168.5"/>
<text text-anchor="middle" x="96.66" y="-175.5" font-family="Helvetica,sans-Serif" font-size="10.00">include/eltau/text.hpp</text>
</a>
</g>
</g>
<!-- Node2 -->
<g id="node2" class="node">
<title>Node2</title>
<g id="a_node2"><a xlink:title=" ">
<polygon fill="none" stroke="#bfbfbf" points="85.66,-0.5 85.66,-19.5 131.66,-19.5 131.66,-0.5 85.66,-0.5"/>
<text text-anchor="middle" x="108.66" y="-7.5" font-family="Helvetica,sans-Serif" font-size="10.00">cstdint</text>
</a>
</g>
</g>
<!-- Node1&#45;&gt;Node2 -->
<g id="edge1" class="edge">
<title>Node1&#45;&gt;Node2</title>
<path fill="none" stroke="midnightblue" d="M70.36,-168.37C53.17,-161.33 31.74,-149.63 19.66,-132 0.44,-103.94 -7.7,-84.63 10.66,-56 24.86,-33.86 52.99,-22.47 75.48,-16.69"/>
<polygon fill="midnightblue" stroke="midnightblue" points="76.39,-20.08 85.35,-14.42 74.82,-13.26 76.39,-20.08"/>
</g>
<!-- Node3 -->
<g id="node3" class="node">
<title>Node3</title>
<g id="a_node3"><a xlink:title=" ">
<polygon fill="none" stroke="#bfbfbf" points="28.66,-112.5 28.66,-131.5 68.66,-131.5 68.66,-112.5 28.66,-112.5"/>
<text text-anchor="middle" x="48.66" y="-119.5" font-family="Helvetica,sans-Serif" font-size="10.00">limits</text>
</a>
</g>
</g>
<!-- Node1&#45;&gt;Node3 -->
<g id="edge2" class="edge">
<title>Node1&#45;&gt;Node3</title>
<path fill="none" stroke="midnightblue" d="M88.74,-168.08C81.82,-160.3 71.6,-148.8 63.21,-139.37"/>
<polygon fill="midnightblue" stroke="midnightblue" points="65.7,-136.9 56.44,-131.75 60.47,-141.55 65.7,-136.9"/>
</g>
<!-- Node4 -->
<g id="node4" class="node">
<title>Node4</title>
<g id="a_node4"><a xlink:title=" ">
<polygon fill="none" stroke="#bfbfbf" points="20.16,-56.5 20.16,-75.5 61.16,-75.5 61.16,-56.5 20.16,-56.5"/>
<text text-anchor="middle" x="40.66" y="-63.5" font-family="Helvetica,sans-Serif" font-size="10.00">string</text>
</a>
</g>
</g>
<!-- Node1&#45;&gt;Node4 -->
<g id="edge3" class="edge">
<title>Node1&#45;&gt;Node4</title>
<path fill="none" stroke="midnightblue" d="M95.25,-168.16C92.93,-155.24 87.55,-130.71 77.66,-112 72.06,-101.4 63.72,-90.98 56.37,-82.83"/>
<polygon fill="midnightblue" stroke="midnightblue" points="58.9,-80.41 49.5,-75.52 53.8,-85.2 58.9,-80.41"/>
</g>
<!-- Node5 -->
<g id="node5" class="node">
<title>Node5</title>
<g id="a_node5"><a xlink:href="element_8hpp.html" target="_top" xlink:title=" ">
<polygon fill="none" stroke="black" points="130.16,-112.5 130.16,-131.5 223.16,-131.5 223.16,-112.5 130.16,-112.5"/>
<text text-anchor="middle" x="176.66" y="-119.5" font-family="Helvetica,sans-Serif" font-size="10.00">eltau/element.hpp</text>
</a>
</g>
</g>
<!-- Node1&#45;&gt;Node5 -->
<g id="edge4" class="edge">
<title>Node1&#45;&gt;Node5</title>
<path fill="none" stroke="midnightblue" d="M109.52,-168.32C121.88,-159.98 140.79,-147.21 155.4,-137.35"/>
<polygon fill="midnightblue" stroke="midnightblue" points="157.51,-140.15 163.84,-131.65 153.6,-134.35 157.51,-140.15"/>
</g>
<!-- Node9 -->
<g id="node9" class="node">
<title>Node9</title>
<g id="a_node9"><a xlink:href="screen_8hpp.html" target="_top" xlink:title=" ">
<polygon fill="none" stroke="black" points="305.66,-56.5 305.66,-75.5 393.66,-75.5 393.66,-56.5 305.66,-56.5"/>
<text text-anchor="middle" x="349.66" y="-63.5" font-family="Helvetica,sans-Serif" font-size="10.00">eltau/screen.hpp</text>
</a>
</g>
</g>
<!-- Node1&#45;&gt;Node9 -->
<g id="edge15" class="edge">
<title>Node1&#45;&gt;Node9</title>
<path fill="none" stroke="midnightblue" d="M128.07,-168.43C156.05,-160.37 197.82,-147.28 232.66,-132 266.89,-116.99 304.29,-95.18 327.37,-81.04"/>
<polygon fill="midnightblue" stroke="midnightblue" points="329.39,-83.91 336.05,-75.68 325.7,-77.96 329.39,-83.91"/>
</g>
<!-- Node5&#45;&gt;Node4 -->
<g id="edge7" class="edge">
<title>Node5&#45;&gt;Node4</title>
<path fill="none" stroke="midnightblue" d="M155.12,-112.44C132.37,-103.41 96.34,-89.11 70.79,-78.96"/>
<polygon fill="midnightblue" stroke="midnightblue" points="71.81,-75.6 61.22,-75.16 69.23,-82.11 71.81,-75.6"/>
</g>
<!-- Node6 -->
<g id="node6" class="node">
<title>Node6</title>
<g id="a_node6"><a xlink:title=" ">
<polygon fill="none" stroke="#bfbfbf" points="79.16,-56.5 79.16,-75.5 138.16,-75.5 138.16,-56.5 79.16,-56.5"/>
<text text-anchor="middle" x="108.66" y="-63.5" font-family="Helvetica,sans-Serif" font-size="10.00">functional</text>
</a>
</g>
</g>
<!-- Node5&#45;&gt;Node6 -->
<g id="edge5" class="edge">
<title>Node5&#45;&gt;Node6</title>
<path fill="none" stroke="midnightblue" d="M165.74,-112.32C155.49,-104.18 139.94,-91.84 127.66,-82.09"/>
<polygon fill="midnightblue" stroke="midnightblue" points="129.8,-79.31 119.79,-75.83 125.44,-84.79 129.8,-79.31"/>
</g>
<!-- Node7 -->
<g id="node7" class="node">
<title>Node7</title>
<g id="a_node7"><a xlink:title=" ">
<polygon fill="none" stroke="#bfbfbf" points="156.16,-56.5 156.16,-75.5 207.16,-75.5 207.16,-56.5 156.16,-56.5"/>
<text text-anchor="middle" x="181.66" y="-63.5" font-family="Helvetica,sans-Serif" font-size="10.00">memory</text>
</a>
</g>
</g>
<!-- Node5&#45;&gt;Node7 -->
<g id="edge6" class="edge">
<title>Node5&#45;&gt;Node7</title>
<path fill="none" stroke="midnightblue" d="M177.49,-112.08C178.15,-105.01 179.08,-94.86 179.91,-85.99"/>
<polygon fill="midnightblue" stroke="midnightblue" points="183.42,-86.03 180.85,-75.75 176.45,-85.39 183.42,-86.03"/>
</g>
<!-- Node8 -->
<g id="node8" class="node">
<title>Node8</title>
<g id="a_node8"><a xlink:title=" ">
<polygon fill="none" stroke="#bfbfbf" points="225.66,-56.5 225.66,-75.5 287.66,-75.5 287.66,-56.5 225.66,-56.5"/>
<text text-anchor="middle" x="256.66" y="-63.5" font-family="Helvetica,sans-Serif" font-size="10.00">type_traits</text>
</a>
</g>
</g>
<!-- Node5&#45;&gt;Node8 -->
<g id="edge8" class="edge">
<title>Node5&#45;&gt;Node8</title>
<path fill="none" stroke="midnightblue" d="M189.52,-112.32C201.88,-103.98 220.79,-91.21 235.4,-81.35"/>
<polygon fill="midnightblue" stroke="midnightblue" points="237.51,-84.15 243.84,-75.65 233.6,-78.35 237.51,-84.15"/>
</g>
<!-- Node5&#45;&gt;Node9 -->
<g id="edge9" class="edge">
<title>Node5&#45;&gt;Node9</title>
<path fill="none" stroke="midnightblue" d="M204.08,-112.44C233.43,-103.28 280.18,-88.69 312.76,-78.52"/>
<polygon fill="midnightblue" stroke="midnightblue" points="313.88,-81.84 322.38,-75.52 311.79,-75.16 313.88,-81.84"/>
</g>
<!-- Node9&#45;&gt;Node2 -->
<g id="edge11" class="edge">
<title>Node9&#45;&gt;Node2</title>
<path fill="none" stroke="midnightblue" d="M311.48,-56.44C264.66,-45.95 186.1,-28.35 141.74,-18.41"/>
<polygon fill="midnightblue" stroke="midnightblue" points="142.29,-14.95 131.77,-16.18 140.76,-21.78 142.29,-14.95"/>
</g>
<!-- Node10 -->
<g id="node10" class="node">
<title>Node10</title>
<g id="a_node10"><a xlink:title=" ">
<polygon fill="none" stroke="#bfbfbf" points="235.66,-0.5 235.66,-19.5 273.66,-19.5 273.66,-0.5 235.66,-0.5"/>
<text text-anchor="middle" x="254.66" y="-7.5" font-family="Helvetica,sans-Serif" font-size="10.00">array</text>
</a>
</g>
</g>
<!-- Node9&#45;&gt;Node10 -->
<g id="edge10" class="edge">
<title>Node9&#45;&gt;Node10</title>
<path fill="none" stroke="midnightblue" d="M334.4,-56.32C319.44,-47.82 296.41,-34.73 278.94,-24.8"/>
<polygon fill="midnightblue" stroke="midnightblue" points="280.31,-21.55 269.89,-19.65 276.85,-27.64 280.31,-21.55"/>
</g>
<!-- Node11 -->
<g id="node11" class="node">
<title>Node11</title>
<g id="a_node11"><a xlink:title=" ">
<polygon fill="none" stroke="#bfbfbf" points="291.66,-0.5 291.66,-19.5 343.66,-19.5 343.66,-0.5 291.66,-0.5"/>
<text text-anchor="middle" x="317.66" y="-7.5" font-family="Helvetica,sans-Serif" font-size="10.00">ostream</text>
</a>
</g>
</g>
<!-- Node9&#45;&gt;Node11 -->
<g id="edge12" class="edge">
<title>Node9&#45;&gt;Node11</title>
<path fill="none" stroke="midnightblue" d="M344.38,-56.08C339.95,-48.61 333.5,-37.72 328.05,-28.52"/>
<polygon fill="midnightblue" stroke="midnightblue" points="330.96,-26.57 322.85,-19.75 324.94,-30.14 330.96,-26.57"/>
</g>
<!-- Node12 -->
<g id="node12" class="node">
<title>Node12</title>
<g id="a_node12"><a xlink:title=" ">
<polygon fill="none" stroke="#bfbfbf" points="361.66,-0.5 361.66,-19.5 399.66,-19.5 399.66,-0.5 361.66,-0.5"/>
<text text-anchor="middle" x="380.66" y="-7.5" font-family="Helvetica,sans-Serif" font-size="10.00">span</text>
</a>
</g>
</g>
<!-- Node9&#45;&gt;Node12 -->
<g id="edge13" class="edge">
<title>Node9&#45;&gt;Node12</title>
<path fill="none" stroke="midnightblue" d="M354.78,-56.08C359.07,-48.61 365.32,-37.72 370.61,-28.52"/>
<polygon fill="midnightblue" stroke="midnightblue" points="373.7,-30.17 375.64,-19.75 367.63,-26.68 373.7,-30.17"/>
</g>
<!-- Node13 -->
<g id="node13" class="node">
<title>Node13</title>
<g id="a_node13"><a xlink:title=" ">
<polygon fill="none" stroke="#bfbfbf" points="417.66,-0.5 417.66,-19.5 461.66,-19.5 461.66,-0.5 417.66,-0.5"/>
<text text-anchor="middle" x="439.66" y="-7.5" font-family="Helvetica,sans-Serif" font-size="10.00">vector</text>
</a>
</g>
</g>
<!-- Node9&#45;&gt;Node13 -->
<g id="edge14" class="edge">
<title>Node9&#45;&gt;Node13</title>
<path fill="none" stroke="midnightblue" d="M364.12,-56.32C378.16,-47.9 399.71,-34.97 416.21,-25.07"/>
<polygon fill="midnightblue" stroke="midnightblue" points="418.47,-27.8 425.24,-19.65 414.86,-21.8 418.47,-27.8"/>
</g>
</g>
</svg>
