<?xml version="1.0" encoding="UTF-8" standalone="no"?>
<!DOCTYPE svg PUBLIC "-//W3C//DTD SVG 1.1//EN"
 "http://www.w3.org/Graphics/SVG/1.1/DTD/svg11.dtd">
<!-- Generated by graphviz version 2.47.1 (20210515.0534)
 -->
<!-- Title: src/text.cpp Pages: 1 -->
<svg width="524pt" height="308pt"
 viewBox="0.00 0.00 524.00 308.00" xmlns="http://www.w3.org/2000/svg" xmlns:xlink="http://www.w3.org/1999/xlink">
<g id="graph0" class="graph" transform="scale(1 1) rotate(0) translate(4 304)">
<title>src/text.cpp</title>
<!-- Node1 -->
<g id="node1" class="node">
<title>Node1</title>
<g id="a_node1"><a xlink:title=" ">
<polygon fill="#bfbfbf" stroke="black" points="65.5,-280.5 65.5,-299.5 132.5,-299.5 132.5,-280.5 65.5,-280.5"/>
<text text-anchor="middle" x="99" y="-287.5" font-family="Helvetica,sans-Serif" font-size="10.00">src/text.cpp</text>
</a>
</g>
</g>
<!-- Node2 -->
<g id="node2" class="node">
<title>Node2</title>
<g id="a_node2"><a xlink:title=" ">
<polygon fill="none" stroke="#bfbfbf" points="0,-224.5 0,-243.5 56,-243.5 56,-224.5 0,-224.5"/>
<text text-anchor="middle" x="28" y="-231.5" font-family="Helvetica,sans-Serif" font-size="10.00">algorithm</text>
</a>
</g>
</g>
<!-- Node1&#45;&gt;Node2 -->
<g id="edge1" class="edge">
<title>Node1&#45;&gt;Node2</title>
<path fill="none" stroke="midnightblue" d="M87.59,-280.32C76.89,-272.18 60.66,-259.84 47.84,-250.09"/>
<polygon fill="midnightblue" stroke="midnightblue" points="49.69,-247.1 39.61,-243.83 45.46,-252.67 49.69,-247.1"/>
</g>
<!-- Node3 -->
<g id="node3" class="node">
<title>Node3</title>
<g id="a_node3"><a xlink:title=" ">
<polygon fill="none" stroke="#bfbfbf" points="74.5,-224.5 74.5,-243.5 123.5,-243.5 123.5,-224.5 74.5,-224.5"/>
<text text-anchor="middle" x="99" y="-231.5" font-family="Helvetica,sans-Serif" font-size="10.00">cassert</text>
</a>
</g>
</g>
<!-- Node1&#45;&gt;Node3 -->
<g id="edge2" class="edge">
<title>Node1&#45;&gt;Node3</title>
<path fill="none" stroke="midnightblue" d="M99,-280.08C99,-273.01 99,-262.86 99,-253.99"/>
<polygon fill="midnightblue" stroke="midnightblue" points="102.5,-253.75 99,-243.75 95.5,-253.75 102.5,-253.75"/>
</g>
<!-- Node4 -->
<g id="node4" class="node">
<title>Node4</title>
<g id="a_node4"><a xlink:href="text_8hpp.html" target="_top" xlink:title=" ">
<polygon fill="none" stroke="black" points="142,-224.5 142,-243.5 216,-243.5 216,-224.5 142,-224.5"/>
<text text-anchor="middle" x="179" y="-231.5" font-family="Helvetica,sans-Serif" font-size="10.00">eltau/text.hpp</text>
</a>
</g>
</g>
<!-- Node1&#45;&gt;Node4 -->
<g id="edge3" class="edge">
<title>Node1&#45;&gt;Node4</title>
<path fill="none" stroke="midnightblue" d="M111.85,-280.32C124.22,-271.98 143.13,-259.21 157.74,-249.35"/>
<polygon fill="midnightblue" stroke="midnightblue" points="159.85,-252.15 166.18,-243.65 155.93,-246.35 159.85,-252.15"/>
</g>
<!-- Node5 -->
<g id="node5" class="node">
<title>Node5</title>
<g id="a_node5"><a xlink:title=" ">
<polygon fill="none" stroke="#bfbfbf" points="321,-0.5 321,-19.5 367,-19.5 367,-0.5 321,-0.5"/>
<text text-anchor="middle" x="344" y="-7.5" font-family="Helvetica,sans-Serif" font-size="10.00">cstdint</text>
</a>
</g>
</g>
<!-- Node4&#45;&gt;Node5 -->
<g id="edge4" class="edge">
<title>Node4&#45;&gt;Node5</title>
<path fill="none" stroke="midnightblue" d="M152.7,-224.37C135.51,-217.33 114.08,-205.63 102,-188 82.78,-159.94 73.96,-140.19 93,-112 142.4,-38.87 254.5,-18.68 310.64,-13.11"/>
<polygon fill="midnightblue" stroke="midnightblue" points="311.12,-16.58 320.77,-12.21 310.5,-9.61 311.12,-16.58"/>
</g>
<!-- Node6 -->
<g id="node6" class="node">
<title>Node6</title>
<g id="a_node6"><a xlink:title=" ">
<polygon fill="none" stroke="#bfbfbf" points="111,-168.5 111,-187.5 151,-187.5 151,-168.5 111,-168.5"/>
<text text-anchor="middle" x="131" y="-175.5" font-family="Helvetica,sans-Serif" font-size="10.00">limits</text>
</a>
</g>
</g>
<!-- Node4&#45;&gt;Node6 -->
<g id="edge5" class="edge">
<title>Node4&#45;&gt;Node6</title>
<path fill="none" stroke="midnightblue" d="M171.07,-224.08C164.15,-216.3 153.93,-204.8 145.55,-195.37"/>
<polygon fill="midnightblue" stroke="midnightblue" points="148.04,-192.9 138.78,-187.75 142.81,-197.55 148.04,-192.9"/>
</g>
<!-- Node7 -->
<g id="node7" class="node">
<title>Node7</title>
<g id="a_node7"><a xlink:title=" ">
<polygon fill="none" stroke="#bfbfbf" points="102.5,-112.5 102.5,-131.5 143.5,-131.5 143.5,-112.5 102.5,-112.5"/>
<text text-anchor="middle" x="123" y="-119.5" font-family="Helvetica,sans-Serif" font-size="10.00">string</text>
</a>
</g>
</g>
<!-- Node4&#45;&gt;Node7 -->
<g id="edge6" class="edge">
<title>Node4&#45;&gt;Node7</title>
<path fill="none" stroke="midnightblue" d="M177.59,-224.16C175.27,-211.24 169.89,-186.71 160,-168 154.4,-157.4 146.06,-146.98 138.71,-138.83"/>
<polygon fill="midnightblue" stroke="midnightblue" points="141.23,-136.41 131.83,-131.52 136.14,-141.2 141.23,-136.41"/>
</g>
<!-- Node8 -->
<g id="node8" class="node">
<title>Node8</title>
<g id="a_node8"><a xlink:href="element_8hpp.html" target="_top" xlink:title=" ">
<polygon fill="none" stroke="black" points="212.5,-168.5 212.5,-187.5 305.5,-187.5 305.5,-168.5 212.5,-168.5"/>
<text text-anchor="middle" x="259" y="-175.5" font-family="Helvetica,sans-Serif" font-size="10.00">eltau/element.hpp</text>
</a>
</g>
</g>
<!-- Node4&#45;&gt;Node8 -->
<g id="edge7" class="edge">
<title>Node4&#45;&gt;Node8</title>
<path fill="none" stroke="midnightblue" d="M191.85,-224.32C204.22,-215.98 223.13,-203.21 237.74,-193.35"/>
<polygon fill="midnightblue" stroke="midnightblue" points="239.85,-196.15 246.18,-187.65 235.93,-190.35 239.85,-196.15"/>
</g>
<!-- Node12 -->
<g id="node12" class="node">
<title>Node12</title>
<g id="a_node12"><a xlink:href="screen_8hpp.html" target="_top" xlink:title=" ">
<polygon fill="none" stroke="black" points="388,-112.5 388,-131.5 476,-131.5 476,-112.5 388,-112.5"/>
<text text-anchor="middle" x="432" y="-119.5" font-family="Helvetica,sans-Serif" font-size="10.00">eltau/screen.hpp</text>
</a>
</g>
</g>
<!-- Node4&#45;&gt;Node12 -->
<g id="edge18" class="edge">
<title>Node4&#45;&gt;Node12</title>
<path fill="none" stroke="midnightblue" d="M210.41,-224.43C238.38,-216.37 280.15,-203.28 315,-188 349.23,-172.99 386.63,-151.18 409.71,-137.04"/>
<polygon fill="midnightblue" stroke="midnightblue" points="411.72,-139.91 418.38,-131.68 408.04,-133.96 411.72,-139.91"/>
</g>
<!-- Node8&#45;&gt;Node7 -->
<g id="edge10" class="edge">
<title>Node8&#45;&gt;Node7</title>
<path fill="none" stroke="midnightblue" d="M237.45,-168.44C214.7,-159.41 178.68,-145.11 153.12,-134.96"/>
<polygon fill="midnightblue" stroke="midnightblue" points="154.14,-131.6 143.56,-131.16 151.56,-138.11 154.14,-131.6"/>
</g>
<!-- Node9 -->
<g id="node9" class="node">
<title>Node9</title>
<g id="a_node9"><a xlink:title=" ">
<polygon fill="none" stroke="#bfbfbf" points="161.5,-112.5 161.5,-131.5 220.5,-131.5 220.5,-112.5 161.5,-112.5"/>
<text text-anchor="middle" x="191" y="-119.5" font-family="Helvetica,sans-Serif" font-size="10.00">functional</text>
</a>
</g>
</g>
<!-- Node8&#45;&gt;Node9 -->
<g id="edge8" class="edge">
<title>Node8&#45;&gt;Node9</title>
<path fill="none" stroke="midnightblue" d="M248.07,-168.32C237.83,-160.18 222.28,-147.84 210,-138.09"/>
<polygon fill="midnightblue" stroke="midnightblue" points="212.13,-135.31 202.12,-131.83 207.78,-140.79 212.13,-135.31"/>
</g>
<!-- Node10 -->
<g id="node10" class="node">
<title>Node10</title>
<g id="a_node10"><a xlink:title=" ">
<polygon fill="none" stroke="#bfbfbf" points="238.5,-112.5 238.5,-131.5 289.5,-131.5 289.5,-112.5 238.5,-112.5"/>
<text text-anchor="middle" x="264" y="-119.5" font-family="Helvetica,sans-Serif" font-size="10.00">memory</text>
</a>
</g>
</g>
<!-- Node8&#45;&gt;Node10 -->
<g id="edge9" class="edge">
<title>Node8&#45;&gt;Node10</title>
<path fill="none" stroke="midnightblue" d="M259.83,-168.08C260.48,-161.01 261.42,-150.86 262.24,-141.99"/>
<polygon fill="midnightblue" stroke="midnightblue" points="265.75,-142.03 263.19,-131.75 258.78,-141.39 265.75,-142.03"/>
</g>
<!-- Node11 -->
<g id="node11" class="node">
<title>Node11</title>
<g id="a_node11"><a xlink:title=" ">
<polygon fill="none" stroke="#bfbfbf" points="308,-112.5 308,-131.5 370,-131.5 370,-112.5 308,-112.5"/>
<text text-anchor="middle" x="339" y="-119.5" font-family="Helvetica,sans-Serif" font-size="10.00">type_traits</text>
</a>
</g>
</g>
<!-- Node8&#45;&gt;Node11 -->
<g id="edge11" class="edge">
<title>Node8&#45;&gt;Node11</title>
<path fill="none" stroke="midnightblue" d="M271.85,-168.32C284.22,-159.98 303.13,-147.21 317.74,-137.35"/>
<polygon fill="midnightblue" stroke="midnightblue" points="319.85,-140.15 326.18,-131.65 315.93,-134.35 319.85,-140.15"/>
</g>
<!-- Node8&#45;&gt;Node12 -->
<g id="edge12" class="edge">
<title>Node8&#45;&gt;Node12</title>
<path fill="none" stroke="midnightblue" d="M286.41,-168.44C315.77,-159.28 362.52,-144.69 395.1,-134.52"/>
<polygon fill="midnightblue" stroke="midnightblue" points="396.21,-137.84 404.72,-131.52 394.13,-131.16 396.21,-137.84"/>
</g>
<!-- Node12&#45;&gt;Node5 -->
<g id="edge14" class="edge">
<title>Node12&#45;&gt;Node5</title>
<path fill="none" stroke="midnightblue" d="M411.3,-112.35C395.86,-104.88 375.36,-92.65 363,-76 353.03,-62.58 348.28,-44.01 346.02,-30.16"/>
<polygon fill="midnightblue" stroke="midnightblue" points="349.43,-29.3 344.65,-19.85 342.5,-30.22 349.43,-29.3"/>
</g>
<!-- Node13 -->
<g id="node13" class="node">
<title>Node13</title>
<g id="a_node13"><a xlink:title=" ">
<polygon fill="none" stroke="#bfbfbf" points="372,-56.5 372,-75.5 410,-75.5 410,-56.5 372,-56.5"/>
<text text-anchor="middle" x="391" y="-63.5" font-family="Helvetica,sans-Serif" font-size="10.00">array</text>
</a>
</g>
</g>
<!-- Node12&#45;&gt;Node13 -->
<g id="edge13" class="edge">
<title>Node12&#45;&gt;Node13</title>
<path fill="none" stroke="midnightblue" d="M425.23,-112.08C419.44,-104.46 410.94,-93.26 403.86,-83.94"/>
<polygon fill="midnightblue" stroke="midnightblue" points="406.48,-81.6 397.64,-75.75 400.9,-85.83 406.48,-81.6"/>
</g>
<!-- Node14 -->
<g id="node14" class="node">
<title>Node14</title>
<g id="a_node14"><a xlink:href="coords_8hpp.html" target="_top" xlink:title=" ">
<polygon fill="none" stroke="black" points="428,-56.5 428,-75.5 516,-75.5 516,-56.5 428,-56.5"/>
<text text-anchor="middle" x="472" y="-63.5" font-family="Helvetica,sans-Serif" font-size="10.00">eltau/coords.hpp</text>
</a>
</g>
</g>
<!-- Node12&#45;&gt;Node14 -->
<g id="edge15" class="edge">
<title>Node12&#45;&gt;Node14</title>
<path fill="none" stroke="midnightblue" d="M438.61,-112.08C444.26,-104.46 452.54,-93.26 459.45,-83.94"/>
<polygon fill="midnightblue" stroke="midnightblue" points="462.38,-85.87 465.52,-75.75 456.75,-81.7 462.38,-85.87"/>
</g>
<!-- Node14&#45;&gt;Node5 -->
<g id="edge16" class="edge">
<title>Node14&#45;&gt;Node5</title>
<path fill="none" stroke="midnightblue" d="M451.72,-56.44C430.65,-47.56 397.48,-33.56 373.51,-23.45"/>
<polygon fill="midnightblue" stroke="midnightblue" points="374.76,-20.18 364.19,-19.52 372.04,-26.63 374.76,-20.18"/>
</g>
<!-- Node15 -->
<g id="node15" class="node">
<title>Node15</title>
<g id="a_node15"><a xlink:title=" ">
<polygon fill="none" stroke="#bfbfbf" points="446,-0.5 446,-19.5 498,-19.5 498,-0.5 446,-0.5"/>
<text text-anchor="middle" x="472" y="-7.5" font-family="Helvetica,sans-Serif" font-size="10.00">ostream</text>
</a>
</g>
</g>
<!-- Node14&#45;&gt;Node15 -->
<g id="edge17" class="edge">
<title>Node14&#45;&gt;Node15</title>
<path fill="none" stroke="midnightblue" d="M472,-56.08C472,-49.01 472,-38.86 472,-29.99"/>
<polygon fill="midnightblue" stroke="midnightblue" points="475.5,-29.75 472,-19.75 468.5,-29.75 475.5,-29.75"/>
</g>
</g>
</svg>
